<svg width="47" height="48" viewBox="0 0 47 48" fill="none" xmlns="http://www.w3.org/2000/svg">
<path d="M41.0823 24.0654C43.9725 23.303 46.6753 21.9746 46.5857 20.6604C46.4792 19.0992 42.4665 18.0531 39.0048 17.894C41.6159 15.8503 44.015 13.0252 43.2813 11.7476C42.6068 10.5729 39.469 11.0279 36.574 12.0625C38.2872 9.61204 39.4917 6.85081 38.5744 5.90586C37.4318 4.72876 33.3763 6.76044 30.6087 9.0062C31.1474 5.50753 30.8751 1.09129 29.3065 0.691737C27.9943 0.357475 26.1345 2.92644 24.8595 5.7249C24.2959 2.78814 23.1551 0 21.8384 0C19.9628 0 18.4423 5.65762 18.4423 9.34357C18.4423 9.55192 18.4478 9.74806 18.4573 9.93545C18.269 9.7171 18.0533 9.48898 17.8072 9.24992C15.1642 6.68197 10.048 3.83165 8.74121 5.17778C7.82391 6.12274 9.02839 8.88396 10.7416 11.3344C7.84661 10.2999 4.70883 9.84486 4.03432 11.0195C3.128 12.5978 7.00204 16.5378 10.151 18.4485C9.96172 18.4257 9.76284 18.4065 9.55118 18.392C5.8754 18.1411 0.129858 19.2736 0.00216892 21.1457C-0.0874684 22.4599 2.61532 23.7884 5.50562 24.5508C2.62806 25.633 -0.0604007 27.3144 0.18362 28.6469C0.479774 30.2641 4.99701 30.8302 8.54879 30.4988C5.89535 33.0458 3.01816 37.6084 4.21889 38.9456C5.09881 39.9255 7.93441 38.9112 10.4947 37.368C9.26594 40.1872 8.59858 43.2881 9.72408 44.0413C11.2115 45.0367 15.2907 41.5723 17.4414 38.5913C17.2223 42.2382 18.0945 47.2483 19.8252 47.446C21.1333 47.5955 22.583 44.9548 23.4759 42.101C24.4254 45.0261 25.9818 47.7896 27.3235 47.6064C29.0681 47.3683 29.8286 42.2328 29.5032 38.5833C31.7217 41.4416 35.4553 44.4985 36.8638 43.5559C37.9893 42.8027 37.3219 39.7018 36.0932 36.8827C38.6535 38.4258 41.4891 39.4401 42.369 38.4602C43.5697 37.123 40.6925 32.5604 38.0391 30.0134C41.5909 30.3448 46.1081 29.7787 46.4043 28.1615C46.6483 26.829 43.9598 25.1476 41.0823 24.0654ZM25.5196 34.381C24.7766 34.4825 24.0973 34.6273 23.5807 34.9971C23.0318 34.4521 22.2302 34.2861 21.3389 34.1842C20.341 34.0702 19.4341 34.0592 18.7425 34.6354C18.4894 33.9317 17.8672 33.4318 17.1424 32.9467C16.5191 32.5296 15.9147 32.1873 15.2829 32.1212C15.2335 31.3491 14.7437 30.693 14.1442 30.0253C13.7619 29.5996 13.3795 29.219 12.9551 28.9645C13.5674 28.2186 13.4968 27.276 13.3073 26.2415C13.1722 25.5036 12.9966 24.8313 12.6038 24.3318C13.123 23.7585 13.2523 22.9498 13.3134 22.0544C13.38 21.0767 13.3523 20.1903 12.7883 19.5303C14.246 19.7158 14.9494 18.8072 15.6033 17.6686C15.9768 17.0181 16.2771 16.3915 16.2999 15.7564C17.0666 15.6545 17.6876 15.1209 18.3125 14.4771C18.8464 13.9272 19.3006 13.3826 19.4711 12.7558C20.0829 13.2701 20.9176 13.348 21.8384 13.348C22.7355 13.348 23.5508 13.274 24.1579 12.7948C24.6292 13.2209 25.2877 13.4419 26.0144 13.627C26.708 13.8037 27.3628 13.9218 27.9581 13.8029C28.1754 14.2996 28.5618 14.7506 29.0031 15.2052C29.6281 15.849 30.2491 16.3826 31.0157 16.4844C31.0385 17.1196 31.3388 17.7462 31.7123 18.3966C32.152 19.1623 32.6138 19.8243 33.3122 20.1197C33.2307 20.5645 33.2394 21.054 33.2745 21.569C33.3356 22.4644 33.4648 23.2731 33.9841 23.8464C33.5913 24.3459 33.4157 25.0182 33.2805 25.7561C33.0911 26.7906 33.0205 27.7333 33.6328 28.4791C33.2084 28.7336 32.826 29.1142 32.4437 29.5399C31.8442 30.2076 31.3544 30.8638 31.305 31.6359C30.6732 31.7019 30.0688 32.0443 29.4455 32.4613C28.5943 33.031 27.8852 33.6215 27.749 34.5382C27.1102 34.2282 26.3456 34.2683 25.5196 34.381Z" fill="#F6C345"/>
</svg>
