<svg width="47" height="48" viewBox="0 0 47 48" fill="none" xmlns="http://www.w3.org/2000/svg">
<path d="M41.0823 24.1631C43.9725 23.4007 46.6753 22.0722 46.5857 20.758C46.4792 19.1968 42.4665 18.1508 39.0048 17.9916C41.6159 15.948 44.015 13.1229 43.2813 11.8452C42.6068 10.6706 39.469 11.1256 36.574 12.1601C38.2872 9.70969 39.4917 6.94847 38.5744 6.00351C37.4318 4.82641 33.3763 6.8581 30.6087 9.10385C31.1474 5.60519 30.8751 1.18895 29.3065 0.789393C27.9943 0.455131 26.1345 3.0241 24.8595 5.82256C24.2959 2.88579 23.1551 0.0976562 21.8384 0.0976562C19.9628 0.0976562 18.4423 5.75528 18.4423 9.44122C18.4423 9.64958 18.4478 9.84571 18.4573 10.0331C18.269 9.81475 18.0533 9.58664 17.8072 9.34758C15.1642 6.77963 10.048 3.92931 8.74121 5.27544C7.82391 6.2204 9.02839 8.98162 10.7416 11.4321C7.84661 10.3975 4.70883 9.94252 4.03432 11.1171C3.128 12.6955 7.00204 16.6354 10.151 18.5461C9.96172 18.5233 9.76284 18.5041 9.55118 18.4897C5.8754 18.2388 0.129858 19.3713 0.00216892 21.2434C-0.0874684 22.5576 2.61532 23.886 5.50562 24.6484C2.62806 25.7306 -0.0604007 27.412 0.18362 28.7445C0.479774 30.3617 4.99701 30.9278 8.54879 30.5965C5.89535 33.1434 3.01816 37.706 4.21889 39.0432C5.09881 40.0231 7.93441 39.0089 10.4947 37.4657C9.26594 40.2848 8.59858 43.3857 9.72408 44.1389C11.2115 45.1343 15.2907 41.6699 17.4414 38.6889C17.2223 42.3358 18.0945 47.346 19.8252 47.5437C21.1333 47.6931 22.583 45.0525 23.4759 42.1986C24.4254 45.1238 25.9818 47.8872 27.3235 47.7041C29.0681 47.4659 29.8286 42.3304 29.5032 38.6809C31.7217 41.5392 35.4553 44.5961 36.8638 43.6535C37.9893 42.9003 37.3219 39.7994 36.0932 36.9803C38.6535 38.5235 41.4891 39.5377 42.369 38.5578C43.5697 37.2207 40.6925 32.658 38.0391 30.1111C41.5909 30.4425 46.1081 29.8763 46.4043 28.2591C46.6483 26.9266 43.9598 25.2452 41.0823 24.1631ZM25.5196 34.4787C24.7766 34.5801 24.0973 34.7249 23.5807 35.0948C23.0318 34.5497 22.2302 34.3837 21.3389 34.2819C20.341 34.1679 19.4341 34.1569 18.7425 34.733C18.4894 34.0294 17.8672 33.5295 17.1424 33.0444C16.5191 32.6273 15.9147 32.2849 15.2829 32.2189C15.2335 31.4468 14.7437 30.7906 14.1442 30.123C13.7619 29.6973 13.3795 29.3167 12.9551 29.0621C13.5674 28.3163 13.4968 27.3736 13.3073 26.3391C13.1722 25.6013 12.9966 24.9289 12.6038 24.4295C13.123 23.8561 13.2523 23.0474 13.3134 22.1521C13.38 21.1744 13.3523 20.288 12.7883 19.6279C14.246 19.8134 14.9494 18.9049 15.6033 17.7662C15.9768 17.1158 16.2771 16.4892 16.2999 15.854C17.0666 15.7522 17.6876 15.2186 18.3125 14.5748C18.8464 14.0248 19.3006 13.4802 19.4711 12.8535C20.0829 13.3678 20.9176 13.4456 21.8384 13.4456C22.7355 13.4456 23.5508 13.3717 24.1579 12.8924C24.6292 13.3185 25.2877 13.5395 26.0144 13.7246C26.708 13.9013 27.3628 14.0195 27.9581 13.9006C28.1754 14.3972 28.5618 14.8483 29.0031 15.3029C29.6281 15.9467 30.2491 16.4803 31.0157 16.5821C31.0385 17.2172 31.3388 17.8438 31.7123 18.4943C32.152 19.2599 32.6138 19.922 33.3122 20.2174C33.2307 20.6621 33.2394 21.1517 33.2745 21.6667C33.3356 22.5621 33.4648 23.3708 33.9841 23.9441C33.5913 24.4435 33.4157 25.1159 33.2805 25.8538C33.0911 26.8883 33.0205 27.8309 33.6328 28.5767C33.2084 28.8313 32.826 29.2119 32.4437 29.6376C31.8442 30.3052 31.3544 30.9614 31.305 31.7335C30.6732 31.7995 30.0688 32.1419 29.4455 32.559C28.5943 33.1287 27.8852 33.7192 27.749 34.6359C27.1102 34.3259 26.3456 34.3659 25.5196 34.4787Z" fill="#97C255"/>
</svg>
