<svg width="250" height="250" viewBox="0 0 250 250" fill="none" xmlns="http://www.w3.org/2000/svg">
<g clip-path="url(#clip0_816_363)">
<path d="M159.301 102.446C159.057 102.407 158.832 102.294 158.658 102.121C158.483 101.948 158.368 101.724 158.326 101.479C158.285 101.235 158.32 100.981 158.427 100.753C158.534 100.525 158.707 100.333 158.923 100.204L159.079 99.8958C159.075 99.8676 159.07 99.8394 159.065 99.8113C158.583 96.9712 149.958 102.836 149.089 105.233C148.706 106.292 148.507 107.406 148.501 108.523C147.398 103.113 147.476 97.4963 148.727 92.0529C149.043 90.6872 149.434 89.3382 149.898 88.0121C150.28 86.9251 150.708 85.856 151.183 84.8048C153.764 79.1022 157.641 74.0573 162.494 70.0844C164.613 70.6476 166.572 70.705 167.726 66.5422C167.931 65.8017 168.63 65.2679 168.921 64.5567C168.71 64.5417 168.497 64.5157 168.289 64.487C168.225 64.4772 168.157 64.4668 168.092 64.4571L168.068 64.4532C167.84 64.417 167.629 64.3153 167.461 64.1602C167.293 64.0051 167.175 63.8034 167.12 63.5792C167.066 63.3551 167.078 63.118 167.154 62.8967C167.231 62.6754 167.369 62.4792 167.552 62.3317C167.666 62.24 167.78 62.1484 167.894 62.0568C168.068 61.9148 168.244 61.777 168.417 61.6351C168.437 61.6222 168.455 61.6082 168.473 61.5932C168.672 61.4317 168.871 61.2736 169.07 61.1121C168.89 60.612 168.596 60.1635 168.211 59.8018C166.874 58.5669 164.59 58.761 163.143 59.9449C161.693 61.1282 161.022 63.0688 161.003 64.9163C161.039 66.4989 161.343 68.0563 161.902 69.5219C161.793 69.6131 161.681 69.7003 161.572 69.7915C159.575 71.4685 157.741 73.3331 156.097 75.3588C156.993 72.9212 155.202 63.0826 154.144 60.8588C152.872 58.1876 148.941 58.4297 147.949 61.2795C147.939 61.3072 147.93 61.3348 147.92 61.3623C148.114 61.5352 148.301 61.7149 148.482 61.9015C148.708 62.1377 148.856 62.439 148.907 62.766C148.957 63.093 148.907 63.4305 148.764 63.7341C148.621 64.0377 148.39 64.2933 148.103 64.4675C147.816 64.6417 147.486 64.7263 147.155 64.7103L147.121 64.7086C143.141 68.3956 150.12 81.5626 153.098 79.5419C151.224 82.5345 149.739 85.7478 148.681 89.1011C148.064 91.0808 147.605 93.1029 147.31 95.1475L147.317 95.0742C147.797 90.5877 140.172 82.1997 137.38 82.1927C135.772 82.1886 134.275 81.8061 134.146 83.4178C134.144 83.4436 134.142 83.4693 134.14 83.495C134.515 83.7504 134.873 84.0293 135.211 84.3303C135.405 84.5032 135.592 84.6829 135.773 84.8694C135.999 85.1056 136.147 85.407 136.198 85.734C136.248 86.061 136.198 86.3984 136.055 86.702C135.911 87.0056 135.681 87.2613 135.394 87.4355C135.107 87.6097 134.777 87.6943 134.446 87.6782L134.412 87.6765C134.388 87.6751 134.367 87.6744 134.343 87.6729C131.892 92.1118 140.207 101.802 146.895 100.641L146.898 100.642C146.889 103.429 147.169 106.202 147.734 108.916L157.111 110.846C157.169 110.748 157.224 110.646 157.279 110.547C156.398 110.423 155.539 110.192 154.72 109.857C155.615 109.138 156.512 108.413 157.407 107.695C157.426 107.682 157.445 107.668 157.463 107.653C157.918 107.285 158.375 106.921 158.83 106.553L158.83 106.552C159.162 105.204 159.32 103.824 159.301 102.446L159.301 102.446ZM153.496 78.9168L153.502 78.9111L153.494 78.9236L153.496 78.9168ZM147.046 97.3851L147.008 97.1854C147.042 97.0538 147.072 96.9215 147.101 96.7852C147.109 96.7478 147.111 96.7092 147.12 96.6718C147.096 96.9121 147.069 97.1517 147.048 97.3927L147.046 97.3851Z" fill="#F1F2F2"/>
<path d="M137.362 108.743L137.371 109.793H138.421C175.755 109.793 206.073 140.946 206.073 179.456C206.073 217.978 175.743 249.741 138.421 249.741H13.1428C10.2132 249.741 7.39716 248.544 5.31598 246.401C3.23378 244.258 2.05875 241.344 2.05875 238.3V109.886C2.05875 71.2715 32.324 39.6471 69.7572 39.6681C106.879 39.6891 137.05 70.5246 137.362 108.743Z" stroke="white" stroke-width="2.1175"/>
<path d="M77.2016 154.179C74.4999 145.315 68.3562 137.186 59.8596 134.19C51.3625 131.193 38.9206 135.758 32.5327 142.311C20.848 154.3 20.2531 198.234 28.281 211.248C29.8778 211.161 35.3877 211.097 37.0038 211.035L39.29 203.19V210.957C51.9043 210.556 65.9445 221.237 78.1767 211.067C79.3544 201.853 79.9033 163.043 77.2016 154.179Z" fill="#2F2E41"/>
<path d="M58.7893 181.992C68.8535 181.992 77.0121 173.593 77.0121 163.232C77.0121 152.872 68.8535 144.473 58.7893 144.473C48.7251 144.473 40.5664 152.872 40.5664 163.232C40.5664 173.593 48.7251 181.992 58.7893 181.992Z" fill="#A0616A"/>
<path d="M71.3101 138.805C64.3492 134.436 55.0721 134.31 48.0011 138.489C40.9307 142.667 36.3578 150.977 36.5116 159.369C46.6976 159.851 57.2634 169.699 68.2479 159.998L70.8121 153.538L72.3239 160.003C75.6299 160.003 78.9423 159.998 82.2609 159.99C82.6301 151.605 78.2716 143.174 71.3101 138.805Z" fill="#2F2E41"/>
<path d="M75.3785 151.524C79.5604 143.291 87.0038 136.409 95.8813 135.006C98.2177 134.679 100.593 134.803 102.885 135.371C115.957 138.391 124.134 151.805 121.579 165.343C121.073 168.028 120.481 170.806 120.058 173.891C119.911 174.945 119.554 175.957 119.011 176.863C118.467 177.769 117.747 178.55 116.897 179.157C116.047 179.764 115.084 180.184 114.069 180.391C113.054 180.598 112.009 180.587 110.998 180.359L110.95 180.348L108.713 179.856C102.065 178.407 94.4586 180.045 87.2464 179.955C76.4971 179.822 68.9424 169.02 72.3697 158.531C73.1915 156.117 74.1976 153.774 75.3785 151.524Z" fill="#E6E7E8"/>
<path d="M91.9494 182.547C102.014 182.547 110.172 174.148 110.172 163.787C110.172 153.426 102.014 145.027 91.9494 145.027C81.8852 145.027 73.7266 153.426 73.7266 163.787C73.7266 174.148 81.8852 182.547 91.9494 182.547Z" fill="#A0616A"/>
<path d="M83.818 137.464C91.4198 134.432 100.572 135.997 106.814 141.397C113.055 146.796 116.128 155.809 114.535 164.04C104.427 162.66 92.3358 170.429 83.191 158.881L81.7771 152.056L79.1785 158.144C75.9246 157.541 72.6652 156.934 69.4004 156.321C70.4774 148.002 76.2158 140.497 83.818 137.464Z" fill="#E6E7E8"/>
<path d="M135.632 183.661C134.782 182.968 133.794 182.476 132.739 182.219C131.683 181.962 130.586 181.946 129.524 182.173C128.462 182.399 127.461 182.863 126.592 183.531C125.723 184.199 125.007 185.055 124.494 186.038L73.0566 204.642L78.1606 215.809L127.957 196.704C129.619 197.482 131.501 197.605 133.246 197.05C134.99 196.494 136.476 195.3 137.422 193.692C138.368 192.084 138.709 190.175 138.379 188.326C138.049 186.478 137.072 184.818 135.632 183.661Z" fill="#A0616A"/>
<path d="M102.452 249.026H31.4065C28.459 249.026 25.6322 247.82 23.5481 245.675C21.4639 243.529 20.293 240.619 20.293 237.585V210.659C20.293 207.624 21.4639 204.714 23.5481 202.569C25.6322 200.423 28.459 199.218 31.4065 199.218L40.4949 186.035H72.2185L102.452 199.218C103.911 199.218 105.356 199.514 106.705 200.089C108.053 200.664 109.278 201.506 110.31 202.569C111.342 203.631 112.161 204.892 112.719 206.28C113.278 207.669 113.565 209.156 113.565 210.659V237.585C113.565 239.087 113.278 240.575 112.719 241.963C112.161 243.351 111.342 244.612 110.31 245.675C109.278 246.737 108.053 247.58 106.705 248.155C105.356 248.73 103.911 249.026 102.452 249.026Z" fill="#3F3D56"/>
<path d="M127.885 249.026H64.3421C62.8826 249.026 61.4374 248.73 60.0891 248.155C58.7407 247.58 57.5156 246.737 56.4836 245.675C55.4516 244.612 54.633 243.351 54.0745 241.963C53.516 240.575 53.2285 239.087 53.2285 237.585V210.659C53.2285 207.624 54.3994 204.714 56.4836 202.569C58.5678 200.423 61.3946 199.218 64.342 199.218L81.074 186.035H112.798L127.885 199.218C130.832 199.218 133.659 200.423 135.743 202.569C137.828 204.714 138.998 207.624 138.998 210.659V237.585C138.998 240.619 137.828 243.529 135.743 245.675C133.659 247.82 130.832 249.026 127.885 249.026Z" fill="#2F2E41"/>
<path d="M70.7921 245.687C70.1924 246.566 69.4128 247.298 68.5084 247.833C67.6039 248.368 66.5965 248.692 65.5572 248.783C64.5178 248.874 63.4718 248.729 62.4928 248.358C61.5138 247.988 60.6256 247.401 59.8908 246.638L15.505 248.116L9.82976 248.305C3.99223 248.499 0.629725 241.546 4.29874 236.868L8.24095 231.842L22.3411 234.118L27.4395 234.348L60.244 235.828C61.5695 234.642 63.2715 233.998 65.0275 234.018C66.7836 234.037 68.4716 234.719 69.7718 235.935C71.072 237.15 71.894 238.814 72.0821 240.611C72.2701 242.409 71.8111 244.215 70.7921 245.687Z" fill="#A0616A"/>
<path d="M31.6373 188.739C31.6373 188.739 23.1765 186.529 19.1662 193.638C15.9558 199.33 5.03459 220.855 2.76749 229.69C-8.29435 257.133 17.4247 246.205 16.7051 248.793L25.3095 234.254C29.0482 232.329 21.8517 234.813 20.9037 233.433L27.4994 226.053L34.9767 222.205L37.7203 192.072L31.6373 188.739Z" fill="#3F3D56"/>
<path d="M62.6535 246.834C63.2532 247.712 64.0327 248.445 64.9372 248.98C65.8417 249.514 66.8491 249.839 67.8884 249.929C68.9277 250.02 69.9738 249.875 70.9528 249.504C71.9318 249.134 72.82 248.547 73.5548 247.785L117.941 249.262L123.616 249.451C129.453 249.646 132.816 242.693 129.147 238.015L125.205 232.988L111.105 235.265L106.006 235.495L73.2016 236.975C71.8761 235.789 70.1741 235.145 68.4181 235.164C66.662 235.184 64.974 235.866 63.6738 237.081C62.3736 238.296 61.5516 239.96 61.3635 241.758C61.1755 243.555 61.6344 245.361 62.6535 246.834Z" fill="#A0616A"/>
<path d="M101.806 189.885C101.806 189.885 110.266 187.675 114.277 194.785C117.487 200.476 128.408 222.002 130.675 230.836C141.737 258.28 116.018 247.351 116.738 249.94L108.133 235.4C104.395 233.476 111.591 235.959 112.539 234.58L105.944 227.2L98.4662 223.351L95.7227 193.219L101.806 189.885Z" fill="#2F2E41"/>
<path opacity="0.1" d="M138.424 108.125C138.107 69.3548 107.493 38.0213 69.7611 38C49.1302 38 30.6672 47.4333 18.0742 62.321C29.997 52.8555 44.635 47.7328 59.6914 47.7564C97.4229 47.7778 128.038 79.1112 128.354 117.881C166.302 117.881 197.065 149.55 197.065 188.615C197.088 205.655 191.112 222.126 180.246 234.98C188.615 228.381 195.395 219.886 200.058 210.153C204.722 200.42 207.143 189.711 207.135 178.859C207.135 139.793 176.372 108.125 138.424 108.125Z" fill="#FBFBFB"/>
<path d="M152.338 225.706C152.679 225.564 152.976 225.294 153.189 224.934C153.402 224.574 153.522 224.142 153.53 223.695C153.539 223.248 153.438 222.808 153.239 222.436C153.041 222.063 152.755 221.775 152.42 221.612L152.135 221.112C152.136 221.061 152.137 221.009 152.138 220.958C152.246 215.77 165.731 223.558 167.457 227.549C168.22 229.314 168.73 231.229 168.966 233.211C169.436 223.272 168.182 213.324 165.29 204.041C164.562 201.713 163.73 199.437 162.798 197.224C162.033 195.41 161.205 193.642 160.315 191.92C155.475 182.582 148.924 174.804 141.199 169.227C138.293 170.871 135.514 171.569 133.022 164.529C132.579 163.277 131.475 162.542 130.915 161.368C131.213 161.277 131.51 161.166 131.801 161.052C131.891 161.015 131.986 160.976 132.076 160.939L132.11 160.925C132.427 160.791 132.706 160.547 132.914 160.22C133.122 159.894 133.249 159.5 133.281 159.085C133.313 158.671 133.248 158.253 133.094 157.884C132.94 157.514 132.703 157.208 132.413 157.002C132.232 156.874 132.05 156.746 131.869 156.618C131.593 156.418 131.314 156.227 131.037 156.028C131.007 156.011 130.978 155.992 130.95 155.971C130.633 155.745 130.318 155.524 130.001 155.298C130.155 154.356 130.483 153.47 130.957 152.711C132.612 150.112 135.907 149.762 138.209 151.424C140.516 153.084 141.867 156.325 142.271 159.599C142.542 162.419 142.426 165.277 141.927 168.048C142.101 168.177 142.278 168.298 142.452 168.427C145.64 170.797 148.633 173.549 151.389 176.645C149.615 172.591 150.163 154.58 151.219 150.31C152.487 145.181 158.137 144.416 160.132 149.173C160.151 149.219 160.17 149.265 160.189 149.311C159.949 149.677 159.719 150.053 159.499 150.439C159.225 150.928 159.075 151.508 159.07 152.103C159.065 152.699 159.204 153.283 159.47 153.778C159.737 154.274 160.117 154.658 160.561 154.88C161.006 155.102 161.494 155.151 161.961 155.022L162.009 155.009C168.433 160.344 161.168 185.841 156.514 183.16C159.794 187.902 162.563 193.156 164.754 198.787C166.037 202.114 167.102 205.564 167.939 209.104L167.915 208.976C166.316 201.157 175.474 183.948 179.451 183.086C181.742 182.59 183.797 181.456 184.308 184.278C184.317 184.323 184.325 184.368 184.333 184.413C183.851 184.98 183.398 185.584 182.977 186.222C182.736 186.587 182.506 186.963 182.287 187.349C182.012 187.838 181.862 188.418 181.857 189.013C181.852 189.609 181.992 190.193 182.258 190.688C182.524 191.184 182.904 191.568 183.349 191.79C183.793 192.012 184.281 192.061 184.749 191.932L184.797 191.919C184.831 191.909 184.861 191.901 184.895 191.892C189.292 199.027 179.415 218.759 169.649 218.73L169.645 218.732C170.225 223.678 170.391 228.686 170.139 233.675L157.17 239.954C157.067 239.797 156.968 239.633 156.87 239.474C158.1 238.986 159.277 238.314 160.375 237.47C158.953 236.467 157.528 235.453 156.106 234.45C156.076 234.433 156.047 234.413 156.019 234.392C155.296 233.877 154.569 233.369 153.846 232.854L153.846 232.853C153.099 230.561 152.592 228.16 152.338 225.707L152.338 225.706ZM155.819 182.171L155.809 182.163L155.823 182.182L155.819 182.171ZM168.771 212.996L168.785 212.63C168.71 212.407 168.639 212.181 168.571 211.948C168.551 211.884 168.541 211.816 168.521 211.752C168.604 212.172 168.692 212.589 168.77 213.01L168.771 212.996Z" fill="#FAD85B"/>
</g>
<rect x="0.5" y="0.5" width="249" height="249" stroke="black"/>
<defs>
<clipPath id="clip0_816_363">
<rect width="250" height="250" fill="white"/>
</clipPath>
</defs>
</svg>
