<svg width="223" height="217" viewBox="0 0 223 217" fill="none" xmlns="http://www.w3.org/2000/svg">
<g clip-path="url(#clip0_816_363)">
<path d="M171.201 68.0423C170.983 68.0089 170.783 67.9107 170.628 67.7611C170.473 67.6115 170.37 67.4177 170.333 67.2059C170.296 66.9941 170.327 66.7746 170.423 66.5771C170.518 66.3796 170.672 66.2137 170.864 66.1018L171.003 65.8352C170.999 65.8108 170.995 65.7864 170.991 65.762C170.562 63.3037 162.881 68.3799 162.108 70.4547C161.766 71.3719 161.589 72.3354 161.583 73.3025C160.602 68.6201 160.671 63.7582 161.785 59.0464C162.066 57.8643 162.414 56.6966 162.828 55.5488C163.168 54.608 163.549 53.6826 163.972 52.7726C166.27 47.8366 169.722 43.4698 174.044 40.0309C175.931 40.5184 177.675 40.568 178.702 36.9648C178.885 36.3239 179.507 35.8618 179.767 35.2462C179.579 35.2332 179.39 35.2107 179.204 35.1859C179.147 35.1774 179.086 35.1684 179.029 35.16L179.007 35.1566C178.804 35.1253 178.617 35.0372 178.467 34.903C178.317 34.7688 178.212 34.5941 178.163 34.4001C178.115 34.2061 178.125 34.0009 178.194 33.8093C178.262 33.6178 178.385 33.4479 178.548 33.3203C178.649 33.2409 178.751 33.1616 178.852 33.0823C179.007 32.9594 179.164 32.8402 179.318 32.7173C179.336 32.7062 179.352 32.694 179.368 32.6811C179.545 32.5413 179.722 32.4044 179.9 32.2646C179.739 31.8317 179.478 31.4435 179.135 31.1304C177.944 30.0615 175.91 30.2295 174.622 31.2543C173.331 32.2785 172.733 33.9583 172.716 35.5574C172.748 36.9273 173.019 38.2754 173.517 39.544C173.42 39.623 173.32 39.6984 173.223 39.7774C171.445 41.2289 169.812 42.843 168.347 44.5963C169.146 42.4864 167.551 33.9702 166.608 32.0453C165.476 29.7332 161.976 29.9428 161.092 32.4096C161.084 32.4335 161.075 32.4573 161.067 32.4812C161.239 32.6309 161.406 32.7864 161.567 32.9479C161.768 33.1524 161.9 33.4132 161.945 33.6962C161.99 33.9793 161.946 34.2713 161.818 34.5341C161.69 34.7969 161.485 35.0182 161.229 35.169C160.974 35.3198 160.68 35.393 160.385 35.3791L160.355 35.3777C156.811 38.5691 163.026 49.9662 165.677 48.2172C164.008 50.8075 162.686 53.5889 161.744 56.4914C161.194 58.205 160.786 59.9553 160.524 61.7251L160.529 61.6617C160.957 57.7782 154.167 50.5177 151.681 50.5116C150.249 50.5081 148.916 50.177 148.802 51.5721C148.8 51.5944 148.798 51.6166 148.796 51.6389C149.13 51.8599 149.448 52.1014 149.75 52.3619C149.922 52.5116 150.089 52.6671 150.25 52.8286C150.451 53.033 150.583 53.2939 150.628 53.5769C150.673 53.86 150.629 54.152 150.501 54.4148C150.373 54.6776 150.168 54.8989 149.912 55.0497C149.657 55.2005 149.363 55.2737 149.068 55.2598L149.038 55.2584C149.017 55.2571 148.998 55.2565 148.976 55.2552C146.794 59.0975 154.199 67.4855 160.154 66.4801L160.157 66.4807C160.149 68.8936 160.398 71.2938 160.901 73.6425L169.251 75.3139C169.302 75.2289 169.351 75.1403 169.4 75.0547C168.616 74.9476 167.851 74.747 167.122 74.4572C167.919 73.8354 168.717 73.2078 169.514 72.5861C169.531 72.5749 169.548 72.5628 169.564 72.5499C169.969 72.2311 170.376 71.9159 170.781 71.5971L170.781 71.5967C171.077 70.4301 171.218 69.2355 171.201 68.0424L171.201 68.0423ZM166.031 47.6761L166.037 47.6711L166.03 47.682L166.031 47.6761ZM160.288 63.662L160.254 63.4891C160.284 63.3752 160.312 63.2607 160.337 63.1426C160.344 63.1103 160.346 63.0768 160.354 63.0446C160.332 63.2525 160.308 63.4599 160.29 63.6685L160.288 63.662Z" fill="#F1F2F2"/>
<path d="M149.498 71.9288L149.509 73.162H150.742C189.747 73.162 221.367 104.792 221.367 143.825C221.367 182.873 189.732 215.121 150.742 215.121H19.7049C16.6665 215.121 13.7524 213.913 11.6036 211.763C9.45488 209.612 8.24756 206.696 8.24756 203.655V73.0902C8.24756 33.9481 39.8153 1.84148 78.9218 1.86281C117.704 1.88413 149.173 33.1907 149.498 71.9288Z" stroke="white" stroke-width="2.48731"/>
<path d="M83.6956 115.416C80.7666 106.075 74.1061 97.5073 64.8947 94.3495C55.6827 91.1917 42.1941 96.0021 35.2687 102.909C22.6009 115.543 21.956 161.842 30.6593 175.558C32.3904 175.466 38.3638 175.398 40.1159 175.333L42.5944 167.066V175.251C56.27 174.828 71.4915 186.084 84.7527 175.367C86.0295 165.656 86.6246 124.757 83.6956 115.416Z" fill="#2F2E41"/>
<path d="M63.7345 144.727C74.6454 144.727 83.4904 135.876 83.4904 124.957C83.4904 114.039 74.6454 105.188 63.7345 105.188C52.8236 105.188 43.9785 114.039 43.9785 124.957C43.9785 135.876 52.8236 144.727 63.7345 144.727Z" fill="#A0616A"/>
<path d="M77.3084 99.2107C69.7618 94.6068 59.7042 94.4741 52.0384 98.8774C44.3731 103.281 39.4155 112.039 39.5822 120.882C50.6252 121.39 62.0799 131.769 73.9885 121.545L76.7685 114.737L78.4074 121.55C81.9916 121.55 85.5826 121.545 89.1805 121.536C89.5807 112.7 84.8555 103.815 77.3084 99.2107Z" fill="#2F2E41"/>
<path d="M81.7194 112.618C86.2531 103.942 94.3228 96.689 103.947 95.2113C106.48 94.8668 109.055 94.9969 111.54 95.5951C125.712 98.7777 134.577 112.914 131.807 127.181C131.258 130.011 130.616 132.939 130.158 136.19C129.998 137.301 129.612 138.367 129.022 139.322C128.433 140.277 127.653 141.1 126.731 141.74C125.809 142.379 124.766 142.822 123.665 143.04C122.565 143.258 121.432 143.246 120.336 143.006L120.283 142.995L117.858 142.476C110.651 140.949 102.405 142.675 94.5857 142.58C82.9322 142.44 74.7419 131.056 78.4575 120.002C79.3484 117.459 80.4391 114.989 81.7194 112.618Z" fill="#E6E7E8"/>
<path d="M99.6837 145.309C110.595 145.309 119.44 136.458 119.44 125.539C119.44 114.621 110.595 105.77 99.6837 105.77C88.7728 105.77 79.9277 114.621 79.9277 125.539C79.9277 136.458 88.7728 145.309 99.6837 145.309Z" fill="#A0616A"/>
<path d="M90.8708 97.8005C99.1121 94.6047 109.035 96.254 115.801 101.945C122.568 107.635 125.899 117.133 124.172 125.807C113.214 124.353 100.105 132.54 90.1911 120.371L88.6582 113.177L85.841 119.593C82.3133 118.959 78.7797 118.319 75.2402 117.673C76.4079 108.906 82.629 100.996 90.8708 97.8005Z" fill="#E6E7E8"/>
<path d="M147.045 146.484C146.123 145.754 145.052 145.235 143.908 144.964C142.764 144.693 141.574 144.677 140.423 144.916C139.272 145.154 138.187 145.643 137.245 146.347C136.302 147.051 135.526 147.953 134.97 148.989L79.2051 168.595L84.7384 180.363L138.724 160.23C140.527 161.049 142.567 161.179 144.458 160.594C146.349 160.009 147.96 158.75 148.986 157.055C150.011 155.361 150.38 153.349 150.023 151.401C149.665 149.452 148.606 147.703 147.045 146.484Z" fill="#A0616A"/>
<path d="M87.4585 159.411L79.2204 162.978L74.8174 164.886L71.9445 166.128C70.7274 166.45 69.5887 167.018 68.598 167.795C66.9027 169.121 65.716 170.991 65.2378 173.091C64.7597 175.19 65.0193 177.391 65.973 179.321C66.9267 181.251 68.5161 182.793 70.4735 183.688C72.4308 184.582 74.6364 184.774 76.7187 184.231L93.5794 182.304C94.0587 182.247 94.5202 182.088 94.9328 181.838C95.3454 181.587 95.6994 181.251 95.9708 180.851C96.5275 180.037 101.732 177.582 101.481 176.63L103.708 175.608L106.941 174.595L119.076 169.008L117.241 162.217L118.939 153.881C118.685 152.94 91.1489 159.888 90.2686 159.473C89.8326 159.26 89.3555 159.144 88.8703 159.133C88.3851 159.122 87.9034 159.217 87.4585 159.411Z" fill="#3F3D56"/>
<path d="M111.073 215.369H34.0505C30.855 215.369 27.7904 214.098 25.5309 211.837C23.2714 209.576 22.002 206.509 22.002 203.312V174.936C22.002 171.738 23.2714 168.671 25.5309 166.41C27.7904 164.149 30.855 162.879 34.0505 162.879L43.9034 148.986H78.296L111.073 162.879C112.655 162.879 114.222 163.191 115.683 163.797C117.145 164.403 118.473 165.291 119.592 166.41C120.711 167.53 121.599 168.859 122.204 170.322C122.81 171.785 123.121 173.352 123.121 174.936V203.312C123.121 204.895 122.81 206.463 122.204 207.926C121.599 209.388 120.711 210.718 119.592 211.837C118.473 212.957 117.145 213.845 115.683 214.451C114.222 215.057 112.655 215.369 111.073 215.369Z" fill="#3F3D56"/>
<path d="M138.644 215.369H69.7556C68.1733 215.369 66.6066 215.057 65.1448 214.451C63.683 213.845 62.3548 212.957 61.236 211.837C60.1172 210.718 59.2297 209.388 58.6242 207.926C58.0187 206.463 57.707 204.895 57.707 203.312V174.936C57.707 171.738 58.9764 168.671 61.236 166.41C63.4955 164.149 66.5601 162.879 69.7555 162.879L87.8951 148.986H122.288L138.644 162.879C141.84 162.879 144.904 164.149 147.164 166.41C149.423 168.671 150.693 171.738 150.693 174.936V203.312C150.693 206.509 149.423 209.576 147.164 211.837C144.904 214.098 141.84 215.369 138.644 215.369Z" fill="#2F2E41"/>
<path d="M76.7473 211.851C76.0971 212.777 75.252 213.549 74.2714 214.112C73.2909 214.676 72.1987 215.017 71.072 215.113C69.9452 215.209 68.8112 215.056 67.7498 214.665C66.6884 214.275 65.7255 213.656 64.9289 212.853L16.8088 214.41L10.6562 214.609C4.32752 214.814 0.682124 207.487 4.65981 202.557L8.93369 197.26L24.2201 199.659L29.7474 199.901L65.3118 201.461C66.7488 200.211 68.594 199.532 70.4978 199.553C72.4015 199.574 74.2316 200.292 75.6412 201.573C77.0508 202.854 77.9419 204.607 78.1458 206.502C78.3497 208.396 77.8521 210.299 76.7473 211.851Z" fill="#A0616A"/>
<path d="M34.299 151.836C34.299 151.836 25.1264 149.507 20.7787 156.999C17.2981 162.997 5.45815 185.682 3.00032 194.992C-8.99216 223.914 18.8907 212.397 18.1106 215.125L27.4388 199.802C31.492 197.774 23.6901 200.392 22.6623 198.937L29.8129 191.16L37.9193 187.104L40.8937 155.349L34.299 151.836Z" fill="#3F3D56"/>
<path d="M67.9237 213.06C68.5738 213.986 69.419 214.758 70.3995 215.321C71.3801 215.885 72.4722 216.226 73.599 216.322C74.7258 216.418 75.8598 216.265 76.9212 215.874C77.9826 215.484 78.9455 214.865 79.7421 214.062L127.862 215.619L134.015 215.818C140.343 216.023 143.989 208.696 140.011 203.766L135.737 198.469L120.451 200.868L114.924 201.11L79.3592 202.67C77.9222 201.42 76.077 200.741 74.1732 200.762C72.2695 200.783 70.4394 201.501 69.0298 202.782C67.6202 204.063 66.7291 205.816 66.5252 207.711C66.3213 209.605 66.8189 211.508 67.9237 213.06Z" fill="#A0616A"/>
<path d="M110.37 153.043C110.37 153.043 119.543 150.714 123.89 158.207C127.371 164.204 139.211 186.889 141.669 196.199C153.661 225.121 125.778 213.604 126.559 216.332L117.23 201.009C113.177 198.981 120.979 201.599 122.007 200.144L114.856 192.367L106.75 188.311L103.775 156.556L110.37 153.043Z" fill="#2F2E41"/>
<path opacity="0.1" d="M150.746 71.2992C150.414 31.88 118.392 0.021683 78.9261 0C57.3468 0 38.0351 9.5913 24.8633 24.7284C37.3342 15.1044 52.6451 9.8958 68.3936 9.91987C107.86 9.94158 139.882 41.7999 140.213 81.2191C179.905 81.2191 212.082 113.418 212.082 153.138C212.106 170.464 205.856 187.211 194.49 200.28C203.244 193.571 210.335 184.933 215.213 175.037C220.091 165.141 222.623 154.253 222.615 143.218C222.615 103.499 190.438 71.2992 150.746 71.2992Z" fill="#FBFBFB"/>
<path d="M176.05 199.114C176.353 198.99 176.618 198.757 176.807 198.445C176.997 198.134 177.103 197.759 177.111 197.372C177.119 196.985 177.029 196.605 176.852 196.283C176.675 195.96 176.421 195.711 176.123 195.569L175.869 195.137C175.87 195.093 175.871 195.048 175.872 195.003C175.968 190.512 187.975 197.254 189.513 200.709C190.192 202.236 190.646 203.894 190.856 205.609C191.274 197.007 190.158 188.396 187.582 180.361C186.934 178.345 186.194 176.375 185.364 174.459C184.682 172.89 183.945 171.36 183.152 169.869C178.843 161.786 173.009 155.054 166.13 150.226C163.543 151.649 161.069 152.253 158.85 146.16C158.455 145.076 157.472 144.44 156.973 143.423C157.238 143.345 157.503 143.249 157.762 143.15C157.842 143.118 157.927 143.084 158.007 143.052L158.037 143.04C158.319 142.924 158.568 142.712 158.753 142.43C158.938 142.147 159.052 141.806 159.081 141.447C159.109 141.089 159.051 140.727 158.914 140.408C158.777 140.088 158.566 139.822 158.307 139.644C158.146 139.533 157.984 139.422 157.823 139.312C157.577 139.139 157.328 138.974 157.082 138.801C157.055 138.787 157.029 138.77 157.004 138.752C156.722 138.556 156.441 138.365 156.159 138.17C156.297 137.354 156.588 136.587 157.011 135.93C158.484 133.68 161.418 133.377 163.468 134.816C165.523 136.253 166.726 139.058 167.085 141.892C167.327 144.333 167.224 146.807 166.779 149.206C166.934 149.317 167.092 149.422 167.247 149.533C170.085 151.585 172.75 153.967 175.204 156.647C173.625 153.137 174.113 137.547 175.053 133.852C176.182 129.412 181.214 128.75 182.99 132.868C183.007 132.908 183.024 132.948 183.041 132.987C182.827 133.304 182.622 133.63 182.426 133.964C182.182 134.386 182.048 134.888 182.044 135.404C182.039 135.92 182.164 136.425 182.401 136.854C182.638 137.283 182.976 137.615 183.372 137.807C183.768 137.999 184.202 138.042 184.619 137.931L184.661 137.919C190.381 142.537 183.912 164.607 179.768 162.286C182.688 166.391 185.155 170.938 187.105 175.813C188.248 178.692 189.197 181.679 189.941 184.743L189.92 184.632C188.497 177.864 196.651 162.968 200.193 162.222C202.233 161.793 204.062 160.811 204.518 163.254C204.525 163.293 204.532 163.332 204.539 163.371C204.111 163.862 203.707 164.385 203.332 164.936C203.118 165.253 202.913 165.578 202.718 165.912C202.473 166.335 202.34 166.837 202.335 167.353C202.331 167.869 202.455 168.374 202.692 168.803C202.929 169.232 203.268 169.564 203.663 169.756C204.059 169.948 204.494 169.991 204.91 169.879L204.953 169.868C204.983 169.859 205.01 169.853 205.04 169.844C208.955 176.02 200.161 193.1 191.465 193.075L191.46 193.077C191.977 197.358 192.125 201.693 191.901 206.011L180.352 211.446C180.261 211.311 180.172 211.168 180.085 211.03C181.18 210.609 182.228 210.026 183.206 209.296C181.94 208.428 180.671 207.55 179.405 206.682C179.378 206.667 179.352 206.65 179.327 206.632C178.683 206.186 178.037 205.747 177.393 205.3L177.392 205.3C176.727 203.316 176.276 201.237 176.05 199.114L176.05 199.114ZM179.15 161.43L179.14 161.423L179.153 161.44L179.15 161.43ZM190.682 188.112L190.695 187.795C190.628 187.602 190.565 187.406 190.505 187.204C190.487 187.149 190.477 187.09 190.46 187.035C190.534 187.398 190.612 187.759 190.681 188.124L190.682 188.112Z" fill="#FAD85B"/>
</g>
<defs>
<clipPath id="clip0_816_363">
<rect width="222.614" height="216.396" fill="white"/>
</clipPath>
</defs>
</svg>
