<svg width="250" height="250" viewBox="0 0 250 250" fill="none" xmlns="http://www.w3.org/2000/svg">
<rect x="147.521" y="234.986" width="37.4687" height="13.8223" fill="#E6E6E6"/>
<path d="M201.663 248.801H56.1945C55.2926 248.8 54.4281 248.451 53.7904 247.83C53.1527 247.21 52.794 246.368 52.793 245.491V148.822C52.794 147.944 53.1527 147.103 53.7904 146.482C54.4281 145.862 55.2926 145.513 56.1945 145.512H201.663C202.564 145.513 203.429 145.862 204.067 146.482C204.704 147.103 205.063 147.944 205.064 148.822V245.491C205.063 246.368 204.704 247.21 204.067 247.83C203.429 248.451 202.564 248.8 201.663 248.801Z" fill="#F7F7F7"/>
<path d="M151.03 220.537C151.03 209.685 142.233 200.889 131.382 200.889V200.889C120.531 200.889 111.734 209.685 111.734 220.537V242.296C111.736 243.278 112.35 244.219 113.441 244.914C114.532 245.608 116.011 245.999 117.554 246H145.211C146.753 245.999 148.233 245.608 149.324 244.914C150.415 244.219 151.028 243.278 151.03 242.296V220.537Z" fill="#E6E6E6"/>
<path d="M213 131.395C213 153.788 173.593 147.048 127.183 147.048C80.773 147.048 42.952 153.136 44.9339 131.395C44.9339 90.8117 100.174 60.5313 131.311 43.7773C162.631 61.4016 213 90.8117 213 131.395Z" fill="#F6F6F6"/>
<path d="M68.2832 235.598C68.2832 227.179 72.542 219.331 79.6009 214.743L83.208 212.398L86.3247 214.653C92.7917 219.33 96.6215 226.826 96.6215 234.807V240.4C96.6215 241.774 95.5079 242.887 94.1342 242.887H70.7705C69.3968 242.887 68.2832 241.774 68.2832 240.4V235.598Z" fill="#D9D9D9"/>
<path d="M166.145 235.598C166.145 227.179 170.403 219.331 177.462 214.743L181.069 212.398L184.186 214.653C190.653 219.33 194.483 226.826 194.483 234.807V240.4C194.483 241.774 193.369 242.887 191.996 242.887H168.632C167.258 242.887 166.145 241.774 166.145 240.4V235.598Z" fill="#D9D9D9"/>
<path d="M61.4844 164.534C61.4844 161.349 62.777 158.3 65.0663 156.086V156.086V156.086C67.1355 158.313 68.2856 161.24 68.2856 164.28V165.469C68.2856 166.3 67.6112 166.975 66.7792 166.975H62.9012C62.1187 166.975 61.4844 166.341 61.4844 165.558V164.534Z" fill="#D9D9D9"/>
<path d="M61.4844 179.161C61.4844 175.976 62.777 172.927 65.0663 170.713V170.713V170.713C67.1355 172.94 68.2856 175.867 68.2856 178.907V180.095C68.2856 180.927 67.6112 181.602 66.7792 181.602H62.9012C62.1187 181.602 61.4844 180.967 61.4844 180.185V179.161Z" fill="#D9D9D9"/>
<path d="M70.5508 164.534C70.5508 161.349 71.8434 158.3 74.1327 156.086V156.086V156.086C76.2019 158.313 77.352 161.24 77.352 164.28V165.469C77.352 166.3 76.6776 166.975 75.8457 166.975H71.9676C71.1851 166.975 70.5508 166.341 70.5508 165.558V164.534Z" fill="#D9D9D9"/>
<path d="M70.5508 179.161C70.5508 175.976 71.8434 172.927 74.1327 170.713V170.713V170.713C76.2019 172.94 77.352 175.867 77.352 178.907V180.095C77.352 180.927 76.6776 181.602 75.8457 181.602H71.9676C71.1851 181.602 70.5508 180.967 70.5508 180.185V179.161Z" fill="#D9D9D9"/>
<path d="M79.6191 164.534C79.6191 161.349 80.9118 158.3 83.2011 156.086V156.086V156.086C85.2703 158.313 86.4203 161.24 86.4203 164.28V165.469C86.4203 166.3 85.7459 166.975 84.914 166.975H81.036C80.2535 166.975 79.6191 166.341 79.6191 165.558V164.534Z" fill="#D9D9D9"/>
<path d="M79.6191 179.161C79.6191 175.976 80.9118 172.927 83.2011 170.713V170.713V170.713C85.2703 172.94 86.4203 175.867 86.4203 178.907V180.095C86.4203 180.927 85.7459 181.602 84.914 181.602H81.036C80.2535 181.602 79.6191 180.967 79.6191 180.185V179.161Z" fill="#D9D9D9"/>
<path d="M88.6855 164.534C88.6855 161.349 89.9782 158.3 92.2675 156.086V156.086V156.086C94.3367 158.313 95.4867 161.24 95.4867 164.28V165.469C95.4867 166.3 94.8123 166.975 93.9804 166.975H90.1024C89.3199 166.975 88.6855 166.341 88.6855 165.558V164.534Z" fill="#D9D9D9"/>
<path d="M88.6855 179.161C88.6855 175.976 89.9782 172.927 92.2675 170.713V170.713V170.713C94.3367 172.94 95.4867 175.867 95.4867 178.907V180.095C95.4867 180.927 94.8123 181.602 93.9804 181.602H90.1024C89.3199 181.602 88.6855 180.967 88.6855 180.185V179.161Z" fill="#D9D9D9"/>
<path d="M97.7559 164.534C97.7559 161.349 99.0485 158.3 101.338 156.086V156.086V156.086C103.407 158.313 104.557 161.24 104.557 164.28V165.469C104.557 166.3 103.883 166.975 103.051 166.975H99.1727C98.3902 166.975 97.7559 166.341 97.7559 165.558V164.534Z" fill="#D9D9D9"/>
<path d="M97.7559 179.161C97.7559 175.976 99.0485 172.927 101.338 170.713V170.713V170.713C103.407 172.94 104.557 175.867 104.557 178.907V180.095C104.557 180.927 103.883 181.602 103.051 181.602H99.1727C98.3902 181.602 97.7559 180.967 97.7559 180.185V179.161Z" fill="#D9D9D9"/>
<path d="M106.822 164.534C106.822 161.349 108.115 158.3 110.404 156.086V156.086V156.086C112.473 158.313 113.623 161.24 113.623 164.28V165.469C113.623 166.3 112.949 166.975 112.117 166.975H108.239C107.457 166.975 106.822 166.341 106.822 165.558V164.534Z" fill="#D9D9D9"/>
<path d="M106.822 179.161C106.822 175.976 108.115 172.927 110.404 170.713V170.713V170.713C112.473 172.94 113.623 175.867 113.623 178.907V180.095C113.623 180.927 112.949 181.602 112.117 181.602H108.239C107.457 181.602 106.822 180.967 106.822 180.185V179.161Z" fill="#D9D9D9"/>
<path d="M115.893 164.534C115.893 161.349 117.185 158.3 119.475 156.086V156.086V156.086C121.544 158.313 122.694 161.24 122.694 164.28V165.469C122.694 166.3 122.019 166.975 121.187 166.975H117.309C116.527 166.975 115.893 166.341 115.893 165.558V164.534Z" fill="#D9D9D9"/>
<path d="M115.893 179.161C115.893 175.976 117.185 172.927 119.475 170.713V170.713V170.713C121.544 172.94 122.694 175.867 122.694 178.907V180.095C122.694 180.927 122.019 181.602 121.187 181.602H117.309C116.527 181.602 115.893 180.967 115.893 180.185V179.161Z" fill="#D9D9D9"/>
<path d="M124.959 164.534C124.959 161.349 126.252 158.3 128.541 156.086V156.086V156.086C130.61 158.313 131.76 161.24 131.76 164.28V165.469C131.76 166.3 131.086 166.975 130.254 166.975H126.376C125.593 166.975 124.959 166.341 124.959 165.558V164.534Z" fill="#D9D9D9"/>
<path d="M124.959 179.161C124.959 175.976 126.252 172.927 128.541 170.713V170.713V170.713C130.61 172.94 131.76 175.867 131.76 178.907V180.095C131.76 180.927 131.086 181.602 130.254 181.602H126.376C125.593 181.602 124.959 180.967 124.959 180.185V179.161Z" fill="#D9D9D9"/>
<path d="M134.031 164.534C134.031 161.349 135.324 158.3 137.613 156.086V156.086V156.086C139.682 158.313 140.832 161.24 140.832 164.28V165.469C140.832 166.3 140.158 166.975 139.326 166.975H135.448C134.666 166.975 134.031 166.341 134.031 165.558V164.534Z" fill="#D9D9D9"/>
<path d="M134.031 179.161C134.031 175.976 135.324 172.927 137.613 170.713V170.713V170.713C139.682 172.94 140.832 175.867 140.832 178.907V180.095C140.832 180.927 140.158 181.602 139.326 181.602H135.448C134.666 181.602 134.031 180.967 134.031 180.185V179.161Z" fill="#D9D9D9"/>
<path d="M143.098 164.534C143.098 161.349 144.39 158.3 146.68 156.086V156.086V156.086C148.749 158.313 149.899 161.24 149.899 164.28V165.469C149.899 166.3 149.224 166.975 148.393 166.975H144.515C143.732 166.975 143.098 166.341 143.098 165.558V164.534Z" fill="#D9D9D9"/>
<path d="M143.098 179.161C143.098 175.976 144.39 172.927 146.68 170.713V170.713V170.713C148.749 172.94 149.899 175.867 149.899 178.907V180.095C149.899 180.927 149.224 181.602 148.393 181.602H144.515C143.732 181.602 143.098 180.967 143.098 180.185V179.161Z" fill="#D9D9D9"/>
<path d="M152.162 164.534C152.162 161.349 153.455 158.3 155.744 156.086V156.086V156.086C157.813 158.313 158.963 161.24 158.963 164.28V165.469C158.963 166.3 158.289 166.975 157.457 166.975H153.579C152.796 166.975 152.162 166.341 152.162 165.558V164.534Z" fill="#D9D9D9"/>
<path d="M152.162 179.161C152.162 175.976 153.455 172.927 155.744 170.713V170.713V170.713C157.813 172.94 158.963 175.867 158.963 178.907V180.095C158.963 180.927 158.289 181.602 157.457 181.602H153.579C152.796 181.602 152.162 180.967 152.162 180.185V179.161Z" fill="#D9D9D9"/>
<path d="M161.234 164.534C161.234 161.349 162.527 158.3 164.816 156.086V156.086V156.086C166.886 158.313 168.036 161.24 168.036 164.28V165.469C168.036 166.3 167.361 166.975 166.529 166.975H162.651C161.869 166.975 161.234 166.341 161.234 165.558V164.534Z" fill="#D9D9D9"/>
<path d="M161.234 179.161C161.234 175.976 162.527 172.927 164.816 170.713V170.713V170.713C166.886 172.94 168.036 175.867 168.036 178.907V180.095C168.036 180.927 167.361 181.602 166.529 181.602H162.651C161.869 181.602 161.234 180.967 161.234 180.185V179.161Z" fill="#D9D9D9"/>
<path d="M170.299 164.534C170.299 161.349 171.591 158.3 173.881 156.086V156.086V156.086C175.95 158.313 177.1 161.24 177.1 164.28V165.469C177.1 166.3 176.426 166.975 175.594 166.975H171.716C170.933 166.975 170.299 166.341 170.299 165.558V164.534Z" fill="#D9D9D9"/>
<path d="M170.299 179.161C170.299 175.976 171.591 172.927 173.881 170.713V170.713V170.713C175.95 172.94 177.1 175.867 177.1 178.907V180.095C177.1 180.927 176.426 181.602 175.594 181.602H171.716C170.933 181.602 170.299 180.967 170.299 180.185V179.161Z" fill="#D9D9D9"/>
<path d="M179.371 164.534C179.371 161.349 180.664 158.3 182.953 156.086V156.086V156.086C185.022 158.313 186.172 161.24 186.172 164.28V165.469C186.172 166.3 185.498 166.975 184.666 166.975H180.788C180.005 166.975 179.371 166.341 179.371 165.558V164.534Z" fill="#D9D9D9"/>
<path d="M179.371 179.161C179.371 175.976 180.664 172.927 182.953 170.713V170.713V170.713C185.022 172.94 186.172 175.867 186.172 178.907V180.095C186.172 180.927 185.498 181.602 184.666 181.602H180.788C180.005 181.602 179.371 180.967 179.371 180.185V179.161Z" fill="#D9D9D9"/>
<path d="M188.438 164.534C188.438 161.349 189.73 158.3 192.019 156.086V156.086V156.086C194.089 158.313 195.239 161.24 195.239 164.28V165.469C195.239 166.3 194.564 166.975 193.732 166.975H189.854C189.072 166.975 188.438 166.341 188.438 165.558V164.534Z" fill="#D9D9D9"/>
<path d="M188.438 179.161C188.438 175.976 189.73 172.927 192.019 170.713V170.713V170.713C194.089 172.94 195.239 175.867 195.239 178.907V180.095C195.239 180.927 194.564 181.602 193.732 181.602H189.854C189.072 181.602 188.438 180.967 188.438 180.185V179.161Z" fill="#D9D9D9"/>
<path opacity="0.2" d="M206.564 134.936H51.2953C49.5884 134.936 47.9514 134.215 46.7444 132.93C45.5375 131.646 44.8594 129.904 44.8594 128.088V134.306C44.8594 136.122 45.5375 137.864 46.7444 139.149C47.9514 140.433 49.5884 141.155 51.2953 141.155H206.564C208.271 141.155 209.908 140.433 211.115 139.149C212.322 137.864 213 136.122 213 134.306V128.088C213 129.904 212.322 131.646 211.115 132.93C209.908 134.215 208.271 134.936 206.564 134.936Z" fill="#B3B3B3"/>
<rect x="47.125" y="143.643" width="162.851" height="7.46668" rx="3.73334" fill="#B3B3B3"/>
<ellipse cx="131.196" cy="39.8889" rx="4.72305" ry="3.8889" fill="#FAD85B"/>
<path d="M34.7526 165.753C34.7526 165.753 33.1987 153.586 47.513 150.247C50.4951 149.551 53.2986 149.076 55.8686 148.759C58.9021 148.385 60.0854 153.142 57.345 154.679C53.3762 156.904 49.643 159.708 47.6971 163.028C42.3304 172.185 34.7526 165.753 34.7526 165.753Z" fill="#D9D9D9"/>
<path d="M31.3526 134.216L30.8691 134.229L33.0456 247.536L33.529 247.524L31.3526 134.216Z" fill="white"/>
<path d="M32.0179 184.273C31.9931 184.176 29.5954 174.478 34.6295 165.227L35.0399 165.52C30.1192 174.563 32.4578 184.023 32.482 184.117L32.0179 184.273Z" fill="white"/>
<path d="M32.8638 219.455L32.3997 219.299C32.4238 219.205 34.7579 209.736 29.8418 200.701L30.2522 200.408C35.2863 209.659 32.8886 219.358 32.8638 219.455Z" fill="white"/>
<path d="M30.1313 200.936C30.1313 200.936 31.6851 188.77 17.3709 185.431C14.3887 184.735 11.5852 184.26 9.0153 183.943C5.98178 183.569 4.79849 188.326 7.53889 189.862C11.5076 192.088 15.2409 194.891 17.1868 198.212C22.5534 207.368 30.1313 200.936 30.1313 200.936Z" fill="#D9D9D9"/>
<path d="M50.0535 118.477C52.9348 117.607 55.6291 116.09 55.5398 114.59C55.4336 112.808 51.4335 111.614 47.9825 111.432C50.5854 109.099 52.9771 105.874 52.2457 104.416C51.5733 103.075 48.4453 103.594 45.5594 104.775C47.2672 101.978 48.4679 98.8262 47.5535 97.7475C46.4144 96.4038 42.3716 98.723 39.6126 101.287C40.1497 97.2928 39.8782 92.2516 38.3146 91.7955C37.0065 91.4139 35.1525 94.3464 33.8814 97.5409C33.3196 94.1886 32.1824 91.0059 30.8698 91.0059C29 91.0059 27.4842 97.4641 27.4842 101.672C27.4842 101.91 27.4898 102.133 27.4992 102.347C27.3116 102.098 27.0965 101.838 26.8512 101.565C24.2164 98.6335 19.1162 95.3798 17.8135 96.9164C16.8991 97.9951 18.0998 101.147 19.8077 103.944C16.9217 102.763 13.7937 102.244 13.1213 103.585C12.2178 105.386 16.0798 109.884 19.2189 112.065C19.0302 112.039 18.8319 112.017 18.621 112.001C14.9567 111.714 9.22906 113.007 9.10177 115.144C9.01241 116.644 11.7068 118.161 14.588 119.031C11.7195 120.266 9.0394 122.186 9.28266 123.707C9.57788 125.553 14.081 126.199 17.6217 125.821C14.9765 128.728 12.1083 133.937 13.3053 135.463C14.1825 136.582 17.0092 135.424 19.5615 133.662C18.3366 136.88 17.6713 140.42 18.7933 141.28C20.276 142.416 24.3425 138.461 26.4865 135.059C26.2681 139.222 27.1376 144.941 28.8628 145.166C30.1669 145.337 31.612 142.323 32.5022 139.065C33.4487 142.404 35.0003 145.559 36.3377 145.349C38.0768 145.078 38.835 139.215 38.5106 135.049C40.7222 138.312 44.4441 141.802 45.8482 140.726C46.9702 139.866 46.3049 136.326 45.08 133.108C47.6323 134.87 50.4591 136.027 51.3362 134.909C52.5332 133.382 49.665 128.174 47.0199 125.267C50.5605 125.645 55.0637 124.999 55.3589 123.153C55.6021 121.632 52.9221 119.712 50.0535 118.477ZM34.5394 130.252C33.7988 130.368 33.1216 130.534 32.6066 130.956C32.0595 130.334 31.2604 130.144 30.3719 130.028C29.377 129.898 28.473 129.885 27.7835 130.543C27.5313 129.74 26.911 129.169 26.1884 128.615C25.5671 128.139 24.9646 127.748 24.3347 127.673C24.2855 126.791 23.7972 126.042 23.1996 125.28C22.8185 124.794 22.4373 124.36 22.0142 124.069C22.6246 123.218 22.5542 122.142 22.3654 120.961C22.2307 120.119 22.0556 119.351 21.664 118.781C22.1816 118.127 22.3105 117.203 22.3714 116.181C22.4378 115.065 22.4102 114.053 21.8479 113.3C23.3011 113.512 24.0023 112.475 24.6541 111.175C25.0265 110.432 25.3259 109.717 25.3486 108.992C26.1128 108.876 26.7319 108.267 27.3549 107.532C27.8871 106.904 28.3399 106.282 28.5099 105.567C29.1197 106.154 29.9518 106.243 30.8698 106.243C31.7641 106.243 32.5768 106.158 33.182 105.611C33.6519 106.098 34.3083 106.35 35.0327 106.561C35.7242 106.763 36.3769 106.898 36.9704 106.762C37.187 107.329 37.5722 107.844 38.0121 108.363C38.6351 109.098 39.2542 109.707 40.0184 109.823C40.0412 110.548 40.3405 111.263 40.7129 112.006C41.1512 112.88 41.6115 113.636 42.3078 113.973C42.2265 114.481 42.2352 115.039 42.2702 115.627C42.3311 116.649 42.4599 117.573 42.9775 118.227C42.5859 118.797 42.4109 119.565 42.2762 120.407C42.0873 121.588 42.0169 122.664 42.6273 123.515C42.2043 123.806 41.823 124.24 41.442 124.726C40.8443 125.488 40.356 126.237 40.3068 127.119C39.677 127.194 39.0744 127.585 38.4531 128.061C37.6045 128.711 36.8977 129.385 36.7619 130.432C36.1251 130.078 35.3629 130.124 34.5394 130.252Z" fill="#FAD85B"/>
<path d="M228.368 247.317L227.089 247.317L226.48 241.143L228.368 241.143L228.368 247.317Z" fill="#BE866E"/>
<path d="M228.412 248.987L224.479 248.987V248.924C224.479 247.866 225.164 247.008 226.009 247.008L226.728 246.326L228.068 247.008H228.412L228.412 248.987Z" fill="#2F2E41"/>
<path d="M244.952 238.543L244.126 239.765L239.967 236.358L241.186 234.555L244.952 238.543Z" fill="#BE866E"/>
<path d="M245.999 239.579L243.459 243.337L243.421 243.297C242.776 242.613 242.695 241.404 243.241 240.596L243.289 239.469L244.571 238.629L244.793 238.301L245.999 239.579Z" fill="#2F2E41"/>
<path d="M234.609 201.9L227.752 202.896L225.05 208.691L224.662 210.631L224.838 211.965L224.404 212.895L224.662 214.673L223.629 228.74L226.471 244.585H229.119L228.279 229.872L230.475 217.26L232.413 229.548L241.374 239.316L243.461 235.57L236.547 228.255L235.901 225.668L236.771 223.481L237.451 209.014L234.609 201.9Z" fill="#2F2E41"/>
<path d="M231.343 207.207C231.343 207.207 235.667 208.892 236.122 206.985C236.578 205.079 236.009 202.722 235.578 202.472C235.147 202.221 235.658 200.578 236.136 199.48C236.615 198.381 236.541 197.777 236.266 197.646C235.992 197.514 231.712 184.21 231.712 184.21L230.257 183.828L229.09 182.035L226.613 182.41L225.6 184.756L223.903 185.881L223.283 193.02C223.283 193.02 223.588 196.079 224.208 199.297C224.402 200.298 224.625 201.315 224.88 202.259C225.479 204.485 226.25 206.311 227.197 206.596C229.838 207.393 231.343 207.207 231.343 207.207Z" fill="#212F7A"/>
<path d="M216.593 194.681L215.71 194.884L215.506 194.931L215.179 195.008L208.371 196.576C208.014 196.867 207.545 196.819 207.229 196.46C206.865 196.038 206.844 195.326 207.18 194.87C207.186 194.863 207.192 194.857 207.198 194.849C207.55 194.388 208.133 194.363 208.511 194.79C208.547 194.834 208.58 194.88 208.61 194.93L208.794 194.855L209.37 194.62L209.806 194.443L210.672 194.088L211.008 193.951L212.097 193.507L213.147 193.079L214.42 192.56L215.398 192.16L215.593 192.572L216.593 194.681Z" fill="#BE866E"/>
<path d="M218.203 195.026C218.013 195.053 217.887 195.059 217.843 195.047C217.478 194.936 217.882 194.638 217.075 195.07C216.419 195.419 216.364 194.791 216.27 195.059C216.113 195.501 215.893 195.052 215.713 194.885C215.633 194.81 215.562 194.792 215.508 194.931C215.489 194.978 215.473 195.045 215.459 195.135C215.417 195.405 215.311 195.298 215.181 195.008C214.967 194.528 214.687 193.549 214.528 192.953C214.48 192.785 214.445 192.646 214.422 192.56C214.405 192.496 214.396 192.46 214.396 192.46C214.396 192.46 214.447 192.276 214.696 192.116C214.869 192.003 215.141 191.903 215.561 191.885C215.819 191.874 216.021 191.942 216.177 191.968C216.268 191.983 216.344 191.984 216.405 191.948L216.407 191.947C216.475 191.909 216.527 191.827 216.566 191.671C216.636 191.389 216.93 191.423 217.221 191.515C217.495 191.604 217.768 191.742 217.849 191.712C217.966 191.67 221.049 188.259 223.018 186.072C223.918 185.072 225.29 185.151 226.113 186.25L226.95 187.367C226.95 187.367 227.488 187.812 227.585 188.646C227.625 188.997 227.588 189.419 227.397 189.908C227.229 190.335 226.943 190.816 226.488 191.343C224.557 193.585 219.609 194.835 218.203 195.026Z" fill="#212F7A"/>
<path d="M237.444 195.795L237.77 196.841L237.845 197.083L237.967 197.47L240.483 205.542C240.778 205.926 240.829 206.511 240.607 206.967C240.345 207.494 239.79 207.656 239.369 207.328C239.362 207.322 239.356 207.316 239.349 207.31C238.921 206.965 238.791 206.253 239.055 205.708C239.083 205.655 239.113 205.605 239.146 205.559L239.053 205.347L238.76 204.683L238.538 204.182L238.097 203.184L237.926 202.797L237.372 201.543L236.837 200.332L236.19 198.866L235.691 197.739L235.977 197.422L237.444 195.795Z" fill="#BE866E"/>
<path d="M237.41 193.756C237.467 193.985 237.496 194.138 237.495 194.194C237.477 194.664 237.167 194.224 237.658 195.134C238.055 195.874 237.573 196.06 237.801 196.126C238.178 196.235 237.867 196.591 237.77 196.844C237.726 196.956 237.726 197.046 237.845 197.086C237.885 197.101 237.941 197.108 238.014 197.108C238.234 197.109 238.17 197.259 237.967 197.474C237.631 197.828 236.915 198.357 236.478 198.665C236.355 198.755 236.253 198.825 236.19 198.869C236.143 198.902 236.116 198.919 236.116 198.919C236.116 198.919 235.962 198.892 235.79 198.616C235.668 198.424 235.539 198.109 235.445 197.597C235.388 197.282 235.403 197.021 235.393 196.824C235.388 196.709 235.375 196.615 235.335 196.547L235.334 196.545C235.291 196.469 235.217 196.42 235.087 196.402C234.853 196.369 234.824 196.001 234.841 195.626C234.859 195.272 234.916 194.91 234.877 194.817C234.796 194.618 231.982 191.086 231.982 191.086L229.75 184.451C229.75 184.451 229.997 183.706 230.633 183.429C230.901 183.313 231.239 183.28 231.659 183.422C232.026 183.547 232.457 183.809 232.957 184.268C235.08 186.219 236.995 192.064 237.41 193.756Z" fill="#212F7A"/>
<path d="M227.054 181.627C228.699 181.627 230.033 179.958 230.033 177.9C230.033 175.841 228.699 174.172 227.054 174.172C225.41 174.172 224.076 175.841 224.076 177.9C224.076 179.958 225.41 181.627 227.054 181.627Z" fill="#BE866E"/>
<path d="M229.579 180.843C229.579 180.843 228.592 181.35 228.102 181.421C228.348 180.945 228.691 180.097 228.937 179.622C229.066 179.372 229.197 179.116 229.256 178.829C229.314 178.54 229.288 178.209 229.131 177.988C228.979 177.774 228.716 177.699 228.506 177.813C228.296 177.925 228.158 178.215 228.176 178.498C227.991 178.41 227.95 178.1 227.984 177.855C228.018 177.61 228.098 177.359 228.043 177.119C227.989 176.887 227.812 176.723 227.624 176.663C227.437 176.603 227.239 176.631 227.048 176.676C226.501 176.802 225.97 177.061 225.413 177.069C225.303 177.072 225.191 177.06 225.08 177.036C225.174 176.655 225.168 176.234 225.049 175.865C224.935 176.212 224.768 176.531 224.561 176.803C224.332 176.639 224.151 176.399 224.07 176.084C223.981 175.735 224.032 175.349 224.154 175.016C224.21 174.864 224.28 174.72 224.36 174.584C224.44 174.59 224.521 174.586 224.6 174.573C224.775 174.545 224.943 174.48 225.097 174.37C224.938 174.318 224.784 174.245 224.637 174.15C224.644 174.14 224.65 174.131 224.657 174.121C224.804 173.913 224.963 173.7 225.172 173.608C225.381 173.516 225.654 173.585 225.756 173.833C226.329 173.217 227.106 172.906 227.86 172.993C228.6 173.079 229.309 173.546 229.784 174.264C229.636 174.381 229.505 174.53 229.403 174.709C229.597 174.665 229.796 174.653 229.993 174.672C230.079 174.903 230.109 175.152 230.017 175.372C230.201 175.586 230.568 175.965 230.334 176.034C230.706 176.799 230.84 177.741 230.702 178.62C230.563 179.501 230.155 180.31 229.579 180.843Z" fill="#2F2E41"/>
<path d="M199.6 247.766L201.347 247.766L202.178 239.936L199.6 239.936L199.6 247.766Z" fill="#A0616A"/>
<path d="M199.537 249.882L204.91 249.882V249.803C204.91 248.461 203.974 247.373 202.819 247.373L201.837 246.508L200.006 247.373L199.537 247.373L199.537 249.882Z" fill="#2F2E41"/>
<path d="M184.904 246.005L186.558 246.66L189.52 239.561L187.08 238.594L184.904 246.005Z" fill="#A0616A"/>
<path d="M184.258 247.986L189.343 250.001L189.365 249.926C189.738 248.656 189.154 247.275 188.061 246.842L187.372 245.655L185.399 245.787L184.955 245.611L184.258 247.986Z" fill="#2F2E41"/>
<path d="M203.949 205.102C203.949 205.102 205.631 211.1 205.32 211.89C205.01 212.68 204.481 212.064 205.01 212.68C205.539 213.295 206.002 212.641 205.506 213.685C205.01 214.73 204.259 223.329 203.929 223.745C203.598 224.161 203.144 224.173 203.548 224.577C203.951 224.982 204.481 224.161 203.951 224.982C203.422 225.802 202.017 244.721 202.017 244.721H199.273C199.273 244.721 198.589 243.806 198.976 243.21C199.363 242.614 198.942 242.385 198.976 241.987C199.01 241.589 198.881 240.732 198.858 240.34C198.834 239.949 198.37 230.626 199.484 225.241L197.452 214.987L194.991 227.38C194.991 227.38 191.042 236.533 189.91 239.875C189.91 239.875 190.823 240.758 190.418 241.27C190.013 241.782 189.66 241.371 190.013 241.782C190.366 242.192 189.484 243.627 189.484 243.627L185.414 243.422L189.867 225.241C189.867 225.241 189.581 223.215 189.867 222.868C190.153 222.521 190.153 223.751 190.153 222.521V220.881C190.153 220.881 190.319 210.792 190.341 210.198C190.363 209.604 192.481 205.298 192.481 205.298L203.949 205.102Z" fill="#2F2E41"/>
<path d="M203.882 184.382V196.211C203.882 196.211 203.369 197.846 203.38 199.763C203.39 201.774 203.771 204.091 203.77 205.104C203.77 205.279 203.759 205.413 203.733 205.503C202.048 211.177 193.131 206.021 192.321 205.538C192.282 205.516 192.262 205.503 192.262 205.503L192.438 199.147L192.408 197.319L192.199 184.783L192.386 184.609L194.021 183.094L194.182 182.945L194.673 183.778L199.053 183.428L200.725 182.891L201.247 183.137L203.598 184.248L203.882 184.382Z" fill="#3F3D56"/>
<path d="M217.054 200.256L214.573 197.848L213.191 199.303L215.893 201.74C215.912 201.86 215.946 201.978 215.997 202.091C216.275 202.706 216.929 202.943 217.458 202.621C217.988 202.299 218.192 201.539 217.915 200.924C217.738 200.532 217.408 200.294 217.054 200.256Z" fill="#A0616A"/>
<path d="M201.666 184.143C201.09 185.077 201.466 186.591 201.804 187.671C202.237 189.059 207.499 195.107 208.843 195.429C209.886 195.679 209.663 195.654 209.937 196.432C210.212 197.211 209.393 196.986 210.4 197.563C211.407 198.141 211.586 197.687 211.634 198.303C211.682 198.919 211.378 199.137 212.096 199.434C212.814 199.731 212.94 199.967 213.166 200.129C213.393 200.292 214.636 201.838 214.636 201.838C214.636 201.838 215.943 200.085 216.979 199.665C216.979 199.665 215.292 198.601 215.307 198.102C215.321 197.604 215.562 197.268 215.071 197.133C214.579 196.999 214.136 197.48 214.454 196.764C214.772 196.047 211.919 193.056 211.919 193.056C210.865 190.287 208.08 187.319 204.973 184.314C204.029 183.401 202.676 183.331 201.666 184.143Z" fill="#3F3D56"/>
<path d="M191.212 207.936L191.073 204.183L189.217 203.977L189.486 207.938C189.423 208.035 189.371 208.144 189.333 208.264C189.129 208.917 189.418 209.638 189.98 209.876C190.541 210.114 191.162 209.777 191.367 209.125C191.497 208.709 191.426 208.265 191.212 207.936Z" fill="#A0616A"/>
<path d="M193.151 184.414L193.099 184.421C192.117 184.556 191.255 185.245 190.795 186.263C190.204 187.57 188.335 196.426 188.792 197.641C189.219 198.775 189.202 198.496 188.891 199.256C188.581 200.016 188.172 199.162 188.483 200.415C188.795 201.669 189.203 201.517 188.844 201.973C188.484 202.429 188.141 202.316 188.436 203.132C188.731 203.949 188.665 204.215 188.714 204.519C188.764 204.823 188.618 206.932 188.618 206.932C188.618 206.932 190.613 206.874 191.578 207.481C191.578 207.481 191.119 205.315 191.446 204.992C191.772 204.669 192.149 204.65 191.903 204.137C191.657 203.624 191.052 203.567 191.723 203.358C192.393 203.148 192.374 198.683 192.374 198.683L193.151 184.414Z" fill="#3F3D56"/>
<path d="M197.937 179.631C197.859 179.652 197.781 179.67 197.702 179.684C197.459 179.73 197.216 179.744 196.978 179.727C196.258 179.684 195.579 179.375 195.03 178.865C194.449 178.328 194.016 177.568 193.834 176.664C193.406 174.53 194.549 172.395 196.386 171.898C198.196 171.407 200.006 172.688 200.469 174.768C200.476 174.8 200.483 174.831 200.489 174.863C200.917 176.998 199.775 179.132 197.937 179.631Z" fill="#A0616A"/>
<path d="M194.781 179.166C194.306 178.734 194.26 177.91 193.855 177.391C193.177 176.523 192.858 175.589 193.213 174.56C193.527 173.65 193.461 172.532 194.137 171.947C193.805 171.807 193.727 171.517 194.02 171.511C194.218 171.508 194.955 171.947 194.6 171.4C194.245 170.853 194.917 171.069 194.872 170.845C194.828 170.621 194.543 170.497 194.418 170.674C194.818 170.129 195.694 170.245 195.979 170.882C196.378 170.186 196.802 169.707 197.414 170.149C198.014 170.582 198.007 171.119 198.652 170.99C198.956 170.929 198.985 171.596 199.192 171.86C199.4 172.125 199.703 172.33 200.005 172.263C200.308 172.197 200.54 171.759 200.37 171.46L201.084 173.351L201.371 172.941C201.828 173.287 201.678 174.19 201.218 174.53C200.758 174.871 199.88 174.084 199.631 174.647C199.237 175.535 198.314 175.087 197.681 174.459C196.912 173.698 195.984 176.012 196.354 177.104C195.97 176.666 195.26 177.029 195.061 177.611C194.862 178.192 195.007 178.847 195.155 179.448L194.781 179.166Z" fill="#2F2E41"/>
<path d="M201.288 183.136L201.168 183.312L200.848 183.785L199.662 187.855L194.062 183.093L194.223 182.944L195.075 180.838L199.456 180.488L200.766 182.89L201.288 183.136Z" fill="#E6E6E6"/>
<rect x="0.5" y="0.5" width="249" height="249" stroke="black"/>
</svg>
