<svg width="308" height="233" viewBox="0 0 308 233" fill="none" xmlns="http://www.w3.org/2000/svg">
<g clip-path="url(#clip0_816_420)">
<path d="M235.998 232.448H96.859C95.9964 232.447 95.1694 232.083 94.5595 231.438C93.9496 230.792 93.6065 229.916 93.6055 229.003V128.41C93.6065 127.496 93.9496 126.621 94.5595 125.975C95.1694 125.329 95.9964 124.966 96.859 124.965H235.998C236.861 124.966 237.688 125.329 238.298 125.975C238.908 126.621 239.251 127.496 239.252 128.41V229.003C239.251 229.916 238.908 230.792 238.298 231.438C237.688 232.083 236.861 232.447 235.998 232.448Z" fill="#F7F7F7"/>
<path d="M187.569 201.385C187.569 191.006 179.155 182.592 168.776 182.592V182.592C158.396 182.592 149.982 191.006 149.982 201.385V225.681C149.984 226.703 150.571 227.682 151.615 228.405C152.658 229.128 154.073 229.534 155.549 229.535H182.002C183.478 229.534 184.893 229.128 185.936 228.405C186.98 227.682 187.567 226.703 187.569 225.681V201.385Z" fill="#E6E6E6"/>
<path d="M246.843 110.277C246.843 133.579 209.151 126.565 164.76 126.565C120.369 126.565 84.1932 132.9 86.0888 110.277C86.0888 68.0456 138.925 36.5357 168.708 19.1016C198.665 37.4414 246.843 68.0456 246.843 110.277Z" fill="#F6F6F6"/>
<path d="M108.422 217.538C108.422 209.464 112.341 201.892 118.934 197.23L122.697 194.568L126.035 197.194C132.028 201.91 135.527 209.115 135.527 216.742V223.808C135.527 225.182 134.414 226.295 133.04 226.295H110.909C109.535 226.295 108.422 225.182 108.422 223.808V217.538Z" fill="#D9D9D9"/>
<path d="M202.027 217.538C202.027 209.464 205.947 201.892 212.539 197.23L216.303 194.568L219.64 197.194C225.634 201.91 229.133 209.115 229.133 216.742V223.808C229.133 225.182 228.019 226.295 226.645 226.295H204.515C203.141 226.295 202.027 225.182 202.027 223.808V217.538Z" fill="#D9D9D9"/>
<path d="M101.918 144.55C101.918 141.357 103.144 138.285 105.344 135.971V135.971V135.971C107.331 138.298 108.423 141.257 108.423 144.317V145.654C108.423 146.564 107.686 147.302 106.776 147.302H103.465C102.611 147.302 101.918 146.609 101.918 145.755V144.55Z" fill="#D9D9D9"/>
<path d="M101.918 159.768C101.918 156.575 103.144 153.504 105.344 151.189V151.189V151.189C107.331 153.516 108.423 156.476 108.423 159.536V160.873C108.423 161.783 107.686 162.52 106.776 162.52H103.465C102.611 162.52 101.918 161.828 101.918 160.973V159.768Z" fill="#D9D9D9"/>
<path d="M110.59 144.55C110.59 141.357 111.816 138.285 114.016 135.971V135.971V135.971C116.003 138.298 117.095 141.257 117.095 144.317V145.654C117.095 146.564 116.358 147.302 115.448 147.302H112.137C111.283 147.302 110.59 146.609 110.59 145.755V144.55Z" fill="#D9D9D9"/>
<path d="M110.59 159.768C110.59 156.575 111.816 153.504 114.016 151.189V151.189V151.189C116.003 153.516 117.095 156.476 117.095 159.536V160.873C117.095 161.783 116.358 162.52 115.448 162.52H112.137C111.283 162.52 110.59 161.828 110.59 160.973V159.768Z" fill="#D9D9D9"/>
<path d="M119.266 144.55C119.266 141.357 120.492 138.285 122.692 135.971V135.971V135.971C124.679 138.298 125.771 141.257 125.771 144.317V145.654C125.771 146.564 125.033 147.302 124.123 147.302H120.813C119.958 147.302 119.266 146.609 119.266 145.755V144.55Z" fill="#D9D9D9"/>
<path d="M119.266 159.768C119.266 156.575 120.492 153.504 122.692 151.189V151.189V151.189C124.679 153.516 125.771 156.476 125.771 159.536V160.873C125.771 161.783 125.033 162.52 124.123 162.52H120.813C119.958 162.52 119.266 161.828 119.266 160.973V159.768Z" fill="#D9D9D9"/>
<path d="M127.938 144.55C127.938 141.357 129.164 138.285 131.364 135.971V135.971V135.971C133.351 138.298 134.443 141.257 134.443 144.317V145.654C134.443 146.564 133.705 147.302 132.795 147.302H129.485C128.63 147.302 127.938 146.609 127.938 145.755V144.55Z" fill="#D9D9D9"/>
<path d="M127.938 159.768C127.938 156.575 129.164 153.504 131.364 151.189V151.189V151.189C133.351 153.516 134.443 156.476 134.443 159.536V160.873C134.443 161.783 133.705 162.52 132.795 162.52H129.485C128.63 162.52 127.938 161.828 127.938 160.973V159.768Z" fill="#D9D9D9"/>
<path d="M136.613 144.55C136.613 141.357 137.84 138.285 140.039 135.971V135.971V135.971C142.027 138.298 143.119 141.257 143.119 144.317V145.654C143.119 146.564 142.381 147.302 141.471 147.302H138.16C137.306 147.302 136.613 146.609 136.613 145.755V144.55Z" fill="#D9D9D9"/>
<path d="M136.613 159.768C136.613 156.575 137.84 153.504 140.039 151.189V151.189V151.189C142.027 153.516 143.119 156.476 143.119 159.536V160.873C143.119 161.783 142.381 162.52 141.471 162.52H138.16C137.306 162.52 136.613 161.828 136.613 160.973V159.768Z" fill="#D9D9D9"/>
<path d="M145.285 144.55C145.285 141.357 146.512 138.285 148.711 135.971V135.971V135.971C150.699 138.298 151.79 141.257 151.79 144.317V145.654C151.79 146.564 151.053 147.302 150.143 147.302H146.832C145.978 147.302 145.285 146.609 145.285 145.755V144.55Z" fill="#D9D9D9"/>
<path d="M145.285 159.768C145.285 156.575 146.512 153.504 148.711 151.189V151.189V151.189C150.699 153.516 151.79 156.476 151.79 159.536V160.873C151.79 161.783 151.053 162.52 150.143 162.52H146.832C145.978 162.52 145.285 161.828 145.285 160.973V159.768Z" fill="#D9D9D9"/>
<path d="M153.961 144.55C153.961 141.357 155.187 138.285 157.387 135.971V135.971V135.971C159.374 138.298 160.466 141.257 160.466 144.317V145.654C160.466 146.564 159.729 147.302 158.819 147.302H155.508C154.654 147.302 153.961 146.609 153.961 145.755V144.55Z" fill="#D9D9D9"/>
<path d="M153.961 159.768C153.961 156.575 155.187 153.504 157.387 151.189V151.189V151.189C159.374 153.516 160.466 156.476 160.466 159.536V160.873C160.466 161.783 159.729 162.52 158.819 162.52H155.508C154.654 162.52 153.961 161.828 153.961 160.973V159.768Z" fill="#D9D9D9"/>
<path d="M162.633 144.55C162.633 141.357 163.859 138.285 166.059 135.971V135.971V135.971C168.046 138.298 169.138 141.257 169.138 144.317V145.654C169.138 146.564 168.4 147.302 167.491 147.302H164.18C163.325 147.302 162.633 146.609 162.633 145.755V144.55Z" fill="#D9D9D9"/>
<path d="M162.633 159.768C162.633 156.575 163.859 153.504 166.059 151.189V151.189V151.189C168.046 153.516 169.138 156.476 169.138 159.536V160.873C169.138 161.783 168.4 162.52 167.491 162.52H164.18C163.325 162.52 162.633 161.828 162.633 160.973V159.768Z" fill="#D9D9D9"/>
<path d="M171.309 144.55C171.309 141.357 172.535 138.285 174.735 135.971V135.971V135.971C176.722 138.298 177.814 141.257 177.814 144.317V145.654C177.814 146.564 177.076 147.302 176.166 147.302H172.856C172.001 147.302 171.309 146.609 171.309 145.755V144.55Z" fill="#D9D9D9"/>
<path d="M171.309 159.768C171.309 156.575 172.535 153.504 174.735 151.189V151.189V151.189C176.722 153.516 177.814 156.476 177.814 159.536V160.873C177.814 161.783 177.076 162.52 176.166 162.52H172.856C172.001 162.52 171.309 161.828 171.309 160.973V159.768Z" fill="#D9D9D9"/>
<path d="M179.98 144.55C179.98 141.357 181.207 138.285 183.407 135.971V135.971V135.971C185.394 138.298 186.486 141.257 186.486 144.317V145.654C186.486 146.564 185.748 147.302 184.838 147.302H181.528C180.673 147.302 179.98 146.609 179.98 145.755V144.55Z" fill="#D9D9D9"/>
<path d="M179.98 159.768C179.98 156.575 181.207 153.504 183.407 151.189V151.189V151.189C185.394 153.516 186.486 156.476 186.486 159.536V160.873C186.486 161.783 185.748 162.52 184.838 162.52H181.528C180.673 162.52 179.98 161.828 179.98 160.973V159.768Z" fill="#D9D9D9"/>
<path d="M188.652 144.55C188.652 141.357 189.879 138.285 192.078 135.971V135.971V135.971C194.066 138.298 195.158 141.257 195.158 144.317V145.654C195.158 146.564 194.42 147.302 193.51 147.302H190.199C189.345 147.302 188.652 146.609 188.652 145.755V144.55Z" fill="#D9D9D9"/>
<path d="M188.652 159.768C188.652 156.575 189.879 153.504 192.078 151.189V151.189V151.189C194.066 153.516 195.158 156.476 195.158 159.536V160.873C195.158 161.783 194.42 162.52 193.51 162.52H190.199C189.345 162.52 188.652 161.828 188.652 160.973V159.768Z" fill="#D9D9D9"/>
<path d="M197.33 144.55C197.33 141.357 198.557 138.285 200.756 135.971V135.971V135.971C202.744 138.298 203.835 141.257 203.835 144.317V145.654C203.835 146.564 203.098 147.302 202.188 147.302H198.877C198.023 147.302 197.33 146.609 197.33 145.755V144.55Z" fill="#D9D9D9"/>
<path d="M197.33 159.768C197.33 156.575 198.557 153.504 200.756 151.189V151.189V151.189C202.744 153.516 203.835 156.476 203.835 159.536V160.873C203.835 161.783 203.098 162.52 202.188 162.52H198.877C198.023 162.52 197.33 161.828 197.33 160.973V159.768Z" fill="#D9D9D9"/>
<path d="M206 144.55C206 141.357 207.227 138.285 209.426 135.971V135.971V135.971C211.413 138.298 212.505 141.257 212.505 144.317V145.654C212.505 146.564 211.768 147.302 210.858 147.302H207.547C206.693 147.302 206 146.609 206 145.755V144.55Z" fill="#D9D9D9"/>
<path d="M206 159.768C206 156.575 207.227 153.504 209.426 151.189V151.189V151.189C211.413 153.516 212.505 156.476 212.505 159.536V160.873C212.505 161.783 211.768 162.52 210.858 162.52H207.547C206.693 162.52 206 161.828 206 160.973V159.768Z" fill="#D9D9D9"/>
<path d="M214.678 144.55C214.678 141.357 215.904 138.285 218.104 135.971V135.971V135.971C220.091 138.298 221.183 141.257 221.183 144.317V145.654C221.183 146.564 220.445 147.302 219.535 147.302H216.225C215.37 147.302 214.678 146.609 214.678 145.755V144.55Z" fill="#D9D9D9"/>
<path d="M214.678 159.768C214.678 156.575 215.904 153.504 218.104 151.189V151.189V151.189C220.091 153.516 221.183 156.476 221.183 159.536V160.873C221.183 161.783 220.445 162.52 219.535 162.52H216.225C215.37 162.52 214.678 161.828 214.678 160.973V159.768Z" fill="#D9D9D9"/>
<path d="M223.35 144.55C223.35 141.357 224.576 138.285 226.776 135.971V135.971V135.971C228.763 138.298 229.855 141.257 229.855 144.317V145.654C229.855 146.564 229.117 147.302 228.207 147.302H224.897C224.042 147.302 223.35 146.609 223.35 145.755V144.55Z" fill="#D9D9D9"/>
<path d="M223.35 159.768C223.35 156.575 224.576 153.504 226.776 151.189V151.189V151.189C228.763 153.516 229.855 156.476 229.855 159.536V160.873C229.855 161.783 229.117 162.52 228.207 162.52H224.897C224.042 162.52 223.35 161.828 223.35 160.973V159.768Z" fill="#D9D9D9"/>
<rect x="149.982" y="220.146" width="37.5862" height="12.3022" fill="#E6E6E6"/>
<path opacity="0.2" d="M240.687 113.962H92.1735C90.5409 113.962 88.9751 113.212 87.8206 111.875C86.6662 110.539 86.0176 108.726 86.0176 106.836V113.307C86.0176 115.197 86.6662 117.009 87.8206 118.346C88.9751 119.682 90.5409 120.433 92.1735 120.433H240.687C242.32 120.433 243.886 119.682 245.04 118.346C246.194 117.009 246.843 115.197 246.843 113.307V106.836C246.843 108.726 246.194 110.539 245.04 111.875C243.886 113.212 242.32 113.962 240.687 113.962Z" fill="#B3B3B3"/>
<rect x="88.1836" y="123.021" width="155.766" height="7.76984" rx="3.88492" fill="#B3B3B3"/>
<ellipse cx="168.598" cy="15.0546" rx="4.51757" ry="4.04679" fill="#FAD85B"/>
<path d="M67.1707 156.876C67.1707 156.876 65.612 146.047 79.9711 143.075C82.9626 142.456 85.7749 142.033 88.3529 141.751C91.3959 141.418 92.5829 145.652 89.8339 147.02C85.8527 149 82.1077 151.496 80.1558 154.451C74.7723 162.601 67.1707 156.876 67.1707 156.876Z" fill="#D9D9D9"/>
<path d="M63.7584 128.809L63.2734 128.82L65.4567 229.667L65.9416 229.657L63.7584 128.809Z" fill="white"/>
<path d="M64.426 173.36C64.4012 173.274 61.9959 164.642 67.0458 156.408L67.4575 156.669C62.5214 164.718 64.8673 173.137 64.8916 173.222L64.426 173.36Z" fill="white"/>
<path d="M65.2756 204.673L64.8101 204.534C64.8343 204.45 67.1757 196.022 62.2441 187.982L62.6559 187.721C67.7057 195.955 65.3005 204.587 65.2756 204.673Z" fill="white"/>
<path d="M62.535 188.19C62.535 188.19 64.0937 177.362 49.7346 174.39C46.7432 173.771 43.9308 173.347 41.3529 173.065C38.3098 172.733 37.1228 176.967 39.8718 178.334C43.853 180.315 47.598 182.81 49.55 185.765C54.9335 193.915 62.535 188.19 62.535 188.19Z" fill="#D9D9D9"/>
<path d="M82.5198 114.8C85.41 114.025 88.1128 112.675 88.0232 111.34C87.9167 109.754 83.904 108.691 80.4423 108.53C83.0534 106.453 85.4525 103.583 84.7188 102.285C84.0443 101.092 80.9065 101.554 78.0115 102.605C79.7247 100.115 80.9292 97.31 80.0119 96.3499C78.8693 95.154 74.8138 97.2181 72.0462 99.4998C72.5849 95.9452 72.3126 91.4583 70.744 91.0524C69.4318 90.7128 67.572 93.3228 66.297 96.166C65.7334 93.1823 64.5926 90.3496 63.2759 90.3496C61.4003 90.3496 59.8798 96.0977 59.8798 99.8426C59.8798 100.054 59.8853 100.254 59.8948 100.444C59.7065 100.222 59.4908 99.9903 59.2447 99.7474C56.6017 97.1384 51.4855 94.2425 50.1787 95.6102C49.2614 96.5702 50.4659 99.3756 52.1791 101.865C49.2841 100.814 46.1463 100.352 45.4718 101.545C44.5655 103.149 48.4395 107.152 51.5885 109.093C51.3992 109.07 51.2003 109.05 50.9887 109.036C47.3129 108.781 41.5674 109.931 41.4397 111.833C41.35 113.169 44.0528 114.518 46.9431 115.293C44.0656 116.392 41.3771 118.101 41.6211 119.454C41.9173 121.098 46.4345 121.673 49.9863 121.336C47.3328 123.924 44.4557 128.559 45.6564 129.918C46.5363 130.913 49.3719 129.883 51.9322 128.315C50.7034 131.179 50.0361 134.33 51.1616 135.095C52.649 136.106 56.7282 132.587 58.8789 129.558C58.6598 133.263 59.532 138.353 61.2627 138.554C62.5708 138.706 64.0205 136.023 64.9134 133.124C65.8629 136.096 67.4193 138.903 68.761 138.717C70.5056 138.475 71.2661 133.258 70.9407 129.55C73.1592 132.454 76.8928 135.56 78.3013 134.602C79.4268 133.837 78.7594 130.686 77.5307 127.822C80.091 129.39 82.9266 130.42 83.8065 129.425C85.0072 128.066 82.13 123.431 79.4766 120.843C83.0284 121.18 87.5456 120.604 87.8418 118.961C88.0858 117.608 85.3973 115.899 82.5198 114.8ZM66.9571 125.28C66.2141 125.383 65.5348 125.531 65.0182 125.906C64.4693 125.352 63.6677 125.184 62.7764 125.08C61.7785 124.965 60.8716 124.953 60.18 125.539C59.9269 124.824 59.3047 124.316 58.5799 123.823C57.9566 123.399 57.3522 123.051 56.7204 122.984C56.671 122.2 56.1812 121.533 55.5817 120.855C55.1994 120.422 54.817 120.036 54.3926 119.777C55.0049 119.019 54.9343 118.062 54.7448 117.011C54.6097 116.261 54.4341 115.578 54.0413 115.07C54.5605 114.488 54.6898 113.666 54.7509 112.757C54.8175 111.763 54.7898 110.863 54.2258 110.192C55.6835 110.381 56.3869 109.458 57.0408 108.301C57.4143 107.64 57.7146 107.003 57.7374 106.358C58.5041 106.254 59.1251 105.712 59.75 105.058C60.2839 104.499 60.7381 103.946 60.9086 103.309C61.5204 103.832 62.3551 103.911 63.2759 103.911C64.173 103.911 64.9883 103.836 65.5954 103.349C66.0667 103.782 66.7252 104.006 67.4519 104.194C68.1455 104.374 68.8003 104.494 69.3956 104.373C69.6129 104.878 69.9993 105.336 70.4406 105.798C71.0656 106.452 71.6866 106.994 72.4532 107.098C72.476 107.743 72.7763 108.38 73.1498 109.04C73.5895 109.818 74.0513 110.491 74.7497 110.791C74.6682 111.243 74.6769 111.74 74.712 112.263C74.7731 113.173 74.9023 113.995 75.4216 114.577C75.0288 115.085 74.8532 115.768 74.718 116.517C74.5286 117.569 74.458 118.526 75.0703 119.284C74.6459 119.543 74.2635 119.929 73.8812 120.362C73.2817 121.04 72.7919 121.707 72.7425 122.491C72.1107 122.558 71.5063 122.906 70.883 123.33C70.0318 123.909 69.3227 124.509 69.1865 125.44C68.5477 125.125 67.7831 125.166 66.9571 125.28Z" fill="#FAD85B"/>
<path d="M278.138 230.163L276.93 230.163L276.355 224.422L278.138 224.422L278.138 230.163Z" fill="#BE866E"/>
<path d="M278.178 231.718L274.465 231.718V231.66C274.465 230.676 275.112 229.878 275.91 229.878L276.589 229.244L277.854 229.879H278.178L278.178 231.718Z" fill="#2F2E41"/>
<path d="M293.795 222.005L293.015 223.141L289.088 219.974L290.239 218.297L293.795 222.005Z" fill="#BE866E"/>
<path d="M294.784 222.967L292.386 226.462L292.35 226.424C291.74 225.789 291.664 224.665 292.18 223.914L292.225 222.866L293.435 222.084L293.645 221.779L294.784 222.967Z" fill="#2F2E41"/>
<path d="M284.029 187.938L277.555 188.863L275.004 194.251L274.638 196.055L274.803 197.296L274.394 198.16L274.638 199.814L273.662 212.892L276.345 227.624H278.846L278.053 213.944L280.126 202.219L281.956 213.644L290.417 222.726L292.388 219.243L285.859 212.441L285.249 210.036L286.071 208.002L286.713 194.552L284.029 187.938Z" fill="#2F2E41"/>
<path d="M280.946 192.869C280.946 192.869 285.028 194.436 285.458 192.663C285.888 190.89 285.352 188.699 284.945 188.467C284.538 188.234 285.02 186.706 285.472 185.684C285.923 184.663 285.854 184.101 285.594 183.979C285.335 183.857 281.294 171.487 281.294 171.487L279.92 171.131L278.818 169.465L276.48 169.813L275.523 171.994L273.921 173.041L273.336 179.678C273.336 179.678 273.624 182.522 274.21 185.514C274.392 186.445 274.603 187.391 274.843 188.269C275.41 190.338 276.138 192.036 277.032 192.301C279.525 193.042 280.946 192.869 280.946 192.869Z" fill="#212F7A"/>
<path d="M267.019 181.225L266.186 181.414L265.993 181.457L265.684 181.529L259.256 182.987C258.919 183.257 258.477 183.213 258.178 182.878C257.835 182.487 257.814 181.824 258.132 181.401C258.137 181.394 258.143 181.388 258.148 181.381C258.481 180.952 259.031 180.929 259.388 181.326C259.422 181.367 259.454 181.41 259.482 181.456L259.655 181.386L260.199 181.168L260.611 181.003L261.428 180.674L261.745 180.546L262.774 180.133L263.765 179.735L264.967 179.252L265.891 178.881L266.075 179.263L267.019 181.225Z" fill="#BE866E"/>
<path d="M268.54 181.545C268.36 181.57 268.241 181.576 268.2 181.564C267.855 181.462 268.236 181.185 267.474 181.586C266.855 181.911 266.803 181.327 266.714 181.576C266.566 181.987 266.358 181.569 266.188 181.414C266.113 181.344 266.046 181.328 265.995 181.457C265.977 181.501 265.962 181.563 265.949 181.647C265.909 181.898 265.809 181.798 265.686 181.529C265.484 181.082 265.22 180.172 265.069 179.618C265.025 179.462 264.991 179.333 264.969 179.253C264.953 179.193 264.945 179.159 264.945 179.159C264.945 179.159 264.993 178.988 265.228 178.84C265.392 178.735 265.648 178.642 266.045 178.625C266.288 178.614 266.479 178.678 266.626 178.702C266.713 178.716 266.784 178.717 266.842 178.683L266.843 178.683C266.908 178.647 266.957 178.571 266.994 178.426C267.06 178.164 267.338 178.195 267.613 178.281C267.871 178.364 268.129 178.492 268.205 178.464C268.315 178.425 271.226 175.254 273.086 173.22C273.936 172.291 275.231 172.364 276.008 173.385L276.799 174.425C276.799 174.425 277.306 174.838 277.398 175.614C277.436 175.94 277.401 176.332 277.22 176.786C277.062 177.184 276.791 177.631 276.362 178.121C274.538 180.206 269.867 181.368 268.54 181.545Z" fill="#212F7A"/>
<path d="M286.707 182.26L287.015 183.232L287.086 183.457L287.201 183.818L289.577 191.322C289.856 191.68 289.904 192.223 289.694 192.648C289.447 193.138 288.923 193.288 288.526 192.983C288.519 192.978 288.513 192.972 288.506 192.967C288.102 192.645 287.979 191.983 288.229 191.476C288.255 191.428 288.283 191.381 288.315 191.338L288.226 191.142L287.95 190.524L287.741 190.058L287.324 189.13L287.162 188.77L286.639 187.604L286.135 186.479L285.523 185.115L285.053 184.068L285.323 183.772L286.707 182.26Z" fill="#BE866E"/>
<path d="M286.674 180.363C286.728 180.577 286.755 180.719 286.754 180.771C286.737 181.208 286.444 180.799 286.908 181.645C287.283 182.333 286.828 182.506 287.043 182.567C287.399 182.669 287.105 183 287.014 183.235C286.972 183.339 286.972 183.423 287.085 183.46C287.123 183.473 287.175 183.48 287.244 183.48C287.452 183.481 287.391 183.621 287.2 183.82C286.882 184.149 286.207 184.641 285.794 184.928C285.678 185.011 285.581 185.076 285.522 185.118C285.477 185.148 285.452 185.164 285.452 185.164C285.452 185.164 285.307 185.139 285.144 184.882C285.029 184.704 284.907 184.411 284.819 183.935C284.764 183.642 284.778 183.399 284.77 183.216C284.765 183.109 284.752 183.022 284.715 182.958L284.714 182.957C284.673 182.886 284.604 182.841 284.481 182.824C284.26 182.793 284.232 182.451 284.248 182.102C284.265 181.773 284.319 181.437 284.283 181.35C284.205 181.165 281.548 177.881 281.548 177.881L279.441 171.712C279.441 171.712 279.675 171.019 280.276 170.762C280.529 170.654 280.847 170.623 281.244 170.755C281.59 170.872 281.998 171.115 282.469 171.542C284.474 173.356 286.282 178.79 286.674 180.363Z" fill="#212F7A"/>
<path d="M276.896 169.086C278.449 169.086 279.708 167.534 279.708 165.62C279.708 163.706 278.449 162.154 276.896 162.154C275.343 162.154 274.084 163.706 274.084 165.62C274.084 167.534 275.343 169.086 276.896 169.086Z" fill="#BE866E"/>
<path d="M279.281 168.357C279.281 168.357 278.349 168.829 277.886 168.895C278.119 168.452 278.442 167.663 278.675 167.222C278.796 166.989 278.92 166.751 278.976 166.485C279.03 166.216 279.006 165.908 278.858 165.703C278.715 165.503 278.465 165.434 278.268 165.54C278.069 165.644 277.939 165.914 277.956 166.177C277.782 166.095 277.743 165.806 277.775 165.579C277.807 165.351 277.883 165.118 277.83 164.895C277.78 164.679 277.613 164.527 277.435 164.471C277.259 164.415 277.072 164.441 276.891 164.483C276.375 164.6 275.873 164.841 275.347 164.849C275.243 164.851 275.138 164.839 275.032 164.817C275.121 164.463 275.116 164.072 275.003 163.729C274.896 164.051 274.738 164.348 274.543 164.601C274.326 164.449 274.155 164.225 274.08 163.933C273.995 163.608 274.044 163.249 274.159 162.94C274.212 162.798 274.278 162.664 274.353 162.538C274.428 162.543 274.505 162.54 274.58 162.527C274.745 162.501 274.904 162.441 275.049 162.339C274.899 162.291 274.753 162.223 274.615 162.134C274.621 162.125 274.627 162.117 274.633 162.107C274.772 161.914 274.922 161.716 275.12 161.63C275.317 161.544 275.574 161.609 275.671 161.84C276.212 161.267 276.946 160.978 277.657 161.058C278.356 161.138 279.026 161.572 279.475 162.24C279.334 162.349 279.211 162.487 279.115 162.654C279.298 162.613 279.486 162.601 279.672 162.619C279.753 162.834 279.781 163.066 279.694 163.271C279.868 163.469 280.215 163.822 279.994 163.886C280.345 164.597 280.471 165.473 280.341 166.291C280.21 167.109 279.824 167.862 279.281 168.357Z" fill="#2F2E41"/>
<path d="M243.108 231.425L244.733 231.425L245.506 224.127L243.107 224.127L243.108 231.425Z" fill="#A0616A"/>
<path d="M243.049 233.397L248.047 233.396V233.323C248.046 232.072 247.176 231.058 246.101 231.058L245.188 230.252L243.485 231.058L243.049 231.058L243.049 233.397Z" fill="#2F2E41"/>
<path d="M229.438 229.782L230.976 230.393L233.731 223.776L231.461 222.875L229.438 229.782Z" fill="#A0616A"/>
<path d="M228.836 231.629L233.566 233.507L233.586 233.437C233.933 232.254 233.39 230.967 232.373 230.563L231.733 229.457L229.897 229.58L229.484 229.416L228.836 231.629Z" fill="#2F2E41"/>
<path d="M247.151 191.664C247.151 191.664 248.715 197.255 248.426 197.991C248.137 198.727 247.645 198.153 248.137 198.727C248.63 199.3 249.06 198.691 248.599 199.664C248.137 200.638 247.439 208.652 247.132 209.04C246.824 209.428 246.402 209.438 246.777 209.815C247.153 210.192 247.645 209.428 247.153 210.192C246.66 210.957 245.353 228.59 245.353 228.59H242.801C242.801 228.59 242.165 227.737 242.525 227.181C242.885 226.626 242.493 226.412 242.525 226.041C242.557 225.671 242.437 224.871 242.415 224.507C242.392 224.142 241.961 215.453 242.997 210.434L241.108 200.877L238.818 212.428C238.818 212.428 235.145 220.958 234.092 224.073C234.092 224.073 234.941 224.896 234.565 225.373C234.188 225.85 233.86 225.468 234.188 225.85C234.516 226.232 233.696 227.57 233.696 227.57L229.91 227.379L234.052 210.434C234.052 210.434 233.786 208.546 234.052 208.223C234.318 207.899 234.318 209.046 234.318 207.899V206.37C234.318 206.37 234.473 196.968 234.493 196.414C234.514 195.86 236.483 191.847 236.483 191.847L247.151 191.664Z" fill="#2F2E41"/>
<path d="M247.089 172.351V183.376C247.089 183.376 246.612 184.899 246.622 186.686C246.632 188.56 246.986 190.72 246.985 191.664C246.985 191.827 246.975 191.952 246.95 192.036C245.383 197.324 237.09 192.518 236.336 192.068C236.3 192.047 236.281 192.036 236.281 192.036L236.444 186.112L236.416 184.409L236.223 172.724L236.396 172.563L237.918 171.15L238.067 171.012L238.524 171.788L242.598 171.462L244.153 170.961L244.638 171.19L246.825 172.226L247.089 172.351Z" fill="#3F3D56"/>
<path d="M259.343 187.147L257.035 184.902L255.75 186.258L258.263 188.53C258.281 188.642 258.313 188.752 258.36 188.857C258.618 189.43 259.226 189.652 259.719 189.351C260.211 189.051 260.401 188.343 260.143 187.77C259.979 187.404 259.672 187.182 259.343 187.147Z" fill="#A0616A"/>
<path d="M245.03 172.13C244.494 173 244.844 174.411 245.158 175.418C245.561 176.712 250.455 182.349 251.706 182.649C252.676 182.882 252.468 182.858 252.724 183.583C252.979 184.309 252.217 184.1 253.154 184.638C254.091 185.176 254.257 184.753 254.301 185.327C254.346 185.901 254.064 186.105 254.732 186.382C255.4 186.658 255.516 186.878 255.727 187.029C255.938 187.181 257.094 188.621 257.094 188.621C257.094 188.621 258.309 186.988 259.273 186.597C259.273 186.597 257.704 185.605 257.718 185.14C257.731 184.676 257.956 184.362 257.498 184.237C257.041 184.112 256.629 184.56 256.925 183.892C257.221 183.224 254.567 180.436 254.567 180.436C253.587 177.856 250.996 175.09 248.106 172.289C247.228 171.438 245.969 171.373 245.03 172.13Z" fill="#3F3D56"/>
<path d="M235.303 194.304L235.174 190.806L233.447 190.613L233.697 194.306C233.639 194.396 233.591 194.498 233.556 194.61C233.365 195.218 233.635 195.89 234.157 196.112C234.679 196.333 235.257 196.02 235.447 195.412C235.569 195.024 235.502 194.61 235.303 194.304Z" fill="#A0616A"/>
<path d="M237.107 172.381L237.058 172.387C236.145 172.513 235.343 173.155 234.916 174.104C234.366 175.322 232.627 183.576 233.053 184.709C233.45 185.765 233.433 185.505 233.145 186.214C232.856 186.922 232.475 186.126 232.765 187.294C233.055 188.463 233.435 188.321 233.101 188.746C232.766 189.171 232.447 189.065 232.721 189.826C232.995 190.588 232.934 190.836 232.98 191.119C233.026 191.402 232.89 193.368 232.89 193.368C232.89 193.368 234.746 193.313 235.644 193.879C235.644 193.879 235.217 191.861 235.521 191.56C235.825 191.258 236.174 191.24 235.946 190.762C235.718 190.284 235.155 190.232 235.778 190.037C236.402 189.841 236.384 185.68 236.384 185.68L237.107 172.381Z" fill="#3F3D56"/>
<path d="M241.56 167.926C241.488 167.945 241.415 167.962 241.342 167.975C241.116 168.018 240.889 168.031 240.669 168.016C239.999 167.975 239.367 167.687 238.856 167.212C238.316 166.712 237.913 166.003 237.744 165.161C237.346 163.172 238.409 161.182 240.117 160.719C241.801 160.261 243.485 161.456 243.915 163.394C243.922 163.424 243.929 163.452 243.934 163.482C244.332 165.473 243.27 167.462 241.56 167.926Z" fill="#A0616A"/>
<path d="M238.623 167.49C238.181 167.087 238.138 166.32 237.76 165.836C237.13 165.027 236.834 164.157 237.164 163.198C237.456 162.35 237.394 161.308 238.023 160.762C237.714 160.632 237.641 160.361 237.914 160.356C238.098 160.353 238.784 160.762 238.454 160.252C238.124 159.743 238.748 159.944 238.707 159.735C238.666 159.526 238.401 159.411 238.284 159.576C238.657 159.068 239.471 159.176 239.736 159.77C240.108 159.121 240.502 158.675 241.071 159.086C241.63 159.491 241.622 159.99 242.223 159.87C242.506 159.814 242.532 160.435 242.725 160.682C242.918 160.928 243.2 161.119 243.482 161.057C243.763 160.995 243.979 160.587 243.821 160.308L244.485 162.071L244.752 161.689C245.177 162.011 245.037 162.853 244.61 163.17C244.182 163.487 243.365 162.754 243.133 163.279C242.767 164.107 241.909 163.689 241.319 163.104C240.604 162.394 239.741 164.551 240.086 165.569C239.728 165.16 239.067 165.499 238.882 166.041C238.697 166.583 238.833 167.193 238.97 167.754L238.623 167.49Z" fill="#2F2E41"/>
<path d="M244.676 171.192L244.565 171.357L244.267 171.797L243.164 175.59L237.955 171.152L238.104 171.014L238.897 169.051L242.972 168.725L244.191 170.963L244.676 171.192Z" fill="#E6E6E6"/>
</g>
<defs>
<clipPath id="clip0_816_420">
<rect width="307.183" height="232.563" fill="white"/>
</clipPath>
</defs>
</svg>
