<svg width="335" height="428" viewBox="0 0 335 428" fill="none" xmlns="http://www.w3.org/2000/svg">
<path d="M107.319 427.044C127.26 427.044 143.426 410.323 143.426 389.698C143.426 369.072 127.26 352.352 107.319 352.352C87.3769 352.352 71.2109 369.072 71.2109 389.698C71.2109 410.323 87.3769 427.044 107.319 427.044Z" fill="white"/>
<path d="M103.449 0.00281244C47.0176 0.415097 0.812059 47.8463 0.0104352 106.209C0.00300956 106.748 -0.00040861 110.537 3.88126e-05 115.492C0.000409289 122.758 2.79111 129.726 7.75831 134.864C12.7255 140.002 19.4624 142.889 26.4873 142.889C29.9697 142.889 33.4178 142.178 36.6346 140.799C39.8513 139.419 42.7737 137.397 45.2348 134.849C47.6959 132.301 49.6473 129.276 50.9777 125.947C52.3081 122.619 52.9913 119.052 52.9883 115.45C52.9856 112.079 52.9839 109.746 52.9839 109.603C52.9821 100.583 55.2505 91.7178 59.5659 83.8797C63.8813 76.0417 70.0952 69.5005 77.5962 64.8996C85.0972 60.2988 93.6269 57.7967 102.346 57.6397C111.066 57.4826 119.675 59.6759 127.326 64.0038C134.977 68.3317 141.408 74.6452 145.984 82.3231C150.561 90.001 153.126 98.779 153.428 107.793C153.73 116.808 151.758 125.748 147.706 133.735C143.654 141.722 137.661 148.481 130.318 153.346L130.327 153.357C130.327 153.357 92.6269 178.46 81.1332 212.896L81.1429 212.899C79.1219 219.953 78.0978 227.273 78.1024 234.631C78.1024 237.655 78.2744 264.119 78.6068 285.598C78.7231 293.009 81.6515 300.076 86.7604 305.274C91.8693 310.472 98.749 313.384 105.915 313.383C109.516 313.382 113.082 312.646 116.406 311.215C119.731 309.784 122.749 307.688 125.287 305.046C127.826 302.405 129.834 299.27 131.197 295.822C132.559 292.375 133.249 288.683 133.227 284.958C133.111 265.287 133.049 242.382 133.049 240.72C133.049 219.575 152.771 198.507 168.971 184.768C187.626 168.947 201.051 147.387 206.443 123.066C207.636 118.059 208.294 112.932 208.404 107.776C208.404 93.5571 205.684 79.4788 200.4 66.3522C195.116 53.2255 187.374 41.31 177.618 31.2921C167.862 21.2742 156.286 13.352 143.556 7.98196C130.827 2.6119 117.196 -0.0999039 103.449 0.00281244Z" fill="white"/>
<path d="M261.998 166.431C275.003 166.431 285.546 155.526 285.546 142.075C285.546 128.623 275.003 117.719 261.998 117.719C248.992 117.719 238.449 128.623 238.449 142.075C238.449 155.526 248.992 166.431 261.998 166.431Z" fill="#2F2E41"/>
<path d="M218.488 417.405H208.866L204.287 379.014H218.491L218.488 417.405Z" fill="#BE866E"/>
<path d="M201.99 414.564H220.549V426.651H190.305C190.305 425.064 190.607 423.492 191.194 422.026C191.781 420.559 192.642 419.227 193.727 418.104C194.812 416.982 196.101 416.092 197.518 415.484C198.936 414.877 200.456 414.564 201.99 414.564Z" fill="#2F2E41"/>
<path d="M293.055 417.405H283.432L278.854 379.014H293.057L293.055 417.405Z" fill="#BE866E"/>
<path d="M276.557 414.564H295.116V426.651H264.871C264.871 425.064 265.173 423.492 265.761 422.026C266.348 420.559 267.209 419.227 268.294 418.104C269.379 416.982 270.667 416.092 272.085 415.484C273.502 414.877 275.022 414.564 276.557 414.564Z" fill="#2F2E41"/>
<path d="M258.42 166.574C269.067 166.574 277.699 157.647 277.699 146.634C277.699 135.621 269.067 126.693 258.42 126.693C247.772 126.693 239.141 135.621 239.141 146.634C239.141 157.647 247.772 166.574 258.42 166.574Z" fill="#BE866E"/>
<path d="M269.909 230.9L278.536 210.4C280.631 205.591 281.231 200.228 280.254 195.051C279.277 189.874 276.771 185.139 273.08 181.498C272.323 180.723 271.518 179.999 270.67 179.33C266.414 175.886 261.169 174.009 255.764 173.996C252.131 174.011 248.543 174.836 245.246 176.415C244.963 176.545 244.689 176.683 244.406 176.821C243.864 177.089 243.331 177.382 242.813 177.682C239.433 179.689 236.558 182.489 234.417 185.857C232.276 189.224 230.931 193.065 230.489 197.07L226.682 230.064C225.724 232.654 191.563 326.181 203.51 397.586C203.637 398.348 203.997 399.049 204.536 399.585C205.076 400.121 205.767 400.464 206.509 400.565L218.621 402.27C219.505 402.395 220.402 402.169 221.132 401.637C221.862 401.106 222.369 400.308 222.553 399.404L242.876 299.211C243.002 298.589 243.327 298.028 243.798 297.619C244.269 297.21 244.859 296.976 245.474 296.954C246.088 296.933 246.692 297.125 247.189 297.5C247.685 297.875 248.046 298.412 248.213 299.024L276.927 404.389C277.131 405.155 277.573 405.83 278.184 406.311C278.795 406.792 279.542 407.052 280.31 407.052C280.539 407.051 280.767 407.029 280.993 406.987L295.789 404.04C296.649 403.874 297.418 403.381 297.945 402.659C298.473 401.936 298.72 401.036 298.639 400.135C296.464 375.056 284.91 249.435 269.909 230.9Z" fill="#2F2E41"/>
<path d="M183.499 163.227C183.365 164.413 183.484 165.614 183.848 166.747C184.211 167.88 184.811 168.916 185.603 169.783C186.396 170.65 187.363 171.327 188.437 171.766C189.51 172.205 190.663 172.395 191.815 172.323L202.591 199.109L210.743 186.61L199.259 163.09C199.014 161.097 198.071 159.266 196.607 157.944C195.144 156.622 193.263 155.901 191.32 155.918C189.378 155.935 187.508 156.688 186.067 158.036C184.625 159.383 183.711 161.23 183.499 163.227Z" fill="#BE866E"/>
<path d="M257.351 257.871C258.497 257.729 259.598 257.33 260.579 256.7C261.559 256.07 262.394 255.226 263.024 254.226C263.655 253.227 264.066 252.096 264.229 250.915C264.391 249.733 264.301 248.529 263.965 247.387L286.639 230.307L272.988 225.02L253.55 242.05C251.733 242.761 250.231 244.137 249.329 245.917C248.427 247.696 248.188 249.757 248.656 251.707C249.125 253.657 250.269 255.361 251.871 256.498C253.474 257.634 255.423 258.122 257.351 257.871Z" fill="#BE866E"/>
<path d="M220.386 216.964C219.517 216.963 218.65 216.875 217.797 216.7C215.734 216.294 213.8 215.37 212.165 214.008C210.529 212.647 209.243 210.89 208.419 208.893L193.321 189.852C193.001 189.45 192.769 188.981 192.639 188.478C192.509 187.975 192.485 187.449 192.567 186.936C192.65 186.422 192.838 185.933 193.118 185.5C193.398 185.068 193.765 184.702 194.193 184.428L204.934 177.551C205.331 177.297 205.772 177.127 206.233 177.05C206.693 176.974 207.164 176.992 207.617 177.105C208.071 177.217 208.499 177.421 208.875 177.706C209.252 177.99 209.571 178.349 209.813 178.761L220.454 196.893L240.833 181.316C242.455 180.436 244.33 180.19 246.114 180.621C247.897 181.053 249.472 182.133 250.549 183.666C251.626 185.199 252.134 187.082 251.98 188.97C251.826 190.858 251.02 192.626 249.71 193.95L229.371 213.14C226.981 215.591 223.751 216.965 220.386 216.964Z" fill="#2F2E41"/>
<path d="M275.449 245.604C275.422 245.604 275.394 245.604 275.366 245.603C274.871 245.591 274.384 245.471 273.936 245.251C273.488 245.032 273.09 244.717 272.768 244.328L263.218 232.805C262.892 232.413 262.651 231.954 262.51 231.458C262.37 230.962 262.332 230.44 262.4 229.928C262.469 229.416 262.641 228.925 262.907 228.487C263.172 228.049 263.524 227.674 263.94 227.388L281.823 215.057L265.622 194.913C264.68 193.288 264.334 191.367 264.648 189.5C264.963 187.633 265.916 185.945 267.333 184.745C268.751 183.545 270.539 182.913 272.371 182.964C274.202 183.015 275.955 183.745 277.308 185.022L296.997 204.923C298.547 206.388 299.73 208.219 300.445 210.26C301.16 212.301 301.385 214.491 301.101 216.642C300.817 218.793 300.033 220.841 298.816 222.609C297.599 224.378 295.985 225.814 294.113 226.796L278.02 244.457C277.69 244.819 277.291 245.107 276.849 245.305C276.407 245.502 275.931 245.604 275.449 245.604Z" fill="#2F2E41"/>
<path d="M280.559 131.2C284.815 131.2 288.265 127.631 288.265 123.23C288.265 118.828 284.815 115.26 280.559 115.26C276.303 115.26 272.854 118.828 272.854 123.23C272.854 127.631 276.303 131.2 280.559 131.2Z" fill="#2F2E41"/>
<path d="M254.147 114.473C248.734 114.473 243.543 116.697 239.716 120.655C235.888 124.614 233.738 129.983 233.738 135.581V144.512H244.358L249.437 135.581L250.961 144.512H283.19L274.556 135.581C274.556 129.983 272.406 124.614 268.578 120.655C264.751 116.697 259.56 114.473 254.147 114.473Z" fill="#2F2E41"/>
<path d="M284.527 117.77C285.379 115.014 287.144 112.657 289.51 111.113C291.876 109.57 294.692 108.938 297.464 109.33C302.375 110.179 306.257 114.262 308.571 118.822C310.884 123.382 311.952 128.485 313.507 133.377C315.063 138.269 317.268 143.187 321.195 146.354C325.121 149.52 331.146 150.379 335.002 147.122C334.561 150.517 333.1 153.683 330.824 156.171C328.549 158.66 325.575 160.346 322.322 160.991C319.069 161.635 315.703 161.206 312.7 159.764C309.696 158.321 307.207 155.938 305.584 152.952C303.549 149.208 303.024 144.82 302.421 140.57C301.817 136.321 301.033 131.924 298.604 128.441C296.175 124.957 291.628 122.682 287.769 124.269L284.527 117.77Z" fill="#2F2E41"/>
</svg>
