<svg width="250" height="250" viewBox="0 0 250 250" fill="none" xmlns="http://www.w3.org/2000/svg">
<path d="M227.761 210.289L207.467 177.67C207.467 177.67 238.2 189.28 234.713 210.289H227.761Z" fill="#E5E5E5"/>
<path d="M18.0409 211.133L17 211.111C17.4026 198.587 18.6375 186.11 20.6951 173.778C25.1964 147.375 32.6812 130.034 42.9418 122.238L43.5395 123.16C19.5708 141.371 18.0531 210.437 18.0409 211.133Z" fill="#E5E5E5"/>
<path d="M31.0527 210.864L30.0117 210.842C30.0341 209.595 30.6847 180.196 41.3803 172.07L41.978 172.992C31.7139 180.79 31.0577 210.564 31.0527 210.864Z" fill="#E5E5E5"/>
<path d="M49.4606 123.264C52.3351 123.264 54.6653 120.743 54.6653 117.632C54.6653 114.522 52.3351 112 49.4606 112C46.5861 112 44.2559 114.522 44.2559 117.632C44.2559 120.743 46.5861 123.264 49.4606 123.264Z" fill="#212F7A"/>
<path d="M46.8825 171.702C49.7569 171.702 52.0872 169.18 52.0872 166.07C52.0872 162.959 49.7569 160.438 46.8825 160.438C44.008 160.438 41.6777 162.959 41.6777 166.07C41.6777 169.18 44.008 171.702 46.8825 171.702Z" fill="#212F7A"/>
<path d="M28.623 126.642C29.6012 133.403 27.0518 139.45 27.0518 139.45C27.0518 139.45 22.9165 134.535 21.9383 127.774C20.9602 121.014 23.5096 114.967 23.5096 114.967C23.5096 114.967 27.6449 119.881 28.623 126.642Z" fill="#E5E5E5"/>
<path d="M45.6415 143.061C39.6597 145.282 33.7129 143.619 33.7129 143.619C33.7129 143.619 37.4644 138.356 43.4462 136.136C49.4279 133.916 55.3748 135.578 55.3748 135.578C55.3748 135.578 51.6232 140.841 45.6415 143.061Z" fill="#E5E5E5"/>
<path d="M45.8278 185.957C43.1205 186.877 40.2373 187.012 37.4668 186.348C39.2259 183.924 41.5952 182.103 44.289 181.103C46.9829 180.103 49.8865 179.967 52.65 180.712C50.8396 183.077 48.487 184.885 45.8278 185.957Z" fill="#E5E5E5"/>
<path d="M249.615 211.125H0.385208C0.283044 211.125 0.185071 211.081 0.11283 211.003C0.0405899 210.924 0 210.818 0 210.708C0 210.597 0.0405899 210.491 0.11283 210.413C0.185071 210.335 0.283044 210.291 0.385208 210.291H249.615C249.717 210.291 249.815 210.335 249.887 210.413C249.959 210.491 250 210.597 250 210.708C250 210.818 249.959 210.924 249.887 211.003C249.815 211.081 249.717 211.125 249.615 211.125Z" fill="#CBCBCB"/>
<path d="M204.721 94.0504C211.368 94.0504 216.757 88.2188 216.757 81.0252C216.757 73.8316 211.368 68 204.721 68C198.073 68 192.684 73.8316 192.684 81.0252C192.684 88.2188 198.073 94.0504 204.721 94.0504Z" fill="#F1F1F1"/>
<path d="M182.444 96.3796C187.107 96.3796 190.888 92.2888 190.888 87.2425C190.888 82.1963 187.107 78.1055 182.444 78.1055C177.78 78.1055 174 82.1963 174 87.2425C174 92.2888 177.78 96.3796 182.444 96.3796Z" fill="#F1F1F1"/>
<path d="M54.7821 71.2834C58.5213 71.2834 61.5526 68.0033 61.5526 63.9571C61.5526 59.9109 58.5213 56.6309 54.7821 56.6309C51.0429 56.6309 48.0117 59.9109 48.0117 63.9571C48.0117 68.0033 51.0429 71.2834 54.7821 71.2834Z" fill="#F1F1F1"/>
<path d="M65.9271 76.2103C68.5502 76.2103 70.6765 73.9093 70.6765 71.071C70.6765 68.2326 68.5502 65.9316 65.9271 65.9316C63.3041 65.9316 61.1777 68.2326 61.1777 71.071C61.1777 73.9093 63.3041 76.2103 65.9271 76.2103Z" fill="#F1F1F1"/>
<path d="M131.607 18.2006C134.465 18.2006 136.782 15.6932 136.782 12.6003C136.782 9.50733 134.465 7 131.607 7C128.749 7 126.432 9.50733 126.432 12.6003C126.432 15.6932 128.749 18.2006 131.607 18.2006Z" fill="#F1F1F1"/>
<path d="M144.322 127.738L139.287 120.258C139.287 120.258 141.707 112.5 151.09 115.337C151.09 115.337 157.061 129.799 144.322 127.738Z" fill="#E5E5E5"/>
<path d="M150.078 220.313L146.96 229.096L114.166 220.259L118.769 207.295L150.078 220.313Z" fill="#A0616A"/>
<path d="M158.742 221.344L148.686 249.666L148.355 249.529C145.653 248.405 143.474 246.167 142.298 243.305C141.121 240.444 141.043 237.194 142.081 234.27L142.081 234.269L148.223 216.971L158.742 221.344Z" fill="#2F2E41"/>
<path d="M100.248 110.33L85.957 111.778L85.248 157.791C85.4375 160.046 86.4355 162.131 88.0282 163.599C89.621 165.068 91.6818 165.803 93.7694 165.647L102.83 164.972L100.248 110.33Z" fill="#E5E5E5"/>
<path d="M150.633 108.066L140.855 107.93L140.275 162.602C142.436 162.68 144.589 162.276 146.599 161.414C148.608 160.552 150.433 159.251 151.957 157.592C153.482 155.933 154.675 153.953 155.461 151.773C156.246 149.594 156.609 147.262 156.525 144.924L150.633 108.066Z" fill="#E5E5E5"/>
<path d="M93.8944 182.026C93.6628 183.612 93.3266 185.178 92.8885 186.712C92.3951 188.213 91.6333 189.602 91.1821 191.119C89.744 195.954 91.7376 201.345 94.9218 205.077C97.6831 208.301 101.247 210.591 105.185 211.671C108.057 212.453 111.044 212.566 114.004 212.674C122.201 212.975 130.609 213.244 138.377 210.394C140.831 209.471 143.201 208.306 145.458 206.913C146.17 206.545 146.798 206.011 147.295 205.347C147.887 204.435 147.963 203.251 147.958 202.136C147.94 198.375 147.236 194.634 147.403 190.878C147.496 188.798 147.856 186.719 147.679 184.645C147.433 182.29 146.522 180.074 145.068 178.3C143.614 176.527 141.689 175.284 139.557 174.74C137.354 174.228 135.068 174.507 132.825 174.74C127.002 175.346 121.154 175.629 115.305 175.588C109.328 175.547 103.388 174.559 97.4406 174.456C95.6819 174.426 95.7174 175.012 95.1575 176.854C94.6418 178.55 94.22 180.277 93.8944 182.026Z" fill="#2F2E41"/>
<path d="M70.52 178.97C68.9128 178.533 67.2567 178.342 65.6005 178.404C63.8604 178.508 62.1606 179.012 60.6143 179.882C59.068 180.752 57.7105 181.968 56.6322 183.45C55.5539 184.931 54.7795 186.644 54.3603 188.475C53.9412 190.305 53.887 192.211 54.2014 194.066C54.6027 196.076 55.2587 198.016 56.1507 199.831C57.4554 202.696 59.0201 205.554 61.4354 207.39C62.8483 208.464 64.4835 209.134 66.0993 209.792L78.8199 214.978C80.6912 215.741 82.5629 216.504 84.4528 217.211C93.9473 220.762 103.846 222.892 113.874 223.54C116.928 223.737 120.029 223.792 123.009 223.039C123.716 222.861 124.47 222.595 124.88 221.946C125.122 221.488 125.265 220.978 125.298 220.452L126.08 214.522C126.191 213.687 126.297 212.808 126.014 212.022C125.655 211.026 124.756 210.399 123.899 209.866C115.537 204.668 105.772 201.801 98.7326 194.667C97.0755 192.988 95.6887 190.326 93.6753 189.185C91.3921 187.892 88.7032 187.153 86.3433 185.961C81.184 183.355 76.1116 180.361 70.52 178.97Z" fill="#2F2E41"/>
<path opacity="0.1" d="M86.2968 194.643C90.8401 196.183 110.022 206.856 113.31 210.582C112.869 210.754 97.9165 201.686 97.4678 201.541C93.3894 200.216 89.2883 198.883 85.4153 196.945C84.6361 196.555 80.3534 194.722 80.5474 193.658C80.7663 192.458 85.4903 194.369 86.2968 194.643Z" fill="black"/>
<path d="M110.355 94.8649L98.2495 104.811C98.2495 104.811 85.4755 105.244 85.9072 114.08C86.3388 122.916 91.4513 164.752 91.4513 164.752L92.5605 179.147L113.601 185.634C124.969 189.139 136.98 189.418 148.477 186.443L145.976 172.002C145.976 172.002 156.101 106.415 150.002 103.528C143.902 100.64 140.09 101.465 140.09 101.465L132.445 94.2461L110.355 94.8649Z" fill="#E5E5E5"/>
<path d="M146.192 78.7998C146.192 91.7119 135.159 89.7589 121.548 89.7589C107.938 89.7589 96.9043 91.7119 96.9043 78.7998C96.9043 65.8877 102.294 43 121.548 43C141.466 43 146.192 65.8877 146.192 78.7998Z" fill="#2F2E41"/>
<path d="M134.356 83.175C140.832 76.1672 140.832 64.8054 134.356 57.7977C127.88 50.7899 117.38 50.7899 110.904 57.7977C104.428 64.8054 104.428 76.1672 110.904 83.175C117.38 90.1827 127.88 90.1827 134.356 83.175Z" fill="#A0616A"/>
<path d="M102.309 70.0329H108.867L111.761 61.2656L112.34 70.0329H115.475L117.162 64.9186L117.5 70.0329H140.794C140.794 64.9949 138.944 60.1633 135.652 56.6009C132.36 53.0384 127.895 51.0371 123.239 51.0371H119.863C115.207 51.0371 110.742 53.0384 107.45 56.6009C104.158 60.1633 102.309 64.9949 102.309 70.0329Z" fill="#2F2E41"/>
<path d="M138.183 96.9297H105.018V140.244H138.183V96.9297Z" fill="#FAD85B"/>
<path d="M106.848 219.9L109.967 228.684L142.76 219.847L138.157 206.883L106.848 219.9Z" fill="#A0616A"/>
<path d="M108.704 216.557L114.846 233.855L114.846 233.856C115.884 236.779 115.806 240.03 114.63 242.891C113.453 245.753 111.275 247.991 108.573 249.115L108.242 249.252L98.1855 220.93L108.704 216.557Z" fill="#2F2E41"/>
<path d="M172.397 175.605C175.031 174.89 177.762 174.689 180.462 175.009C182.618 175.266 184.84 175.915 186.414 177.53C188.33 179.496 188.946 182.536 188.997 185.392C189.082 191.082 187.338 196.626 184.064 201.079C183.264 202.205 182.313 203.195 181.243 204.017C180.088 204.799 178.858 205.441 177.573 205.931L149.086 218.09C141.591 221.288 134.071 224.496 126.254 226.605C125.829 226.827 125.339 226.857 124.894 226.689C124.448 226.521 124.083 226.168 123.877 225.708C123.871 225.694 123.865 225.68 123.859 225.666C121.363 221.808 119.269 217.663 117.615 213.307C117.537 213.203 117.483 213.081 117.458 212.95C117.432 212.819 117.437 212.683 117.47 212.554C117.503 212.426 117.565 212.307 117.649 212.21C117.734 212.112 117.839 212.038 117.956 211.994L138.105 199.466C139.548 198.569 141.008 197.658 142.206 196.408C143.077 195.495 143.79 194.421 144.312 193.236C144.729 192.292 144.768 190.065 145.302 189.367C145.824 188.684 147.611 188.629 148.436 188.36C149.6 187.975 150.74 187.508 151.848 186.965C156.356 184.783 160.369 181.612 164.69 179.058C167.114 177.558 169.703 176.398 172.397 175.605Z" fill="#2F2E41"/>
<path opacity="0.1" d="M164.864 192.622C161.366 195.464 156.837 198.078 153.37 200.996C152.187 201.991 132.462 213.991 132.184 215.585C135.418 216.175 156.021 200.578 158.969 199.021C161.917 197.465 164.53 195.27 167.12 193.092C167.78 192.536 170.576 190.867 168.682 190.247C167.615 189.898 165.652 192.053 164.864 192.622Z" fill="black"/>
<path opacity="0.17" d="M93.3477 125.311L93.8027 121.51C93.8027 121.51 110.779 122.851 108.127 127.361C105.474 131.872 99.0319 132.282 99.0319 132.282L93.3477 125.311Z" fill="#2F2E41"/>
<path d="M106.473 107.94C107.451 108.056 108.393 108.406 109.232 108.963C110.071 109.52 110.785 110.272 111.324 111.163C111.815 111.976 112.148 112.889 112.305 113.845C112.462 114.802 112.438 115.782 112.236 116.729C112.034 117.675 111.657 118.568 111.128 119.352C110.599 120.137 109.928 120.798 109.157 121.296C108.875 121.476 108.58 121.633 108.275 121.765L97.7774 156.51C97.4732 157.196 97.0468 157.809 96.5227 158.316C95.9986 158.823 95.3871 159.212 94.7234 159.462C94.0597 159.712 93.3569 159.818 92.6553 159.773C91.9537 159.728 91.2673 159.534 90.6354 159.201C90.0035 158.868 89.4386 158.403 88.9733 157.834C88.5079 157.264 88.1513 156.6 87.9238 155.88C87.6963 155.161 87.6025 154.4 87.6478 153.641C87.6931 152.882 87.8765 152.14 88.1876 151.458L99.3511 117.099C99.047 115.962 99.0066 114.762 99.2333 113.604C99.4601 112.446 99.9472 111.367 100.651 110.461C101.355 109.555 102.255 108.852 103.27 108.412C104.286 107.972 105.386 107.81 106.473 107.94Z" fill="#A0616A"/>
<path d="M93.7423 121.068C93.7423 121.068 99.7571 132.189 108.453 126.629L100.026 161.527H92.9252L85.5801 160.043L87.6367 145.624L93.7423 121.068Z" fill="#E5E5E5"/>
<path opacity="0.17" d="M136.195 129.39L131.242 122.031C131.242 122.031 133.623 114.399 142.854 117.19C142.854 117.19 148.727 131.418 136.195 129.39Z" fill="#2F2E41"/>
<path d="M138.01 102.806C139.447 103.53 140.597 104.787 141.25 106.35C141.903 107.913 142.016 109.678 141.568 111.323L152.732 145.683C153.043 146.365 153.226 147.106 153.272 147.865C153.317 148.624 153.223 149.385 152.996 150.105C152.768 150.825 152.411 151.488 151.946 152.058C151.481 152.628 150.916 153.093 150.284 153.426C149.652 153.759 148.966 153.953 148.264 153.998C147.562 154.043 146.859 153.937 146.196 153.687C145.532 153.437 144.921 153.047 144.396 152.541C143.872 152.034 143.446 151.42 143.142 150.735L132.645 115.99C132.34 115.858 132.045 115.701 131.762 115.52C130.991 115.023 130.321 114.362 129.792 113.577C129.263 112.792 128.885 111.9 128.683 110.953C128.481 110.007 128.457 109.026 128.614 108.07C128.771 107.113 129.105 106.201 129.595 105.388C130.134 104.496 130.848 103.745 131.687 103.188C132.526 102.63 133.468 102.281 134.446 102.164C135.666 102.015 136.9 102.237 138.01 102.806Z" fill="#A0616A"/>
<path d="M131.707 121.267C131.707 121.267 139.928 126.665 143.388 116.396L154.973 149.403L151.53 155.918L151.032 155.963C148.979 156.148 146.914 155.791 145.016 154.923C143.118 154.054 141.444 152.7 140.136 150.977C137.468 147.462 135.652 143.283 134.852 138.818L131.707 121.267Z" fill="#E5E5E5"/>
<rect x="0.5" y="0.5" width="249" height="249" stroke="black"/>
</svg>
