<svg width="243" height="232" viewBox="0 0 243 232" fill="none" xmlns="http://www.w3.org/2000/svg">
<g clip-path="url(#clip0_816_382)">
<path d="M220.94 185.322L201.254 155.141C201.254 155.141 231.067 165.883 227.684 185.322H220.94Z" fill="#E5E5E5"/>
<path d="M16.8762 185.525L16.1289 185.51C16.4179 176.933 17.3045 168.389 18.7818 159.943C22.0135 141.862 27.3872 129.987 34.7537 124.648L35.1829 125.28C17.9746 137.751 16.885 185.048 16.8762 185.525Z" fill="#E5E5E5"/>
<path d="M26.218 185.34L25.4707 185.325C25.4868 184.471 25.9539 164.338 33.6327 158.773L34.0619 159.405C26.6928 164.745 26.2217 185.135 26.218 185.34Z" fill="#E5E5E5"/>
<path d="M39.434 125.349C41.4977 125.349 43.1707 123.622 43.1707 121.492C43.1707 119.362 41.4977 117.635 39.434 117.635C37.3703 117.635 35.6973 119.362 35.6973 121.492C35.6973 123.622 37.3703 125.349 39.434 125.349Z" fill="#212F7A"/>
<path d="M37.5824 158.52C39.6461 158.52 41.3191 156.794 41.3191 154.664C41.3191 152.533 39.6461 150.807 37.5824 150.807C35.5187 150.807 33.8457 152.533 33.8457 154.664C33.8457 156.794 35.5187 158.52 37.5824 158.52Z" fill="#212F7A"/>
<path d="M24.4753 127.661C25.1776 132.291 23.3473 136.432 23.3473 136.432C23.3473 136.432 20.3783 133.067 19.6761 128.437C18.9738 123.807 20.8042 119.666 20.8042 119.666C20.8042 119.666 23.7731 123.031 24.4753 127.661Z" fill="#E5E5E5"/>
<path d="M36.693 138.907C32.3984 140.427 28.1289 139.289 28.1289 139.289C28.1289 139.289 30.8223 135.685 35.1169 134.164C39.4115 132.644 43.681 133.783 43.681 133.783C43.681 133.783 40.9876 137.386 36.693 138.907Z" fill="#E5E5E5"/>
<path d="M36.827 168.281C34.8833 168.912 32.8133 169.004 30.8242 168.549C32.0872 166.889 33.7882 165.642 35.7222 164.957C37.6563 164.273 39.7409 164.18 41.725 164.69C40.4252 166.309 38.7362 167.548 36.827 168.281Z" fill="#E5E5E5"/>
<path d="M242.139 186.096H0.373671C0.274568 186.096 0.179528 186.055 0.109451 185.983C0.0393742 185.91 0 185.812 0 185.71C0 185.608 0.0393742 185.509 0.109451 185.437C0.179528 185.365 0.274568 185.324 0.373671 185.324H242.139C242.238 185.324 242.333 185.365 242.403 185.437C242.473 185.509 242.513 185.608 242.513 185.71C242.513 185.812 242.473 185.91 242.403 185.983C242.333 186.055 242.238 186.096 242.139 186.096Z" fill="#CBCBCB"/>
<path d="M153.126 203.876L150.069 212.089L117.924 203.826L122.436 191.705L153.126 203.876Z" fill="#A0616A"/>
<path d="M161.617 204.841L151.76 231.322L151.435 231.193C148.787 230.143 146.651 228.049 145.498 225.374C144.345 222.698 144.268 219.66 145.286 216.926L145.286 216.925L151.306 200.752L161.617 204.841Z" fill="#2F2E41"/>
<path d="M104.281 101.047L90.2731 102.401L89.5781 145.421C89.7638 147.53 90.742 149.479 92.3033 150.852C93.8645 152.225 95.8846 152.912 97.9309 152.767L106.812 152.135L104.281 101.047Z" fill="#E5E5E5"/>
<path d="M153.668 98.93L144.083 98.8027L143.516 149.92C145.634 149.993 147.744 149.615 149.714 148.809C151.684 148.003 153.472 146.786 154.966 145.236C156.461 143.685 157.63 141.833 158.4 139.795C159.171 137.757 159.526 135.578 159.444 133.392L153.668 98.93Z" fill="#E5E5E5"/>
<path d="M98.05 168.08C97.823 169.563 97.4935 171.027 97.0641 172.461C96.5804 173.865 95.8337 175.163 95.3914 176.582C93.9818 181.102 95.936 186.143 99.0571 189.632C101.764 192.646 105.257 194.788 109.117 195.798C111.932 196.529 114.86 196.634 117.762 196.736C125.797 197.017 134.038 197.268 141.652 194.603C144.057 193.74 146.381 192.651 148.593 191.349C149.291 191.005 149.907 190.505 150.394 189.885C150.975 189.032 151.049 187.925 151.044 186.882C151.027 183.367 150.336 179.869 150.5 176.357C150.591 174.412 150.944 172.468 150.77 170.529C150.53 168.327 149.636 166.255 148.211 164.597C146.786 162.939 144.899 161.776 142.809 161.268C140.649 160.789 138.409 161.05 136.21 161.268C130.503 161.834 124.771 162.099 119.037 162.061C113.178 162.022 107.356 161.099 101.526 161.003C99.8022 160.974 99.837 161.523 99.2882 163.245C98.7827 164.83 98.3692 166.445 98.05 168.08Z" fill="#2F2E41"/>
<path d="M75.1404 165.223C73.5649 164.815 71.9417 164.636 70.3182 164.694C68.6125 164.792 66.9464 165.263 65.4307 166.076C63.915 166.889 62.5844 168.026 61.5274 169.412C60.4704 170.797 59.7113 172.399 59.3005 174.11C58.8896 175.822 58.8365 177.604 59.1447 179.338C59.5381 181.217 60.1811 183.03 61.0554 184.728C62.3343 187.406 63.8681 190.079 66.2355 191.795C67.6204 192.8 69.2233 193.426 70.8071 194.041L83.276 198.89C85.1103 199.603 86.9449 200.316 88.7974 200.978C98.1041 204.298 107.807 206.289 117.636 206.895C120.63 207.079 123.67 207.131 126.59 206.427C127.284 206.26 128.023 206.011 128.424 205.404C128.662 204.977 128.802 204.499 128.834 204.008L129.601 198.463C129.709 197.683 129.813 196.861 129.536 196.126C129.185 195.195 128.304 194.608 127.464 194.11C119.266 189.251 109.695 186.57 102.795 179.9C101.17 178.33 99.811 175.841 97.8375 174.774C95.5995 173.565 92.9638 172.875 90.6505 171.76C85.5934 169.324 80.6213 166.524 75.1404 165.223Z" fill="#2F2E41"/>
<path opacity="0.1" d="M87.5912 172.698C91.9985 174.123 110.606 183.999 113.795 187.447C113.368 187.605 98.8629 179.215 98.4277 179.081C94.4714 177.855 90.4932 176.621 86.7361 174.828C85.9803 174.467 81.8259 172.771 82.014 171.787C82.2263 170.676 86.8088 172.445 87.5912 172.698Z" fill="black"/>
<path d="M114.188 86.5883L102.321 95.8879C102.321 95.8879 89.8003 96.2922 90.2234 104.554C90.6465 112.815 95.6578 151.931 95.6578 151.931L96.745 165.389L117.369 171.455C128.512 174.732 140.286 174.993 151.555 172.211L149.104 158.709C149.104 158.709 159.028 97.3877 153.05 94.6879C147.071 91.9881 143.334 92.7594 143.334 92.7594L135.84 86.0098L114.188 86.5883Z" fill="#E5E5E5"/>
<path d="M149.316 71.5675C149.316 83.6399 138.501 81.8139 125.16 81.8139C111.819 81.8139 101.004 83.6399 101.004 71.5675C101.004 59.495 106.287 38.0957 125.16 38.0957C144.684 38.0957 149.316 59.495 149.316 71.5675Z" fill="#2F2E41"/>
<path d="M137.714 75.6565C144.062 69.1044 144.062 58.4815 137.714 51.9294C131.366 45.3774 121.074 45.3774 114.726 51.9294C108.378 58.4815 108.378 69.1044 114.726 75.6565C121.074 82.2086 131.366 82.2085 137.714 75.6565Z" fill="#A0616A"/>
<path d="M106.299 63.3699H112.728L115.564 55.1727L116.131 63.3699H119.204L120.859 58.5882L121.19 63.3699H144.022C144.022 58.6595 142.209 54.1421 138.982 50.8113C135.755 47.4806 131.379 45.6094 126.815 45.6094H123.506C118.942 45.6094 114.566 47.4806 111.339 50.8113C108.112 54.1421 106.299 58.6595 106.299 63.3699Z" fill="#2F2E41"/>
<path d="M141.464 88.5156H108.955V129.013H141.464V88.5156Z" fill="#FAD85B"/>
<path d="M110.748 203.49L113.805 211.702L145.95 203.439L141.438 191.318L110.748 203.49Z" fill="#A0616A"/>
<path d="M112.566 200.365L118.587 216.539L118.587 216.539C119.604 219.273 119.528 222.312 118.375 224.987C117.222 227.663 115.086 229.756 112.438 230.806L112.113 230.935L102.256 204.454L112.566 200.365Z" fill="#2F2E41"/>
<path d="M175.003 162.08C177.585 161.412 180.262 161.223 182.909 161.523C185.022 161.763 187.2 162.37 188.743 163.88C190.621 165.718 191.224 168.56 191.275 171.231C191.357 176.55 189.648 181.734 186.439 185.897C185.655 186.95 184.723 187.876 183.674 188.645C182.542 189.375 181.336 189.975 180.077 190.434L152.153 201.802C144.807 204.793 137.435 207.792 129.773 209.764C129.356 209.971 128.876 209.999 128.44 209.842C128.003 209.685 127.645 209.355 127.443 208.925C127.437 208.912 127.431 208.899 127.425 208.885C124.979 205.278 122.926 201.403 121.305 197.33C121.229 197.233 121.176 197.119 121.151 196.996C121.126 196.874 121.13 196.747 121.163 196.627C121.195 196.506 121.256 196.396 121.339 196.304C121.422 196.213 121.524 196.144 121.639 196.102L141.389 184.389C142.804 183.55 144.235 182.699 145.409 181.53C146.263 180.677 146.962 179.672 147.473 178.565C147.883 177.682 147.921 175.599 148.444 174.947C148.956 174.308 150.707 174.257 151.516 174.006C152.657 173.645 153.774 173.209 154.861 172.701C159.279 170.661 163.213 167.697 167.449 165.308C169.824 163.906 172.362 162.822 175.003 162.08Z" fill="#2F2E41"/>
<path opacity="0.1" d="M163.805 170.826C160.412 173.457 156.018 175.875 152.655 178.574C151.508 179.496 132.374 190.599 132.104 192.073C135.241 192.619 155.227 178.188 158.087 176.747C160.946 175.307 163.481 173.277 165.993 171.261C166.633 170.747 169.346 169.203 167.509 168.629C166.473 168.306 164.57 170.3 163.805 170.826Z" fill="black"/>
<path d="M224.798 69.3148C231.246 69.3148 236.474 63.919 236.474 57.2629C236.474 50.6068 231.246 45.2109 224.798 45.2109C218.349 45.2109 213.121 50.6068 213.121 57.2629C213.121 63.919 218.349 69.3148 224.798 69.3148Z" fill="#F1F1F1"/>
<path d="M203.187 71.4712C207.711 71.4712 211.378 67.686 211.378 63.0168C211.378 58.3476 207.711 54.5625 203.187 54.5625C198.663 54.5625 194.996 58.3476 194.996 63.0168C194.996 67.686 198.663 71.4712 203.187 71.4712Z" fill="#F1F1F1"/>
<path d="M53.1419 65.9562C56.7691 65.9562 59.7095 62.9212 59.7095 59.1773C59.7095 55.4334 56.7691 52.3984 53.1419 52.3984C49.5147 52.3984 46.5742 55.4334 46.5742 59.1773C46.5742 62.9212 49.5147 65.9562 53.1419 65.9562Z" fill="#F1F1F1"/>
<path d="M63.9529 70.5165C66.4973 70.5165 68.56 68.3875 68.56 65.7612C68.56 63.1349 66.4973 61.0059 63.9529 61.0059C61.4084 61.0059 59.3457 63.1349 59.3457 65.7612C59.3457 68.3875 61.4084 70.5165 63.9529 70.5165Z" fill="#F1F1F1"/>
<path d="M127.667 10.3636C130.44 10.3636 132.687 8.04366 132.687 5.18182C132.687 2.31998 130.44 0 127.667 0C124.894 0 122.646 2.31998 122.646 5.18182C122.646 8.04366 124.894 10.3636 127.667 10.3636Z" fill="#F1F1F1"/>
<path opacity="0.17" d="M97.748 114.359L98.1968 110.783C98.1968 110.783 114.937 112.045 112.321 116.287C109.706 120.53 103.353 120.915 103.353 120.915L97.748 114.359Z" fill="#2F2E41"/>
<path d="M110.381 98.8121C111.34 98.9211 112.264 99.2478 113.086 99.7688C113.908 100.29 114.608 100.992 115.136 101.826C115.617 102.586 115.945 103.439 116.098 104.333C116.252 105.228 116.229 106.145 116.031 107.029C115.832 107.914 115.463 108.749 114.944 109.482C114.425 110.216 113.769 110.834 113.013 111.299C112.736 111.468 112.446 111.615 112.147 111.738L101.858 144.224C101.56 144.865 101.142 145.439 100.628 145.912C100.114 146.386 99.515 146.75 98.8644 146.984C98.2139 147.218 97.5249 147.317 96.8373 147.275C96.1496 147.233 95.4767 147.051 94.8573 146.74C94.2379 146.429 93.6842 145.994 93.2281 145.461C92.7719 144.928 92.4223 144.308 92.1994 143.635C91.9764 142.962 91.8844 142.251 91.9288 141.541C91.9732 140.831 92.153 140.138 92.458 139.5L103.401 107.375C103.102 106.313 103.063 105.19 103.285 104.108C103.507 103.025 103.985 102.016 104.675 101.169C105.365 100.323 106.247 99.6646 107.242 99.2534C108.238 98.8423 109.316 98.6907 110.381 98.8121Z" fill="#A0616A"/>
<path d="M97.903 111.086C97.903 111.086 103.799 121.483 112.323 116.285L104.062 148.914H97.1021L89.9023 147.526L91.9183 134.045L97.903 111.086Z" fill="#E5E5E5"/>
<path d="M140.001 118.193L135.117 111.272C135.117 111.272 137.465 104.093 146.567 106.718C146.567 106.718 152.359 120.1 140.001 118.193Z" fill="#E5E5E5"/>
<path opacity="0.17" d="M140.001 118.193L135.117 111.272C135.117 111.272 137.465 104.093 146.567 106.718C146.567 106.718 152.359 120.1 140.001 118.193Z" fill="#2F2E41"/>
<path d="M141.293 94.0117C142.702 94.6878 143.829 95.8635 144.469 97.3249C145.109 98.7863 145.219 100.436 144.78 101.975L155.723 134.1C156.028 134.737 156.208 135.431 156.252 136.141C156.297 136.85 156.205 137.562 155.982 138.235C155.759 138.907 155.409 139.528 154.953 140.061C154.497 140.594 153.943 141.028 153.324 141.34C152.704 141.651 152.032 141.833 151.344 141.875C150.656 141.916 149.967 141.818 149.317 141.584C148.666 141.35 148.067 140.986 147.553 140.512C147.039 140.038 146.621 139.464 146.323 138.823L136.034 106.338C135.735 106.214 135.445 106.068 135.168 105.899C134.412 105.433 133.756 104.816 133.237 104.082C132.718 103.348 132.349 102.514 132.15 101.629C131.952 100.744 131.929 99.8269 132.083 98.9327C132.236 98.0384 132.564 97.1854 133.045 96.425C133.573 95.5916 134.273 94.8892 135.095 94.3682C135.917 93.8472 136.841 93.5205 137.8 93.4115C138.995 93.2717 140.205 93.4795 141.293 94.0117Z" fill="#A0616A"/>
<path d="M135.117 111.272C135.117 111.272 143.176 116.319 146.567 106.719L157.922 137.579L154.548 143.67L154.06 143.712C152.047 143.885 150.024 143.552 148.163 142.74C146.303 141.928 144.661 140.662 143.379 139.051C140.764 135.764 138.985 131.857 138.2 127.683L135.117 111.272Z" fill="#E5E5E5"/>
</g>
<defs>
<clipPath id="clip0_816_382">
<rect width="242.513" height="231.32" fill="white"/>
</clipPath>
</defs>
</svg>
