<svg width="880" height="280" viewBox="0 0 880 280" fill="none" xmlns="http://www.w3.org/2000/svg">
<g filter="url(#filter0_d_816_323)">
<rect x="71" y="205.246" width="239.134" height="66.9079" rx="21.0636" fill="#F6C345"/>
<path d="M105.651 228.984C105.597 228.875 105.569 228.757 105.569 228.629C105.569 228.492 105.651 228.328 105.815 228.137C105.989 227.936 106.23 227.836 106.54 227.836H109.534C110.245 227.836 110.787 228.269 111.161 229.135L116.452 240.92L121.743 229.135C122.117 228.278 122.659 227.845 123.37 227.836H126.364C126.683 227.836 126.925 227.936 127.089 228.137C127.253 228.328 127.335 228.492 127.335 228.629C127.335 228.757 127.312 228.875 127.267 228.984L119.392 246.047C118.963 246.977 118.312 247.441 117.437 247.441H115.468C114.593 247.441 113.941 246.977 113.513 246.047L105.651 228.984ZM129.632 245.746C128.21 244.434 127.499 242.501 127.499 239.949C127.499 237.388 128.21 235.456 129.632 234.152C131.054 232.84 133.095 232.184 135.757 232.184C138.427 232.184 140.474 232.84 141.896 234.152C143.317 235.456 144.028 237.388 144.028 239.949C144.028 242.501 143.317 244.434 141.896 245.746C140.474 247.059 138.427 247.715 135.757 247.715C133.095 247.715 131.054 247.059 129.632 245.746ZM133.091 236.395C132.526 237.133 132.243 238.313 132.243 239.936C132.243 241.558 132.526 242.743 133.091 243.49C133.656 244.238 134.545 244.611 135.757 244.611C136.978 244.611 137.871 244.238 138.437 243.49C139.011 242.743 139.298 241.558 139.298 239.936C139.298 238.313 139.011 237.133 138.437 236.395C137.871 235.656 136.978 235.287 135.757 235.287C134.545 235.287 133.656 235.656 133.091 236.395ZM153.804 247.715C151.252 247.715 149.265 247.059 147.843 245.746C146.421 244.434 145.71 242.506 145.71 239.963C145.71 237.411 146.416 235.479 147.829 234.166C149.242 232.844 151.206 232.184 153.722 232.184C156.246 232.184 158.183 232.585 159.532 233.387C160.89 234.189 161.569 235.374 161.569 236.941C161.569 237.188 161.487 237.388 161.323 237.543C161.168 237.698 160.968 237.775 160.722 237.775H158.685C158.065 237.775 157.541 237.443 157.112 236.777C156.575 235.921 155.622 235.492 154.255 235.492C152.897 235.492 151.944 235.843 151.398 236.545C150.86 237.238 150.591 238.372 150.591 239.949C150.591 241.526 150.869 242.665 151.425 243.367C151.99 244.069 152.965 244.42 154.351 244.42C155.745 244.42 156.711 243.992 157.249 243.135C157.677 242.46 158.202 242.123 158.821 242.123H160.858C161.105 242.123 161.305 242.205 161.46 242.369C161.624 242.524 161.706 242.72 161.706 242.957C161.706 244.525 161.027 245.71 159.669 246.512C158.32 247.314 156.365 247.715 153.804 247.715ZM164.905 246.457C163.702 245.618 163.101 244.434 163.101 242.902C163.101 241.371 163.702 240.195 164.905 239.375C166.118 238.555 167.676 238.145 169.581 238.145H174.106C174.106 237.078 173.883 236.335 173.437 235.916C172.99 235.497 172.206 235.287 171.085 235.287C169.973 235.287 169.189 235.565 168.733 236.121C168.287 236.668 167.735 236.941 167.079 236.941H165.042C164.796 236.941 164.591 236.864 164.427 236.709C164.272 236.545 164.194 236.344 164.194 236.107C164.194 233.492 166.678 232.184 171.646 232.184C173.815 232.184 175.556 232.671 176.868 233.646C178.181 234.613 178.837 236.112 178.837 238.145V246.607C178.837 246.854 178.759 247.054 178.605 247.209C178.45 247.364 178.249 247.441 178.003 247.441H175.364C175.118 247.441 174.918 247.364 174.763 247.209C174.608 247.045 174.53 246.844 174.53 246.607V246.184C173.09 247.214 171.427 247.724 169.54 247.715C167.662 247.715 166.118 247.296 164.905 246.457ZM169.909 241.248C169.271 241.248 168.765 241.403 168.392 241.713C168.027 242.023 167.845 242.424 167.845 242.916C167.845 243.408 168.036 243.814 168.419 244.133C168.802 244.452 169.344 244.611 170.046 244.611C171.45 244.611 172.803 244.201 174.106 243.381V241.248H169.909ZM182.214 228.684C182.214 228.438 182.291 228.237 182.446 228.082C182.61 227.918 182.811 227.836 183.048 227.836H186.11C186.347 227.836 186.543 227.918 186.698 228.082C186.862 228.237 186.944 228.438 186.944 228.684V232.881C188.421 232.416 189.738 232.184 190.896 232.184C193.138 232.184 194.92 232.854 196.241 234.193C197.563 235.524 198.224 237.447 198.224 239.963C198.224 245.131 195.33 247.715 189.542 247.715C188.22 247.715 186.849 247.569 185.427 247.277C184.014 246.977 182.943 246.612 182.214 246.184V228.684ZM186.944 236.039V244.105C187.728 244.315 188.726 244.42 189.939 244.42C191.151 244.42 192.021 244.069 192.55 243.367C193.088 242.665 193.356 241.531 193.356 239.963C193.356 238.395 193.092 237.26 192.564 236.559C192.044 235.848 191.16 235.492 189.911 235.492C189.109 235.492 188.12 235.674 186.944 236.039ZM200.753 241.139V233.305C200.753 233.059 200.83 232.858 200.985 232.703C201.149 232.539 201.35 232.457 201.587 232.457H204.649C204.886 232.457 205.082 232.539 205.237 232.703C205.401 232.858 205.483 233.059 205.483 233.305V241.139C205.483 243.326 206.349 244.42 208.081 244.42C209.22 244.42 210.446 243.764 211.759 242.451V233.305C211.759 233.059 211.836 232.858 211.991 232.703C212.155 232.539 212.356 232.457 212.593 232.457H215.642C215.888 232.457 216.088 232.539 216.243 232.703C216.407 232.858 216.489 233.059 216.489 233.305V246.607C216.489 246.844 216.407 247.045 216.243 247.209C216.088 247.364 215.888 247.441 215.642 247.441H212.593C212.356 247.441 212.155 247.364 211.991 247.209C211.836 247.045 211.759 246.844 211.759 246.607V245.732C210.191 247.054 208.519 247.715 206.741 247.715C204.973 247.715 203.533 247.177 202.421 246.102C201.309 245.017 200.753 243.363 200.753 241.139ZM219.866 246.607V228.684C219.866 228.438 219.944 228.237 220.099 228.082C220.263 227.918 220.463 227.836 220.7 227.836H223.763C224 227.836 224.196 227.918 224.351 228.082C224.515 228.237 224.597 228.438 224.597 228.684V246.607C224.597 246.844 224.515 247.045 224.351 247.209C224.196 247.364 224 247.441 223.763 247.441H220.7C220.463 247.441 220.263 247.364 220.099 247.209C219.944 247.045 219.866 246.844 219.866 246.607ZM228.917 246.457C227.714 245.618 227.112 244.434 227.112 242.902C227.112 241.371 227.714 240.195 228.917 239.375C230.129 238.555 231.688 238.145 233.593 238.145H238.118C238.118 237.078 237.895 236.335 237.448 235.916C237.002 235.497 236.218 235.287 235.097 235.287C233.985 235.287 233.201 235.565 232.745 236.121C232.299 236.668 231.747 236.941 231.091 236.941H229.054C228.808 236.941 228.603 236.864 228.439 236.709C228.284 236.545 228.206 236.344 228.206 236.107C228.206 233.492 230.69 232.184 235.657 232.184C237.827 232.184 239.567 232.671 240.88 233.646C242.192 234.613 242.849 236.112 242.849 238.145V246.607C242.849 246.854 242.771 247.054 242.616 247.209C242.461 247.364 242.261 247.441 242.015 247.441H239.376C239.13 247.441 238.929 247.364 238.774 247.209C238.62 247.045 238.542 246.844 238.542 246.607V246.184C237.102 247.214 235.439 247.724 233.552 247.715C231.674 247.715 230.129 247.296 228.917 246.457ZM233.921 241.248C233.283 241.248 232.777 241.403 232.403 241.713C232.039 242.023 231.857 242.424 231.857 242.916C231.857 243.408 232.048 243.814 232.431 244.133C232.814 244.452 233.356 244.611 234.058 244.611C235.461 244.611 236.815 244.201 238.118 243.381V241.248H233.921ZM256.589 235.93L254.483 235.848C253.253 235.848 252.077 236.522 250.956 237.871V246.607C250.956 246.854 250.874 247.054 250.71 247.209C250.555 247.364 250.359 247.441 250.122 247.441H247.06C246.814 247.441 246.613 247.364 246.458 247.209C246.303 247.054 246.226 246.854 246.226 246.607V233.305C246.226 233.059 246.303 232.858 246.458 232.703C246.622 232.539 246.823 232.457 247.06 232.457H250.122C250.368 232.457 250.569 232.539 250.724 232.703C250.879 232.858 250.956 233.059 250.956 233.305V234.166C251.886 233.492 252.779 232.995 253.636 232.676C254.502 232.348 255.632 232.184 257.026 232.184C257.273 232.184 257.473 232.266 257.628 232.43C257.792 232.585 257.874 232.781 257.874 233.018V235.096C257.874 235.342 257.792 235.542 257.628 235.697C257.473 235.852 257.273 235.93 257.026 235.93H256.589ZM262.755 248.863L264.546 249.096C265.831 249.096 266.729 248.152 267.239 246.266C265.69 246.266 264.396 245.801 263.357 244.871C262.317 243.932 261.424 242.269 260.677 239.881L258.64 233.277C258.612 233.204 258.599 233.122 258.599 233.031C258.599 232.931 258.653 232.812 258.763 232.676C258.881 232.539 259.054 232.466 259.282 232.457H262.14C262.404 232.457 262.655 232.548 262.892 232.73C263.138 232.904 263.297 233.122 263.37 233.387L265.161 239.184C265.608 240.605 266.059 241.59 266.515 242.137C266.98 242.684 267.526 242.957 268.155 242.957L270.876 233.387C270.949 233.122 271.09 232.904 271.3 232.73C271.519 232.548 271.76 232.457 272.024 232.457H274.909C275.137 232.457 275.306 232.53 275.415 232.676C275.524 232.822 275.579 232.945 275.579 233.045C275.579 233.136 275.57 233.214 275.552 233.277L271.97 246.047C271.332 248.307 270.539 249.921 269.591 250.887C268.652 251.853 267.44 252.336 265.954 252.336C264.468 252.336 263.416 252.281 262.796 252.172C262.185 252.062 261.802 251.926 261.648 251.762C261.493 251.607 261.415 251.424 261.415 251.215V249.711C261.415 249.465 261.493 249.26 261.648 249.096C261.802 248.941 262.003 248.863 262.249 248.863H262.755Z" fill="white"/>
</g>
<g filter="url(#filter1_d_816_323)">
<rect x="371.77" y="196.9" width="229.221" height="78.0592" rx="24.7807" fill="#97C255"/>
<rect x="371.77" y="273.721" width="198.246" height="80.5373" rx="24.7807" transform="rotate(-90 371.77 273.721)" fill="#97C255"/>
<path d="M381.406 227.05C381.366 226.952 381.345 226.842 381.345 226.72C381.345 226.59 381.414 226.444 381.553 226.281C381.699 226.11 381.915 226.024 382.2 226.024H384.873C385.19 226.024 385.483 226.134 385.752 226.354C386.02 226.574 386.212 226.85 386.326 227.184L389.548 236.852L392.527 227.184C392.763 226.411 393.247 226.024 393.979 226.024H396.226C396.958 226.024 397.442 226.411 397.678 227.184L400.657 236.852L403.879 227.184C403.993 226.85 404.185 226.574 404.453 226.354C404.722 226.134 405.015 226.024 405.332 226.024H408.005C408.282 226.024 408.49 226.11 408.628 226.281C408.774 226.444 408.848 226.59 408.848 226.72C408.848 226.842 408.831 226.952 408.799 227.05L403.354 242.284C403.053 243.114 402.467 243.529 401.597 243.529H399.827C398.923 243.529 398.341 243.114 398.081 242.284L395.103 232.885L392.124 242.284C391.855 243.114 391.274 243.529 390.378 243.529H388.596C387.734 243.529 387.152 243.114 386.851 242.284L381.406 227.05ZM411.143 242.016C409.873 240.844 409.238 239.118 409.238 236.84C409.238 234.553 409.873 232.828 411.143 231.664C412.412 230.492 414.235 229.906 416.611 229.906C418.996 229.906 420.823 230.492 422.092 231.664C423.362 232.828 423.997 234.553 423.997 236.84C423.997 239.118 423.362 240.844 422.092 242.016C420.823 243.188 418.996 243.773 416.611 243.773C414.235 243.773 412.412 243.188 411.143 242.016ZM414.231 233.666C413.726 234.325 413.474 235.379 413.474 236.828C413.474 238.276 413.726 239.334 414.231 240.001C414.735 240.669 415.529 241.002 416.611 241.002C417.702 241.002 418.499 240.669 419.004 240.001C419.517 239.334 419.773 238.276 419.773 236.828C419.773 235.379 419.517 234.325 419.004 233.666C418.499 233.007 417.702 232.677 416.611 232.677C415.529 232.677 414.735 233.007 414.231 233.666ZM435.508 233.251L433.628 233.178C432.529 233.178 431.479 233.78 430.479 234.984V242.785C430.479 243.004 430.405 243.183 430.259 243.322C430.12 243.46 429.945 243.529 429.734 243.529H426.999C426.78 243.529 426.601 243.46 426.462 243.322C426.324 243.183 426.255 243.004 426.255 242.785V230.907C426.255 230.688 426.324 230.508 426.462 230.37C426.609 230.224 426.788 230.15 426.999 230.15H429.734C429.954 230.15 430.133 230.224 430.271 230.37C430.409 230.508 430.479 230.688 430.479 230.907V231.676C431.309 231.074 432.106 230.631 432.871 230.346C433.644 230.053 434.653 229.906 435.898 229.906C436.118 229.906 436.297 229.979 436.436 230.126C436.582 230.264 436.655 230.439 436.655 230.651V232.506C436.655 232.726 436.582 232.905 436.436 233.043C436.297 233.182 436.118 233.251 435.898 233.251H435.508ZM443.638 243.773C441.937 243.773 440.513 243.175 439.365 241.979C438.226 240.783 437.656 239.07 437.656 236.84C437.656 234.602 438.246 232.889 439.426 231.701C440.614 230.504 442.209 229.906 444.211 229.906C445.245 229.906 446.421 230.114 447.739 230.529V226.781C447.739 226.562 447.808 226.382 447.947 226.244C448.093 226.098 448.272 226.024 448.484 226.024H451.206C451.426 226.024 451.605 226.098 451.743 226.244C451.89 226.382 451.963 226.562 451.963 226.781V242.785C451.963 242.996 451.89 243.175 451.743 243.322C451.605 243.46 451.426 243.529 451.206 243.529H448.862C448.643 243.529 448.464 243.46 448.325 243.322C448.187 243.175 448.118 242.996 448.118 242.785V242.406C446.832 243.318 445.339 243.773 443.638 243.773ZM445.09 232.86C443.967 232.86 443.174 233.178 442.71 233.812C442.246 234.439 442.014 235.448 442.014 236.84C442.014 238.231 442.234 239.245 442.673 239.879C443.113 240.514 443.772 240.832 444.651 240.832C445.538 240.832 446.567 240.465 447.739 239.733V233.349C446.689 233.023 445.806 232.86 445.09 232.86ZM462.974 233.849C462.974 231.221 465.094 229.906 469.333 229.906C473.793 229.906 476.023 231.074 476.023 233.41C476.023 233.621 475.954 233.8 475.815 233.947C475.677 234.085 475.498 234.154 475.278 234.154H473.459C472.874 234.154 472.381 233.91 471.982 233.422C471.584 232.925 470.798 232.677 469.626 232.677C468.015 232.677 467.209 233.068 467.209 233.849C467.209 234.215 467.523 234.521 468.149 234.765C468.784 235.009 469.553 235.224 470.457 235.412C471.368 235.591 472.275 235.823 473.179 236.107C474.082 236.392 474.847 236.848 475.474 237.475C476.108 238.093 476.426 238.878 476.426 239.831C476.426 242.459 474.188 243.773 469.712 243.773C465.236 243.773 462.998 242.61 462.998 240.282C462.998 240.062 463.067 239.883 463.206 239.745C463.352 239.599 463.535 239.525 463.755 239.525H465.574C466.16 239.525 466.652 239.774 467.051 240.27C467.45 240.758 468.235 241.002 469.407 241.002C471.27 241.002 472.202 240.612 472.202 239.831C472.202 239.464 471.885 239.159 471.25 238.915C470.623 238.671 469.854 238.455 468.943 238.268C468.031 238.073 467.124 237.837 466.221 237.56C465.326 237.275 464.561 236.819 463.926 236.193C463.291 235.566 462.974 234.785 462.974 233.849ZM485.068 240.88L486.741 240.734H487.192C487.412 240.734 487.591 240.803 487.729 240.941C487.876 241.08 487.949 241.259 487.949 241.479V242.785C487.949 242.964 487.876 243.126 487.729 243.273C487.591 243.411 487.412 243.497 487.192 243.529C486.362 243.692 485.28 243.773 483.945 243.773C480.446 243.773 478.696 241.942 478.696 238.28V226.781C478.696 226.562 478.765 226.382 478.904 226.244C479.05 226.098 479.229 226.024 479.441 226.024H482.175C482.387 226.024 482.562 226.098 482.7 226.244C482.847 226.382 482.92 226.562 482.92 226.781V230.858H486.326C486.537 230.858 486.712 230.928 486.851 231.066C486.997 231.204 487.07 231.383 487.07 231.603V233.056C487.07 233.275 486.997 233.454 486.851 233.593C486.712 233.731 486.537 233.8 486.326 233.8H482.92V238.28C482.92 239.11 483.115 239.753 483.506 240.209C483.896 240.657 484.417 240.88 485.068 240.88ZM499.204 233.251L497.324 233.178C496.226 233.178 495.176 233.78 494.175 234.984V242.785C494.175 243.004 494.102 243.183 493.955 243.322C493.817 243.46 493.642 243.529 493.43 243.529H490.696C490.476 243.529 490.297 243.46 490.159 243.322C490.02 243.183 489.951 243.004 489.951 242.785V230.907C489.951 230.688 490.02 230.508 490.159 230.37C490.305 230.224 490.484 230.15 490.696 230.15H493.43C493.65 230.15 493.829 230.224 493.967 230.37C494.106 230.508 494.175 230.688 494.175 230.907V231.676C495.005 231.074 495.802 230.631 496.567 230.346C497.34 230.053 498.35 229.906 499.595 229.906C499.814 229.906 499.993 229.979 500.132 230.126C500.278 230.264 500.352 230.439 500.352 230.651V232.506C500.352 232.726 500.278 232.905 500.132 233.043C499.993 233.182 499.814 233.251 499.595 233.251H499.204ZM502.109 237.902V230.907C502.109 230.688 502.179 230.508 502.317 230.37C502.463 230.224 502.642 230.15 502.854 230.15H505.588C505.8 230.15 505.975 230.224 506.113 230.37C506.26 230.508 506.333 230.688 506.333 230.907V237.902C506.333 239.855 507.106 240.832 508.652 240.832C509.67 240.832 510.764 240.246 511.936 239.074V230.907C511.936 230.688 512.005 230.508 512.144 230.37C512.29 230.224 512.469 230.15 512.681 230.15H515.403C515.623 230.15 515.802 230.224 515.94 230.37C516.086 230.508 516.16 230.688 516.16 230.907V242.785C516.16 242.996 516.086 243.175 515.94 243.322C515.802 243.46 515.623 243.529 515.403 243.529H512.681C512.469 243.529 512.29 243.46 512.144 243.322C512.005 243.175 511.936 242.996 511.936 242.785V242.003C510.536 243.183 509.043 243.773 507.456 243.773C505.877 243.773 504.591 243.293 503.599 242.333C502.606 241.365 502.109 239.888 502.109 237.902ZM525.645 243.773C523.366 243.773 521.592 243.188 520.322 242.016C519.053 240.844 518.418 239.123 518.418 236.852C518.418 234.573 519.049 232.848 520.31 231.676C521.571 230.496 523.325 229.906 525.571 229.906C527.826 229.906 529.555 230.264 530.759 230.98C531.972 231.697 532.578 232.755 532.578 234.154C532.578 234.374 532.505 234.553 532.358 234.691C532.22 234.83 532.041 234.899 531.821 234.899H530.002C529.449 234.899 528.981 234.602 528.599 234.008C528.118 233.243 527.268 232.86 526.047 232.86C524.835 232.86 523.984 233.174 523.496 233.8C523.016 234.419 522.776 235.432 522.776 236.84C522.776 238.248 523.024 239.265 523.52 239.892C524.025 240.518 524.896 240.832 526.133 240.832C527.378 240.832 528.241 240.449 528.721 239.684C529.103 239.082 529.571 238.781 530.124 238.781H531.943C532.163 238.781 532.342 238.854 532.48 239C532.627 239.139 532.7 239.314 532.7 239.525C532.7 240.925 532.094 241.983 530.881 242.699C529.677 243.415 527.931 243.773 525.645 243.773ZM541.074 240.88L542.747 240.734H543.198C543.418 240.734 543.597 240.803 543.735 240.941C543.882 241.08 543.955 241.259 543.955 241.479V242.785C543.955 242.964 543.882 243.126 543.735 243.273C543.597 243.411 543.418 243.497 543.198 243.529C542.368 243.692 541.286 243.773 539.951 243.773C536.452 243.773 534.702 241.942 534.702 238.28V226.781C534.702 226.562 534.771 226.382 534.91 226.244C535.056 226.098 535.235 226.024 535.447 226.024H538.181C538.393 226.024 538.568 226.098 538.706 226.244C538.853 226.382 538.926 226.562 538.926 226.781V230.858H542.332C542.543 230.858 542.718 230.928 542.856 231.066C543.003 231.204 543.076 231.383 543.076 231.603V233.056C543.076 233.275 543.003 233.454 542.856 233.593C542.718 233.731 542.543 233.8 542.332 233.8H538.926V238.28C538.926 239.11 539.121 239.753 539.512 240.209C539.902 240.657 540.423 240.88 541.074 240.88ZM545.835 237.902V230.907C545.835 230.688 545.904 230.508 546.042 230.37C546.189 230.224 546.368 230.15 546.58 230.15H549.314C549.526 230.15 549.701 230.224 549.839 230.37C549.985 230.508 550.059 230.688 550.059 230.907V237.902C550.059 239.855 550.832 240.832 552.378 240.832C553.395 240.832 554.49 240.246 555.662 239.074V230.907C555.662 230.688 555.731 230.508 555.869 230.37C556.016 230.224 556.195 230.15 556.406 230.15H559.128C559.348 230.15 559.527 230.224 559.666 230.37C559.812 230.508 559.885 230.688 559.885 230.907V242.785C559.885 242.996 559.812 243.175 559.666 243.322C559.527 243.46 559.348 243.529 559.128 243.529H556.406C556.195 243.529 556.016 243.46 555.869 243.322C555.731 243.175 555.662 242.996 555.662 242.785V242.003C554.262 243.183 552.769 243.773 551.182 243.773C549.603 243.773 548.317 243.293 547.324 242.333C546.331 241.365 545.835 239.888 545.835 237.902ZM572.153 233.251L570.273 233.178C569.175 233.178 568.125 233.78 567.124 234.984V242.785C567.124 243.004 567.051 243.183 566.904 243.322C566.766 243.46 566.591 243.529 566.379 243.529H563.645C563.425 243.529 563.246 243.46 563.108 243.322C562.97 243.183 562.9 243.004 562.9 242.785V230.907C562.9 230.688 562.97 230.508 563.108 230.37C563.254 230.224 563.433 230.15 563.645 230.15H566.379C566.599 230.15 566.778 230.224 566.916 230.37C567.055 230.508 567.124 230.688 567.124 230.907V231.676C567.954 231.074 568.752 230.631 569.517 230.346C570.29 230.053 571.299 229.906 572.544 229.906C572.764 229.906 572.943 229.979 573.081 230.126C573.228 230.264 573.301 230.439 573.301 230.651V232.506C573.301 232.726 573.228 232.905 573.081 233.043C572.943 233.182 572.764 233.251 572.544 233.251H572.153ZM576.06 241.991C574.806 240.803 574.18 239.094 574.18 236.864C574.18 234.626 574.81 232.909 576.072 231.713C577.333 230.508 579.083 229.906 581.321 229.906C583.559 229.906 585.304 230.492 586.558 231.664C587.811 232.828 588.437 234.5 588.437 236.681V237.377C588.437 237.597 588.364 237.78 588.218 237.926C588.079 238.065 587.9 238.134 587.681 238.134H578.489C578.57 239.135 578.855 239.863 579.343 240.319C579.84 240.775 580.629 241.002 581.711 241.002C582.794 241.002 583.534 240.758 583.933 240.27C584.332 239.782 584.824 239.534 585.41 239.525H587.229C587.449 239.525 587.628 239.599 587.766 239.745C587.913 239.883 587.986 240.062 587.986 240.282C587.986 242.618 585.76 243.782 581.309 243.773C579.062 243.773 577.313 243.179 576.06 241.991ZM578.464 235.558H584.141C584.059 233.638 583.115 232.677 581.309 232.677C579.51 232.677 578.562 233.638 578.464 235.558Z" fill="white"/>
</g>
<g filter="url(#filter2_d_816_323)">
<path d="M633.5 21.0636C633.5 9.43048 642.93 0 654.564 0L832.692 0C844.326 0 853.756 9.43049 853.756 21.0636V55.2349C853.756 66.868 844.326 76.2985 832.693 76.2985L633.5 76.2985V21.0636Z" fill="#F6C345"/>
<path d="M535 89.7335C535 78.1004 544.43 68.6699 556.064 68.6699L755.256 68.6699V123.905C755.256 135.538 745.826 144.968 734.193 144.968L556.064 144.968C544.431 144.968 535 135.538 535 123.905V89.7335Z" fill="#F6C345"/>
<path d="M673.739 38.7422C673.739 38.2044 673.898 37.8216 674.217 37.5938C674.536 37.3568 674.846 37.2383 675.147 37.2383H676.774C677.594 37.2383 678.219 37.6849 678.647 38.5781C679.075 39.4714 680.037 39.918 681.532 39.918L686.317 40.0137C687.921 40.0137 688.723 39.4896 688.723 38.4414C688.723 37.6484 687.743 37.0241 685.784 36.5684C684.909 36.3587 683.943 36.1536 682.885 35.9531C681.828 35.7435 680.775 35.4837 679.727 35.1738C678.688 34.8639 677.731 34.4993 676.856 34.0801C675.981 33.6608 675.27 33.0866 674.723 32.3574C674.185 31.6191 673.917 30.7533 673.917 29.7598C673.917 27.9277 674.568 26.5195 675.872 25.5352C677.175 24.5417 679.417 24.0449 682.598 24.0449L686.071 24.127C687.939 24.127 689.621 24.61 691.116 25.5762C692.62 26.5332 693.372 27.7318 693.372 29.1719C693.372 29.7096 693.212 30.097 692.893 30.334C692.574 30.571 692.269 30.6895 691.977 30.6895H690.35C689.53 30.6895 688.905 30.2428 688.477 29.3496C688.049 28.4473 687.087 27.9961 685.592 27.9961L681.477 27.9141C679.873 27.9141 679.071 28.4382 679.071 29.4863C679.071 30.0605 679.577 30.5299 680.588 30.8945C681.609 31.2591 682.84 31.5827 684.28 31.8652C685.729 32.1387 687.183 32.4714 688.641 32.8633C690.099 33.2552 691.334 33.9023 692.346 34.8047C693.367 35.6979 693.877 36.8145 693.877 38.1543C693.877 39.9863 693.221 41.3991 691.909 42.3926C690.605 43.377 688.368 43.8691 685.196 43.8691L681.053 43.7871C679.185 43.7871 677.499 43.3086 675.995 42.3516C674.491 41.3854 673.739 40.1823 673.739 38.7422ZM697.665 42.0371C696.261 40.7064 695.559 38.7923 695.559 36.2949C695.559 33.7884 696.265 31.8652 697.678 30.5254C699.091 29.1764 701.051 28.502 703.557 28.502C706.064 28.502 708.019 29.1582 709.422 30.4707C710.826 31.7741 711.528 33.6471 711.528 36.0898V36.8691C711.528 37.1152 711.446 37.3203 711.282 37.4844C711.127 37.6393 710.926 37.7168 710.68 37.7168H700.385C700.476 38.8379 700.795 39.6536 701.342 40.1641C701.898 40.6745 702.782 40.9297 703.995 40.9297C705.207 40.9297 706.036 40.6562 706.483 40.1094C706.93 39.5625 707.481 39.2845 708.137 39.2754H710.174C710.42 39.2754 710.621 39.3574 710.776 39.5215C710.94 39.6764 711.022 39.877 711.022 40.123C711.022 42.7389 708.529 44.0423 703.543 44.0332C701.028 44.0332 699.068 43.3678 697.665 42.0371ZM700.358 34.832H706.715C706.624 32.681 705.567 31.6055 703.543 31.6055C701.529 31.6055 700.467 32.681 700.358 34.832ZM714.043 42.9258V29.623C714.043 29.377 714.121 29.1764 714.276 29.0215C714.44 28.8574 714.64 28.7754 714.877 28.7754H717.94C718.177 28.7754 718.373 28.8574 718.528 29.0215C718.692 29.1764 718.774 29.377 718.774 29.623V30.4844C720.342 29.1628 722.01 28.502 723.778 28.502C725.555 28.502 727 29.0443 728.112 30.1289C729.224 31.2044 729.78 32.8542 729.78 35.0781V42.9258C729.78 43.1628 729.698 43.3633 729.534 43.5273C729.379 43.6823 729.178 43.7598 728.932 43.7598H725.883C725.646 43.7598 725.446 43.6823 725.282 43.5273C725.127 43.3633 725.049 43.1628 725.049 42.9258V35.0781C725.049 32.8997 724.179 31.8105 722.438 31.8105C721.299 31.8105 720.077 32.4622 718.774 33.7656V42.9258C718.774 43.1628 718.692 43.3633 718.528 43.5273C718.373 43.6823 718.177 43.7598 717.94 43.7598H714.877C714.64 43.7598 714.44 43.6823 714.276 43.5273C714.121 43.3633 714.043 43.1628 714.043 42.9258ZM740.293 40.793L742.167 40.6289H742.672C742.918 40.6289 743.119 40.7064 743.274 40.8613C743.438 41.0163 743.52 41.2168 743.52 41.4629V42.9258C743.52 43.1263 743.438 43.3086 743.274 43.4727C743.119 43.6276 742.918 43.7233 742.672 43.7598C741.743 43.9421 740.53 44.0332 739.036 44.0332C735.116 44.0332 733.157 41.9824 733.157 37.8809V25.002C733.157 24.7559 733.234 24.5553 733.389 24.4004C733.553 24.2363 733.754 24.1543 733.991 24.1543H737.053C737.29 24.1543 737.486 24.2363 737.641 24.4004C737.805 24.5553 737.887 24.7559 737.887 25.002V29.5684H741.702C741.939 29.5684 742.135 29.6458 742.29 29.8008C742.454 29.9557 742.536 30.1562 742.536 30.4023V32.0293C742.536 32.2754 742.454 32.4759 742.29 32.6309C742.135 32.7858 741.939 32.8633 741.702 32.8633H737.887V37.8809C737.887 38.8105 738.106 39.5306 738.543 40.041C738.981 40.5423 739.564 40.793 740.293 40.793ZM746.883 42.0371C745.48 40.7064 744.778 38.7923 744.778 36.2949C744.778 33.7884 745.484 31.8652 746.897 30.5254C748.31 29.1764 750.269 28.502 752.776 28.502C755.282 28.502 757.237 29.1582 758.641 30.4707C760.045 31.7741 760.747 33.6471 760.747 36.0898V36.8691C760.747 37.1152 760.665 37.3203 760.5 37.4844C760.346 37.6393 760.145 37.7168 759.899 37.7168H749.604C749.695 38.8379 750.014 39.6536 750.561 40.1641C751.117 40.6745 752.001 40.9297 753.213 40.9297C754.426 40.9297 755.255 40.6562 755.702 40.1094C756.148 39.5625 756.7 39.2845 757.356 39.2754H759.393C759.639 39.2754 759.84 39.3574 759.995 39.5215C760.159 39.6764 760.241 39.877 760.241 40.123C760.241 42.7389 757.748 44.0423 752.762 44.0332C750.247 44.0332 748.287 43.3678 746.883 42.0371ZM749.577 34.832H755.934C755.843 32.681 754.786 31.6055 752.762 31.6055C750.748 31.6055 749.686 32.681 749.577 34.832ZM763.262 42.9258V29.623C763.262 29.377 763.34 29.1764 763.495 29.0215C763.659 28.8574 763.859 28.7754 764.096 28.7754H767.159C767.396 28.7754 767.592 28.8574 767.747 29.0215C767.911 29.1764 767.993 29.377 767.993 29.623V30.4844C769.56 29.1628 771.228 28.502 772.997 28.502C774.774 28.502 776.219 29.0443 777.331 30.1289C778.443 31.2044 778.999 32.8542 778.999 35.0781V42.9258C778.999 43.1628 778.917 43.3633 778.752 43.5273C778.597 43.6823 778.397 43.7598 778.151 43.7598H775.102C774.865 43.7598 774.665 43.6823 774.5 43.5273C774.346 43.3633 774.268 43.1628 774.268 42.9258V35.0781C774.268 32.8997 773.398 31.8105 771.657 31.8105C770.517 31.8105 769.296 32.4622 767.993 33.7656V42.9258C767.993 43.1628 767.911 43.3633 767.747 43.5273C767.592 43.6823 767.396 43.7598 767.159 43.7598H764.096C763.859 43.7598 763.659 43.6823 763.495 43.5273C763.34 43.3633 763.262 43.1628 763.262 42.9258ZM789.622 44.0332C787.069 44.0332 785.083 43.377 783.661 42.0645C782.239 40.752 781.528 38.8242 781.528 36.2812C781.528 33.7292 782.234 31.7969 783.647 30.4844C785.06 29.1628 787.024 28.502 789.54 28.502C792.064 28.502 794.001 28.903 795.35 29.7051C796.708 30.5072 797.387 31.6921 797.387 33.2598C797.387 33.5059 797.305 33.7064 797.141 33.8613C796.986 34.0163 796.786 34.0938 796.54 34.0938H794.502C793.883 34.0938 793.359 33.7611 792.93 33.0957C792.392 32.2389 791.44 31.8105 790.073 31.8105C788.715 31.8105 787.762 32.1615 787.215 32.8633C786.678 33.556 786.409 34.6908 786.409 36.2676C786.409 37.8444 786.687 38.9837 787.243 39.6855C787.808 40.3874 788.783 40.7383 790.168 40.7383C791.563 40.7383 792.529 40.3099 793.067 39.4531C793.495 38.7786 794.019 38.4414 794.639 38.4414H796.676C796.922 38.4414 797.123 38.5234 797.278 38.6875C797.442 38.8424 797.524 39.0384 797.524 39.2754C797.524 40.8431 796.845 42.028 795.487 42.8301C794.138 43.6322 792.183 44.0332 789.622 44.0332ZM801.024 42.0371C799.62 40.7064 798.918 38.7923 798.918 36.2949C798.918 33.7884 799.625 31.8652 801.038 30.5254C802.45 29.1764 804.41 28.502 806.917 28.502C809.423 28.502 811.378 29.1582 812.782 30.4707C814.185 31.7741 814.887 33.6471 814.887 36.0898V36.8691C814.887 37.1152 814.805 37.3203 814.641 37.4844C814.486 37.6393 814.286 37.7168 814.04 37.7168H803.745C803.836 38.8379 804.155 39.6536 804.702 40.1641C805.258 40.6745 806.142 40.9297 807.354 40.9297C808.566 40.9297 809.396 40.6562 809.842 40.1094C810.289 39.5625 810.84 39.2845 811.497 39.2754H813.534C813.78 39.2754 813.98 39.3574 814.135 39.5215C814.299 39.6764 814.381 39.877 814.381 40.123C814.381 42.7389 811.889 44.0423 806.903 44.0332C804.387 44.0332 802.428 43.3678 801.024 42.0371ZM803.717 34.832H810.075C809.984 32.681 808.926 31.6055 806.903 31.6055C804.889 31.6055 803.827 32.681 803.717 34.832Z" fill="white"/>
<path d="M581.639 101.594L579.753 101.361C577.939 101.361 576.759 101.607 576.212 102.1C575.665 102.583 575.391 103.59 575.391 105.121V105.34H580.341C580.587 105.34 580.787 105.422 580.942 105.586C581.106 105.741 581.188 105.941 581.188 106.188V107.814C581.188 108.061 581.106 108.261 580.942 108.416C580.787 108.571 580.587 108.648 580.341 108.648H575.391V117.166C575.391 117.412 575.309 117.613 575.145 117.768C574.99 117.923 574.794 118 574.557 118H571.495C571.249 118 571.048 117.923 570.893 117.768C570.738 117.613 570.661 117.412 570.661 117.166V105.121C570.661 102.578 571.24 100.778 572.397 99.7207C573.555 98.6543 575.587 98.1211 578.495 98.1211C579.99 98.1211 581.033 98.1758 581.626 98.2852C582.218 98.3945 582.592 98.5312 582.747 98.6953C582.902 98.8503 582.979 99.0326 582.979 99.2422V100.746C582.979 100.992 582.897 101.197 582.733 101.361C582.578 101.516 582.382 101.594 582.145 101.594H581.639ZM585.262 116.305C583.841 114.992 583.13 113.06 583.13 110.508C583.13 107.947 583.841 106.014 585.262 104.711C586.684 103.398 588.726 102.742 591.387 102.742C594.058 102.742 596.104 103.398 597.526 104.711C598.948 106.014 599.659 107.947 599.659 110.508C599.659 113.06 598.948 114.992 597.526 116.305C596.104 117.617 594.058 118.273 591.387 118.273C588.726 118.273 586.684 117.617 585.262 116.305ZM588.721 106.953C588.156 107.691 587.874 108.872 587.874 110.494C587.874 112.117 588.156 113.301 588.721 114.049C589.287 114.796 590.175 115.17 591.387 115.17C592.609 115.17 593.502 114.796 594.067 114.049C594.641 113.301 594.928 112.117 594.928 110.494C594.928 108.872 594.641 107.691 594.067 106.953C593.502 106.215 592.609 105.846 591.387 105.846C590.175 105.846 589.287 106.215 588.721 106.953ZM612.552 106.488L610.446 106.406C609.216 106.406 608.04 107.081 606.919 108.43V117.166C606.919 117.412 606.837 117.613 606.673 117.768C606.518 117.923 606.322 118 606.085 118H603.022C602.776 118 602.576 117.923 602.421 117.768C602.266 117.613 602.188 117.412 602.188 117.166V103.863C602.188 103.617 602.266 103.417 602.421 103.262C602.585 103.098 602.785 103.016 603.022 103.016H606.085C606.331 103.016 606.531 103.098 606.686 103.262C606.841 103.417 606.919 103.617 606.919 103.863V104.725C607.848 104.05 608.742 103.553 609.598 103.234C610.464 102.906 611.595 102.742 612.989 102.742C613.235 102.742 613.436 102.824 613.591 102.988C613.755 103.143 613.837 103.339 613.837 103.576V105.654C613.837 105.9 613.755 106.101 613.591 106.256C613.436 106.411 613.235 106.488 612.989 106.488H612.552ZM615.805 117.166V103.863C615.805 103.617 615.883 103.417 616.038 103.262C616.202 103.098 616.402 103.016 616.639 103.016H619.702C619.948 103.016 620.149 103.098 620.303 103.262C620.458 103.417 620.536 103.617 620.536 103.863V104.725C621.192 104.087 621.835 103.599 622.464 103.262C623.102 102.915 623.867 102.742 624.761 102.742C626.884 102.742 628.493 103.617 629.587 105.367C631.282 103.608 633.018 102.733 634.796 102.742C636.582 102.742 637.99 103.28 639.02 104.355C640.059 105.422 640.579 107.076 640.579 109.318V117.166C640.579 117.412 640.501 117.613 640.346 117.768C640.192 117.923 639.991 118 639.745 118H636.696C636.45 118 636.245 117.923 636.081 117.768C635.926 117.604 635.848 117.403 635.848 117.166V109.318C635.848 107.131 635.055 106.042 633.47 106.051C632.503 106.051 631.505 106.748 630.475 108.143C630.53 108.535 630.557 108.926 630.557 109.318V117.166C630.557 117.412 630.475 117.613 630.311 117.768C630.156 117.923 629.96 118 629.723 118H626.675C626.428 118 626.223 117.923 626.059 117.768C625.904 117.604 625.827 117.403 625.827 117.166V109.318C625.827 107.131 625.034 106.042 623.448 106.051C622.436 106.051 621.466 106.702 620.536 108.006V117.166C620.536 117.412 620.454 117.613 620.29 117.768C620.135 117.923 619.939 118 619.702 118H616.639C616.393 118 616.193 117.923 616.038 117.768C615.883 117.613 615.805 117.412 615.805 117.166ZM644.899 117.016C643.696 116.177 643.095 114.992 643.095 113.461C643.095 111.93 643.696 110.754 644.899 109.934C646.111 109.113 647.67 108.703 649.575 108.703H654.1C654.1 107.637 653.877 106.894 653.43 106.475C652.984 106.055 652.2 105.846 651.079 105.846C649.967 105.846 649.183 106.124 648.727 106.68C648.281 107.227 647.729 107.5 647.073 107.5H645.036C644.79 107.5 644.585 107.423 644.421 107.268C644.266 107.104 644.188 106.903 644.188 106.666C644.188 104.05 646.672 102.742 651.639 102.742C653.809 102.742 655.55 103.23 656.862 104.205C658.175 105.171 658.831 106.671 658.831 108.703V117.166C658.831 117.412 658.753 117.613 658.598 117.768C658.443 117.923 658.243 118 657.997 118H655.358C655.112 118 654.912 117.923 654.757 117.768C654.602 117.604 654.524 117.403 654.524 117.166V116.742C653.084 117.772 651.421 118.283 649.534 118.273C647.656 118.273 646.111 117.854 644.899 117.016ZM649.903 111.807C649.265 111.807 648.759 111.962 648.386 112.271C648.021 112.581 647.839 112.982 647.839 113.475C647.839 113.967 648.03 114.372 648.413 114.691C648.796 115.01 649.338 115.17 650.04 115.17C651.443 115.17 652.797 114.76 654.1 113.939V111.807H649.903ZM669.345 115.033L671.218 114.869H671.723C671.97 114.869 672.17 114.947 672.325 115.102C672.489 115.257 672.571 115.457 672.571 115.703V117.166C672.571 117.367 672.489 117.549 672.325 117.713C672.17 117.868 671.97 117.964 671.723 118C670.794 118.182 669.581 118.273 668.087 118.273C664.167 118.273 662.208 116.223 662.208 112.121V99.2422C662.208 98.9961 662.285 98.7956 662.44 98.6406C662.604 98.4766 662.805 98.3945 663.042 98.3945H666.104C666.341 98.3945 666.537 98.4766 666.692 98.6406C666.856 98.7956 666.938 98.9961 666.938 99.2422V103.809H670.753C670.99 103.809 671.186 103.886 671.341 104.041C671.505 104.196 671.587 104.396 671.587 104.643V106.27C671.587 106.516 671.505 106.716 671.341 106.871C671.186 107.026 670.99 107.104 670.753 107.104H666.938V112.121C666.938 113.051 667.157 113.771 667.595 114.281C668.032 114.783 668.615 115.033 669.345 115.033ZM674.813 100.158V99.6934C674.813 99.2103 674.95 98.8275 675.223 98.5449C675.506 98.2624 675.893 98.1211 676.386 98.1211H678.081C678.564 98.1211 678.947 98.2624 679.229 98.5449C679.512 98.8184 679.653 99.2012 679.653 99.6934V100.158C679.653 100.641 679.512 101.024 679.229 101.307C678.956 101.589 678.573 101.73 678.081 101.73H676.386C675.902 101.73 675.52 101.589 675.237 101.307C674.955 101.024 674.813 100.641 674.813 100.158ZM674.868 117.166V104.191C674.868 103.945 674.945 103.745 675.1 103.59C675.264 103.435 675.465 103.357 675.702 103.357H678.764C679.011 103.357 679.211 103.439 679.366 103.604C679.521 103.758 679.598 103.954 679.598 104.191V117.166C679.598 117.412 679.516 117.613 679.352 117.768C679.197 117.923 679.001 118 678.764 118H675.702C675.456 118 675.255 117.923 675.1 117.768C674.945 117.613 674.868 117.412 674.868 117.166ZM684.302 116.305C682.88 114.992 682.169 113.06 682.169 110.508C682.169 107.947 682.88 106.014 684.302 104.711C685.723 103.398 687.765 102.742 690.427 102.742C693.097 102.742 695.143 103.398 696.565 104.711C697.987 106.014 698.698 107.947 698.698 110.508C698.698 113.06 697.987 114.992 696.565 116.305C695.143 117.617 693.097 118.273 690.427 118.273C687.765 118.273 685.723 117.617 684.302 116.305ZM687.761 106.953C687.195 107.691 686.913 108.872 686.913 110.494C686.913 112.117 687.195 113.301 687.761 114.049C688.326 114.796 689.214 115.17 690.427 115.17C691.648 115.17 692.541 114.796 693.106 114.049C693.68 113.301 693.968 112.117 693.968 110.494C693.968 108.872 693.68 107.691 693.106 106.953C692.541 106.215 691.648 105.846 690.427 105.846C689.214 105.846 688.326 106.215 687.761 106.953ZM701.227 117.166V103.863C701.227 103.617 701.305 103.417 701.46 103.262C701.624 103.098 701.824 103.016 702.061 103.016H705.124C705.361 103.016 705.557 103.098 705.712 103.262C705.876 103.417 705.958 103.617 705.958 103.863V104.725C707.526 103.403 709.193 102.742 710.962 102.742C712.739 102.742 714.184 103.285 715.296 104.369C716.408 105.445 716.964 107.094 716.964 109.318V117.166C716.964 117.403 716.882 117.604 716.718 117.768C716.563 117.923 716.362 118 716.116 118H713.067C712.83 118 712.63 117.923 712.466 117.768C712.311 117.604 712.233 117.403 712.233 117.166V109.318C712.233 107.14 711.363 106.051 709.622 106.051C708.483 106.051 707.261 106.702 705.958 108.006V117.166C705.958 117.403 705.876 117.604 705.712 117.768C705.557 117.923 705.361 118 705.124 118H702.061C701.824 118 701.624 117.923 701.46 117.768C701.305 117.604 701.227 117.403 701.227 117.166Z" fill="white"/>
</g>
<g filter="url(#filter3_d_816_323)">
<path d="M628 222.027C628 208.341 639.095 197.246 652.781 197.246H755.591H853.219C866.905 197.246 878 208.341 878 222.027V250.465C878 264.151 866.905 275.246 853.219 275.246H652.781C639.095 275.246 628 264.151 628 250.465V222.027Z" fill="#FF7C80"/>
<path d="M820.781 272.246C807.095 272.246 796 261.151 796 247.465V198.244V152.027C796 138.341 807.095 127.246 820.781 127.246H853.219C866.905 127.246 878 138.341 878 152.027V247.465C878 261.151 866.905 272.246 853.219 272.246H820.781Z" fill="#FF7C80"/>
<path d="M669.363 242.689C667.677 241.076 666.834 238.583 666.834 235.211C666.834 231.829 667.677 229.332 669.363 227.719C671.059 226.096 673.597 225.285 676.979 225.285H680.027C682.096 225.285 683.924 225.823 685.51 226.898C687.105 227.974 687.902 229.446 687.902 231.314C687.902 231.852 687.743 232.24 687.424 232.477C687.105 232.704 686.795 232.818 686.494 232.818H684.867C684.029 232.818 683.377 232.317 682.912 231.314C682.238 229.874 681.117 229.154 679.549 229.154H677.115C675.119 229.154 673.766 229.583 673.055 230.439C672.344 231.296 671.988 232.882 671.988 235.197C671.988 237.512 672.344 239.103 673.055 239.969C673.766 240.826 675.119 241.254 677.115 241.254H679.836C681.404 241.254 682.52 240.534 683.186 239.094C683.65 238.082 684.307 237.576 685.154 237.576H686.781C687.21 237.576 687.547 237.736 687.793 238.055C688.048 238.374 688.176 238.72 688.176 239.094C688.176 240.962 687.383 242.434 685.797 243.51C684.211 244.576 682.383 245.109 680.314 245.109H676.979C673.597 245.109 671.059 244.303 669.363 242.689ZM691.854 243.305C690.432 241.992 689.721 240.06 689.721 237.508C689.721 234.947 690.432 233.014 691.854 231.711C693.275 230.398 695.317 229.742 697.979 229.742C700.649 229.742 702.695 230.398 704.117 231.711C705.539 233.014 706.25 234.947 706.25 237.508C706.25 240.06 705.539 241.992 704.117 243.305C702.695 244.617 700.649 245.273 697.979 245.273C695.317 245.273 693.275 244.617 691.854 243.305ZM695.312 233.953C694.747 234.691 694.465 235.872 694.465 237.494C694.465 239.117 694.747 240.301 695.312 241.049C695.878 241.796 696.766 242.17 697.979 242.17C699.2 242.17 700.093 241.796 700.658 241.049C701.232 240.301 701.52 239.117 701.52 237.494C701.52 235.872 701.232 234.691 700.658 233.953C700.093 233.215 699.2 232.846 697.979 232.846C696.766 232.846 695.878 233.215 695.312 233.953ZM708.779 244.166V230.863C708.779 230.617 708.857 230.417 709.012 230.262C709.176 230.098 709.376 230.016 709.613 230.016H712.676C712.922 230.016 713.122 230.098 713.277 230.262C713.432 230.417 713.51 230.617 713.51 230.863V231.725C714.166 231.087 714.809 230.599 715.438 230.262C716.076 229.915 716.841 229.742 717.734 229.742C719.858 229.742 721.467 230.617 722.561 232.367C724.256 230.608 725.992 229.733 727.77 229.742C729.556 229.742 730.964 230.28 731.994 231.355C733.033 232.422 733.553 234.076 733.553 236.318V244.166C733.553 244.412 733.475 244.613 733.32 244.768C733.165 244.923 732.965 245 732.719 245H729.67C729.424 245 729.219 244.923 729.055 244.768C728.9 244.604 728.822 244.403 728.822 244.166V236.318C728.822 234.131 728.029 233.042 726.443 233.051C725.477 233.051 724.479 233.748 723.449 235.143C723.504 235.535 723.531 235.926 723.531 236.318V244.166C723.531 244.412 723.449 244.613 723.285 244.768C723.13 244.923 722.934 245 722.697 245H719.648C719.402 245 719.197 244.923 719.033 244.768C718.878 244.604 718.801 244.403 718.801 244.166V236.318C718.801 234.131 718.008 233.042 716.422 233.051C715.41 233.051 714.439 233.702 713.51 235.006V244.166C713.51 244.412 713.428 244.613 713.264 244.768C713.109 244.923 712.913 245 712.676 245H709.613C709.367 245 709.167 244.923 709.012 244.768C708.857 244.613 708.779 244.412 708.779 244.166ZM736.916 244.166V230.863C736.916 230.617 736.993 230.417 737.148 230.262C737.312 230.098 737.513 230.016 737.75 230.016H740.812C741.059 230.016 741.259 230.098 741.414 230.262C741.569 230.417 741.646 230.617 741.646 230.863V231.725C742.303 231.087 742.945 230.599 743.574 230.262C744.212 229.915 744.978 229.742 745.871 229.742C747.995 229.742 749.604 230.617 750.697 232.367C752.393 230.608 754.129 229.733 755.906 229.742C757.693 229.742 759.101 230.28 760.131 231.355C761.17 232.422 761.689 234.076 761.689 236.318V244.166C761.689 244.412 761.612 244.613 761.457 244.768C761.302 244.923 761.102 245 760.855 245H757.807C757.561 245 757.355 244.923 757.191 244.768C757.036 244.604 756.959 244.403 756.959 244.166V236.318C756.959 234.131 756.166 233.042 754.58 233.051C753.614 233.051 752.616 233.748 751.586 235.143C751.641 235.535 751.668 235.926 751.668 236.318V244.166C751.668 244.412 751.586 244.613 751.422 244.768C751.267 244.923 751.071 245 750.834 245H747.785C747.539 245 747.334 244.923 747.17 244.768C747.015 244.604 746.938 244.403 746.938 244.166V236.318C746.938 234.131 746.145 233.042 744.559 233.051C743.547 233.051 742.576 233.702 741.646 235.006V244.166C741.646 244.412 741.564 244.613 741.4 244.768C741.245 244.923 741.049 245 740.812 245H737.75C737.504 245 737.303 244.923 737.148 244.768C736.993 244.613 736.916 244.412 736.916 244.166ZM765.053 238.697V230.863C765.053 230.617 765.13 230.417 765.285 230.262C765.449 230.098 765.65 230.016 765.887 230.016H768.949C769.186 230.016 769.382 230.098 769.537 230.262C769.701 230.417 769.783 230.617 769.783 230.863V238.697C769.783 240.885 770.649 241.979 772.381 241.979C773.52 241.979 774.746 241.322 776.059 240.01V230.863C776.059 230.617 776.136 230.417 776.291 230.262C776.455 230.098 776.656 230.016 776.893 230.016H779.941C780.188 230.016 780.388 230.098 780.543 230.262C780.707 230.417 780.789 230.617 780.789 230.863V244.166C780.789 244.403 780.707 244.604 780.543 244.768C780.388 244.923 780.188 245 779.941 245H776.893C776.656 245 776.455 244.923 776.291 244.768C776.136 244.604 776.059 244.403 776.059 244.166V243.291C774.491 244.613 772.818 245.273 771.041 245.273C769.273 245.273 767.833 244.736 766.721 243.66C765.609 242.576 765.053 240.921 765.053 238.697ZM784.166 244.166V230.863C784.166 230.617 784.243 230.417 784.398 230.262C784.562 230.098 784.763 230.016 785 230.016H788.062C788.299 230.016 788.495 230.098 788.65 230.262C788.814 230.417 788.896 230.617 788.896 230.863V231.725C790.464 230.403 792.132 229.742 793.9 229.742C795.678 229.742 797.122 230.285 798.234 231.369C799.346 232.445 799.902 234.094 799.902 236.318V244.166C799.902 244.403 799.82 244.604 799.656 244.768C799.501 244.923 799.301 245 799.055 245H796.006C795.769 245 795.568 244.923 795.404 244.768C795.249 244.604 795.172 244.403 795.172 244.166V236.318C795.172 234.14 794.301 233.051 792.561 233.051C791.421 233.051 790.2 233.702 788.896 235.006V244.166C788.896 244.403 788.814 244.604 788.65 244.768C788.495 244.923 788.299 245 788.062 245H785C784.763 245 784.562 244.923 784.398 244.768C784.243 244.604 784.166 244.403 784.166 244.166ZM803.279 227.158V226.693C803.279 226.21 803.416 225.827 803.689 225.545C803.972 225.262 804.359 225.121 804.852 225.121H806.547C807.03 225.121 807.413 225.262 807.695 225.545C807.978 225.818 808.119 226.201 808.119 226.693V227.158C808.119 227.641 807.978 228.024 807.695 228.307C807.422 228.589 807.039 228.73 806.547 228.73H804.852C804.368 228.73 803.986 228.589 803.703 228.307C803.421 228.024 803.279 227.641 803.279 227.158ZM803.334 244.166V231.191C803.334 230.945 803.411 230.745 803.566 230.59C803.73 230.435 803.931 230.357 804.168 230.357H807.23C807.477 230.357 807.677 230.439 807.832 230.604C807.987 230.758 808.064 230.954 808.064 231.191V244.166C808.064 244.412 807.982 244.613 807.818 244.768C807.663 244.923 807.467 245 807.23 245H804.168C803.922 245 803.721 244.923 803.566 244.768C803.411 244.613 803.334 244.412 803.334 244.166ZM818.619 242.033L820.492 241.869H820.998C821.244 241.869 821.445 241.947 821.6 242.102C821.764 242.257 821.846 242.457 821.846 242.703V244.166C821.846 244.367 821.764 244.549 821.6 244.713C821.445 244.868 821.244 244.964 820.998 245C820.068 245.182 818.856 245.273 817.361 245.273C813.442 245.273 811.482 243.223 811.482 239.121V226.242C811.482 225.996 811.56 225.796 811.715 225.641C811.879 225.477 812.079 225.395 812.316 225.395H815.379C815.616 225.395 815.812 225.477 815.967 225.641C816.131 225.796 816.213 225.996 816.213 226.242V230.809H820.027C820.264 230.809 820.46 230.886 820.615 231.041C820.779 231.196 820.861 231.396 820.861 231.643V233.27C820.861 233.516 820.779 233.716 820.615 233.871C820.46 234.026 820.264 234.104 820.027 234.104H816.213V239.121C816.213 240.051 816.432 240.771 816.869 241.281C817.307 241.783 817.89 242.033 818.619 242.033ZM826.727 246.422L828.518 246.654C829.803 246.654 830.701 245.711 831.211 243.824C829.661 243.824 828.367 243.359 827.328 242.43C826.289 241.491 825.396 239.827 824.648 237.439L822.611 230.836C822.584 230.763 822.57 230.681 822.57 230.59C822.57 230.49 822.625 230.371 822.734 230.234C822.853 230.098 823.026 230.025 823.254 230.016H826.111C826.376 230.016 826.626 230.107 826.863 230.289C827.109 230.462 827.269 230.681 827.342 230.945L829.133 236.742C829.579 238.164 830.031 239.148 830.486 239.695C830.951 240.242 831.498 240.516 832.127 240.516L834.848 230.945C834.921 230.681 835.062 230.462 835.271 230.289C835.49 230.107 835.732 230.016 835.996 230.016H838.881C839.109 230.016 839.277 230.089 839.387 230.234C839.496 230.38 839.551 230.503 839.551 230.604C839.551 230.695 839.542 230.772 839.523 230.836L835.941 243.605C835.303 245.866 834.51 247.479 833.562 248.445C832.624 249.411 831.411 249.895 829.926 249.895C828.44 249.895 827.387 249.84 826.768 249.73C826.157 249.621 825.774 249.484 825.619 249.32C825.464 249.165 825.387 248.983 825.387 248.773V247.27C825.387 247.023 825.464 246.818 825.619 246.654C825.774 246.499 825.975 246.422 826.221 246.422H826.727Z" fill="white"/>
</g>
<g filter="url(#filter4_d_816_323)">
<path d="M236.938 29.3097C236.938 17.6766 227.507 8.24609 215.874 8.24609L23.0652 8.24609C11.4321 8.24609 2.00162 17.6766 2.00162 29.3097V66.0895C2.00162 77.7226 11.4321 87.1531 23.0652 87.1531L236.938 87.1531L236.938 29.3097Z" fill="#888CF4"/>
<path d="M342 100.327C342 88.6942 332.57 79.2637 320.936 79.2637L107.064 79.2637V137.107C107.064 148.74 116.495 158.171 128.128 158.171L320.936 158.171C332.57 158.171 342 148.74 342 137.107V100.327Z" fill="#888CF4"/>
<path d="M53.7758 51.6348V34.6133C53.7758 34.2578 53.8989 33.9525 54.145 33.6973C54.391 33.4421 54.6918 33.3145 55.0473 33.3145H65.4789C70.9933 33.3145 73.7504 35.8574 73.7504 40.9434C73.7504 46.0202 70.9933 48.5586 65.4789 48.5586H58.9301V51.6348C58.9301 51.9902 58.8025 52.2956 58.5473 52.5508C58.3012 52.7969 58.0004 52.9199 57.645 52.9199H55.0746C54.7192 52.9199 54.4138 52.7969 54.1586 52.5508C53.9034 52.2956 53.7758 51.9902 53.7758 51.6348ZM58.9301 44.6895H63.9203C65.4516 44.6895 66.6137 44.4342 67.4067 43.9238C68.1996 43.4043 68.5961 42.4108 68.5961 40.9434C68.5961 39.4668 68.1996 38.4733 67.4067 37.9629C66.6137 37.4434 65.4516 37.1836 63.9203 37.1836H58.9301V44.6895ZM86.3696 41.4082L84.2641 41.3262C83.0336 41.3262 81.8578 42.0007 80.7367 43.3496V52.0859C80.7367 52.332 80.6547 52.5326 80.4907 52.6875C80.3357 52.8424 80.1397 52.9199 79.9028 52.9199H76.8403C76.5942 52.9199 76.3936 52.8424 76.2387 52.6875C76.0838 52.5326 76.0063 52.332 76.0063 52.0859V38.7832C76.0063 38.5371 76.0838 38.3366 76.2387 38.1816C76.4028 38.0176 76.6033 37.9355 76.8403 37.9355H79.9028C80.1489 37.9355 80.3494 38.0176 80.5043 38.1816C80.6593 38.3366 80.7367 38.5371 80.7367 38.7832V39.6445C81.6664 38.9701 82.5597 38.4733 83.4164 38.1543C84.2823 37.8262 85.4125 37.6621 86.8071 37.6621C87.0532 37.6621 87.2537 37.7441 87.4086 37.9082C87.5727 38.0632 87.6547 38.2591 87.6547 38.4961V40.5742C87.6547 40.8203 87.5727 41.0208 87.4086 41.1758C87.2537 41.3307 87.0532 41.4082 86.8071 41.4082H86.3696ZM90.9086 51.2246C89.4867 49.9121 88.7758 47.9798 88.7758 45.4277C88.7758 42.8665 89.4867 40.9342 90.9086 39.6309C92.3305 38.3184 94.3722 37.6621 97.0336 37.6621C99.7042 37.6621 101.75 38.3184 103.172 39.6309C104.594 40.9342 105.305 42.8665 105.305 45.4277C105.305 47.9798 104.594 49.9121 103.172 51.2246C101.75 52.5371 99.7042 53.1934 97.0336 53.1934C94.3722 53.1934 92.3305 52.5371 90.9086 51.2246ZM94.3676 41.873C93.8025 42.6113 93.52 43.7917 93.52 45.4141C93.52 47.0365 93.8025 48.2214 94.3676 48.9688C94.9327 49.7161 95.8214 50.0898 97.0336 50.0898C98.255 50.0898 99.1482 49.7161 99.7133 48.9688C100.288 48.2214 100.575 47.0365 100.575 45.4141C100.575 43.7917 100.288 42.6113 99.7133 41.873C99.1482 41.1348 98.255 40.7656 97.0336 40.7656C95.8214 40.7656 94.9327 41.1348 94.3676 41.873ZM113.905 51.7715C111.836 51.7715 110.163 51.1471 108.887 49.8984C107.62 48.6497 106.987 46.918 106.987 44.7031C106.987 42.4883 107.711 40.7611 109.161 39.5215C110.61 38.2819 112.688 37.6621 115.395 37.6621C116.717 37.6621 118.088 37.8125 119.51 38.1133C120.932 38.4049 122.003 38.765 122.723 39.1934V51.8535C122.723 53.8861 122.053 55.3854 120.713 56.3516C119.373 57.3268 117.491 57.8145 115.067 57.8145C112.651 57.8145 110.788 57.5091 109.475 56.8984C108.172 56.2969 107.52 55.2988 107.52 53.9043C107.52 53.6582 107.597 53.4531 107.752 53.2891C107.916 53.1341 108.122 53.0566 108.368 53.0566H110.405C111.061 53.0566 111.585 53.2982 111.977 53.7812C112.478 54.401 113.367 54.7109 114.643 54.7109C115.928 54.7109 116.808 54.5013 117.282 54.082C117.756 53.6628 117.993 52.9199 117.993 51.8535V51.2109C116.534 51.5846 115.172 51.7715 113.905 51.7715ZM115.108 40.9707C112.948 40.9616 111.868 42.2103 111.868 44.7168C111.868 47.2142 112.92 48.4629 115.026 48.4629C115.901 48.4629 116.89 48.3262 117.993 48.0527V41.2715C117.209 41.0618 116.247 40.9616 115.108 40.9707ZM136.463 41.4082L134.358 41.3262C133.127 41.3262 131.952 42.0007 130.83 43.3496V52.0859C130.83 52.332 130.748 52.5326 130.584 52.6875C130.429 52.8424 130.233 52.9199 129.997 52.9199H126.934C126.688 52.9199 126.487 52.8424 126.332 52.6875C126.178 52.5326 126.1 52.332 126.1 52.0859V38.7832C126.1 38.5371 126.178 38.3366 126.332 38.1816C126.497 38.0176 126.697 37.9355 126.934 37.9355H129.997C130.243 37.9355 130.443 38.0176 130.598 38.1816C130.753 38.3366 130.83 38.5371 130.83 38.7832V39.6445C131.76 38.9701 132.653 38.4733 133.51 38.1543C134.376 37.8262 135.506 37.6621 136.901 37.6621C137.147 37.6621 137.347 37.7441 137.502 37.9082C137.666 38.0632 137.748 38.2591 137.748 38.4961V40.5742C137.748 40.8203 137.666 41.0208 137.502 41.1758C137.347 41.3307 137.147 41.4082 136.901 41.4082H136.463ZM140.838 51.1973C139.435 49.8665 138.733 47.9525 138.733 45.4551C138.733 42.9486 139.439 41.0254 140.852 39.6855C142.265 38.3366 144.224 37.6621 146.731 37.6621C149.237 37.6621 151.192 38.3184 152.596 39.6309C154 40.9342 154.702 42.8073 154.702 45.25V46.0293C154.702 46.2754 154.62 46.4805 154.455 46.6445C154.301 46.7995 154.1 46.877 153.854 46.877H143.559C143.65 47.998 143.969 48.8138 144.516 49.3242C145.072 49.8346 145.956 50.0898 147.168 50.0898C148.381 50.0898 149.21 49.8164 149.657 49.2695C150.103 48.7227 150.655 48.4447 151.311 48.4355H153.348C153.594 48.4355 153.795 48.5176 153.95 48.6816C154.114 48.8366 154.196 49.0371 154.196 49.2832C154.196 51.8991 151.703 53.2025 146.717 53.1934C144.202 53.1934 142.242 52.528 140.838 51.1973ZM143.532 43.9922H149.889C149.798 41.8411 148.741 40.7656 146.717 40.7656C144.703 40.7656 143.641 41.8411 143.532 43.9922ZM156.37 42.0781C156.37 39.1341 158.744 37.6621 163.493 37.6621C168.487 37.6621 170.985 38.9701 170.985 41.5859C170.985 41.8229 170.907 42.0234 170.752 42.1875C170.597 42.3424 170.397 42.4199 170.151 42.4199H168.114C167.457 42.4199 166.906 42.1465 166.459 41.5996C166.013 41.0436 165.133 40.7656 163.821 40.7656C162.016 40.7656 161.114 41.2031 161.114 42.0781C161.114 42.4883 161.465 42.8301 162.166 43.1035C162.877 43.377 163.739 43.6185 164.75 43.8281C165.771 44.0286 166.788 44.2884 167.799 44.6074C168.811 44.9264 169.668 45.4368 170.37 46.1387C171.08 46.8314 171.436 47.7109 171.436 48.7773C171.436 51.7214 168.929 53.1934 163.916 53.1934C158.903 53.1934 156.397 51.89 156.397 49.2832C156.397 49.0371 156.474 48.8366 156.629 48.6816C156.793 48.5176 156.998 48.4355 157.245 48.4355H159.282C159.938 48.4355 160.489 48.7135 160.936 49.2695C161.383 49.8164 162.262 50.0898 163.575 50.0898C165.662 50.0898 166.705 49.6523 166.705 48.7773C166.705 48.3672 166.35 48.0254 165.639 47.752C164.937 47.4785 164.076 47.237 163.055 47.0273C162.034 46.8086 161.018 46.5443 160.006 46.2344C159.004 45.9154 158.147 45.4049 157.436 44.7031C156.725 44.0013 156.37 43.1263 156.37 42.0781ZM173.131 42.0781C173.131 39.1341 175.506 37.6621 180.254 37.6621C185.249 37.6621 187.747 38.9701 187.747 41.5859C187.747 41.8229 187.669 42.0234 187.514 42.1875C187.359 42.3424 187.159 42.4199 186.913 42.4199H184.875C184.219 42.4199 183.668 42.1465 183.221 41.5996C182.775 41.0436 181.895 40.7656 180.582 40.7656C178.778 40.7656 177.875 41.2031 177.875 42.0781C177.875 42.4883 178.226 42.8301 178.928 43.1035C179.639 43.377 180.5 43.6185 181.512 43.8281C182.533 44.0286 183.549 44.2884 184.561 44.6074C185.573 44.9264 186.429 45.4368 187.131 46.1387C187.842 46.8314 188.198 47.7109 188.198 48.7773C188.198 51.7214 185.691 53.1934 180.678 53.1934C175.665 53.1934 173.159 51.89 173.159 49.2832C173.159 49.0371 173.236 48.8366 173.391 48.6816C173.555 48.5176 173.76 48.4355 174.006 48.4355H176.043C176.7 48.4355 177.251 48.7135 177.698 49.2695C178.144 49.8164 179.024 50.0898 180.336 50.0898C182.424 50.0898 183.467 49.6523 183.467 48.7773C183.467 48.3672 183.112 48.0254 182.401 47.752C181.699 47.4785 180.838 47.237 179.817 47.0273C178.796 46.8086 177.78 46.5443 176.768 46.2344C175.765 45.9154 174.909 45.4049 174.198 44.7031C173.487 44.0013 173.131 43.1263 173.131 42.0781Z" fill="white"/>
<path d="M170.636 121.816L172.509 121.652H173.015C173.261 121.652 173.462 121.73 173.617 121.885C173.781 122.04 173.863 122.24 173.863 122.486V123.949C173.863 124.15 173.781 124.332 173.617 124.496C173.462 124.651 173.261 124.747 173.015 124.783C172.086 124.965 170.873 125.057 169.378 125.057C165.459 125.057 163.5 123.006 163.5 118.904V106.025C163.5 105.779 163.577 105.579 163.732 105.424C163.896 105.26 164.097 105.178 164.334 105.178H167.396C167.633 105.178 167.829 105.26 167.984 105.424C168.148 105.579 168.23 105.779 168.23 106.025V110.592H172.044C172.281 110.592 172.477 110.669 172.632 110.824C172.796 110.979 172.878 111.18 172.878 111.426V113.053C172.878 113.299 172.796 113.499 172.632 113.654C172.477 113.809 172.281 113.887 172.044 113.887H168.23V118.904C168.23 119.834 168.449 120.554 168.886 121.064C169.324 121.566 169.907 121.816 170.636 121.816ZM186.468 113.271L184.363 113.189C183.132 113.189 181.957 113.864 180.836 115.213V123.949C180.836 124.195 180.753 124.396 180.589 124.551C180.434 124.706 180.238 124.783 180.002 124.783H176.939C176.693 124.783 176.492 124.706 176.337 124.551C176.183 124.396 176.105 124.195 176.105 123.949V110.646C176.105 110.4 176.183 110.2 176.337 110.045C176.502 109.881 176.702 109.799 176.939 109.799H180.002C180.248 109.799 180.448 109.881 180.603 110.045C180.758 110.2 180.836 110.4 180.836 110.646V111.508C181.765 110.833 182.658 110.337 183.515 110.018C184.381 109.689 185.511 109.525 186.906 109.525C187.152 109.525 187.352 109.607 187.507 109.771C187.671 109.926 187.753 110.122 187.753 110.359V112.438C187.753 112.684 187.671 112.884 187.507 113.039C187.352 113.194 187.152 113.271 186.906 113.271H186.468ZM190.406 123.799C189.203 122.96 188.601 121.775 188.601 120.244C188.601 118.713 189.203 117.537 190.406 116.717C191.618 115.896 193.177 115.486 195.082 115.486H199.607C199.607 114.42 199.384 113.677 198.937 113.258C198.49 112.839 197.707 112.629 196.586 112.629C195.474 112.629 194.69 112.907 194.234 113.463C193.787 114.01 193.236 114.283 192.58 114.283H190.543C190.296 114.283 190.091 114.206 189.927 114.051C189.772 113.887 189.695 113.686 189.695 113.449C189.695 110.833 192.179 109.525 197.146 109.525C199.315 109.525 201.056 110.013 202.369 110.988C203.681 111.954 204.337 113.454 204.337 115.486V123.949C204.337 124.195 204.26 124.396 204.105 124.551C203.95 124.706 203.75 124.783 203.503 124.783H200.865C200.619 124.783 200.418 124.706 200.263 124.551C200.108 124.387 200.031 124.186 200.031 123.949V123.525C198.591 124.555 196.927 125.066 195.041 125.057C193.163 125.057 191.618 124.637 190.406 123.799ZM195.41 118.59C194.772 118.59 194.266 118.745 193.892 119.055C193.528 119.365 193.345 119.766 193.345 120.258C193.345 120.75 193.537 121.156 193.919 121.475C194.302 121.794 194.845 121.953 195.546 121.953C196.95 121.953 198.304 121.543 199.607 120.723V118.59H195.41ZM214.961 125.057C212.408 125.057 210.421 124.4 209 123.088C207.578 121.775 206.867 119.848 206.867 117.305C206.867 114.753 207.573 112.82 208.986 111.508C210.399 110.186 212.363 109.525 214.878 109.525C217.403 109.525 219.34 109.926 220.689 110.729C222.047 111.531 222.726 112.715 222.726 114.283C222.726 114.529 222.644 114.73 222.48 114.885C222.325 115.04 222.125 115.117 221.878 115.117H219.841C219.222 115.117 218.697 114.785 218.269 114.119C217.731 113.262 216.779 112.834 215.412 112.834C214.054 112.834 213.101 113.185 212.554 113.887C212.016 114.579 211.748 115.714 211.748 117.291C211.748 118.868 212.026 120.007 212.582 120.709C213.147 121.411 214.122 121.762 215.507 121.762C216.902 121.762 217.868 121.333 218.406 120.477C218.834 119.802 219.358 119.465 219.978 119.465H222.015C222.261 119.465 222.462 119.547 222.617 119.711C222.781 119.866 222.863 120.062 222.863 120.299C222.863 121.867 222.184 123.051 220.826 123.854C219.477 124.656 217.522 125.057 214.961 125.057ZM240.212 124.182C240.212 124.583 239.975 124.783 239.502 124.783H236.918C236.043 124.783 235.345 124.355 234.826 123.498L233.089 120.668C232.342 119.456 231.257 118.85 229.836 118.85V123.949C229.836 124.195 229.753 124.396 229.589 124.551C229.434 124.706 229.238 124.783 229.002 124.783H225.939C225.693 124.783 225.492 124.706 225.337 124.551C225.183 124.396 225.105 124.195 225.105 123.949V106.025C225.105 105.779 225.183 105.579 225.337 105.424C225.502 105.26 225.702 105.178 225.939 105.178H229.002C229.248 105.178 229.448 105.26 229.603 105.424C229.758 105.579 229.836 105.779 229.836 106.025V115.732C231.421 115.732 232.506 115.117 233.089 113.887L234.402 111.098C234.584 110.706 234.853 110.391 235.209 110.154C235.564 109.917 235.947 109.799 236.357 109.799H238.941C239.397 109.799 239.625 109.977 239.625 110.332C239.625 110.533 239.552 110.788 239.406 111.098L237.642 114.816C237.341 115.436 236.931 115.969 236.412 116.416C235.892 116.863 235.332 117.15 234.73 117.277C235.851 117.615 236.822 118.435 237.642 119.738L239.966 123.498C240.121 123.762 240.203 123.99 240.212 124.182ZM242.195 106.941V106.477C242.195 105.993 242.332 105.611 242.605 105.328C242.888 105.046 243.275 104.904 243.767 104.904H245.462C245.946 104.904 246.328 105.046 246.611 105.328C246.893 105.602 247.035 105.984 247.035 106.477V106.941C247.035 107.424 246.893 107.807 246.611 108.09C246.337 108.372 245.955 108.514 245.462 108.514H243.767C243.284 108.514 242.901 108.372 242.619 108.09C242.336 107.807 242.195 107.424 242.195 106.941ZM242.25 123.949V110.975C242.25 110.729 242.327 110.528 242.482 110.373C242.646 110.218 242.847 110.141 243.084 110.141H246.146C246.392 110.141 246.593 110.223 246.748 110.387C246.903 110.542 246.98 110.738 246.98 110.975V123.949C246.98 124.195 246.898 124.396 246.734 124.551C246.579 124.706 246.383 124.783 246.146 124.783H243.084C242.837 124.783 242.637 124.706 242.482 124.551C242.327 124.396 242.25 124.195 242.25 123.949ZM250.398 123.949V110.646C250.398 110.4 250.475 110.2 250.63 110.045C250.794 109.881 250.995 109.799 251.232 109.799H254.294C254.531 109.799 254.727 109.881 254.882 110.045C255.046 110.2 255.128 110.4 255.128 110.646V111.508C256.696 110.186 258.364 109.525 260.132 109.525C261.91 109.525 263.354 110.068 264.466 111.152C265.578 112.228 266.134 113.878 266.134 116.102V123.949C266.134 124.186 266.052 124.387 265.888 124.551C265.733 124.706 265.533 124.783 265.287 124.783H262.238C262.001 124.783 261.8 124.706 261.636 124.551C261.481 124.387 261.404 124.186 261.404 123.949V116.102C261.404 113.923 260.533 112.834 258.793 112.834C257.653 112.834 256.432 113.486 255.128 114.789V123.949C255.128 124.186 255.046 124.387 254.882 124.551C254.727 124.706 254.531 124.783 254.294 124.783H251.232C250.995 124.783 250.794 124.706 250.63 124.551C250.475 124.387 250.398 124.186 250.398 123.949ZM275.582 123.635C273.513 123.635 271.84 123.01 270.564 121.762C269.297 120.513 268.664 118.781 268.664 116.566C268.664 114.352 269.388 112.624 270.837 111.385C272.287 110.145 274.365 109.525 277.072 109.525C278.393 109.525 279.765 109.676 281.187 109.977C282.609 110.268 283.68 110.628 284.4 111.057V123.717C284.4 125.749 283.73 127.249 282.39 128.215C281.05 129.19 279.168 129.678 276.744 129.678C274.328 129.678 272.464 129.372 271.152 128.762C269.849 128.16 269.197 127.162 269.197 125.768C269.197 125.521 269.274 125.316 269.429 125.152C269.593 124.997 269.798 124.92 270.044 124.92H272.082C272.738 124.92 273.262 125.161 273.654 125.645C274.155 126.264 275.044 126.574 276.32 126.574C277.605 126.574 278.485 126.365 278.959 125.945C279.433 125.526 279.669 124.783 279.669 123.717V123.074C278.211 123.448 276.849 123.635 275.582 123.635ZM276.785 112.834C274.625 112.825 273.544 114.074 273.544 116.58C273.544 119.077 274.597 120.326 276.703 120.326C277.578 120.326 278.567 120.189 279.669 119.916V113.135C278.886 112.925 277.924 112.825 276.785 112.834Z" fill="white"/>
</g>
<defs>
<filter id="filter0_d_816_323" x="69" y="205.246" width="243.133" height="70.9082" filterUnits="userSpaceOnUse" color-interpolation-filters="sRGB">
<feFlood flood-opacity="0" result="BackgroundImageFix"/>
<feColorMatrix in="SourceAlpha" type="matrix" values="0 0 0 0 0 0 0 0 0 0 0 0 0 0 0 0 0 0 127 0" result="hardAlpha"/>
<feOffset dy="2"/>
<feGaussianBlur stdDeviation="1"/>
<feComposite in2="hardAlpha" operator="out"/>
<feColorMatrix type="matrix" values="0 0 0 0 0.702999 0 0 0 0 0.675977 0 0 0 0 0.675977 0 0 0 0.52 0"/>
<feBlend mode="normal" in2="BackgroundImageFix" result="effect1_dropShadow_816_323"/>
<feBlend mode="normal" in="SourceGraphic" in2="effect1_dropShadow_816_323" result="shape"/>
</filter>
<filter id="filter1_d_816_323" x="369.77" y="75.4746" width="233.221" height="203.484" filterUnits="userSpaceOnUse" color-interpolation-filters="sRGB">
<feFlood flood-opacity="0" result="BackgroundImageFix"/>
<feColorMatrix in="SourceAlpha" type="matrix" values="0 0 0 0 0 0 0 0 0 0 0 0 0 0 0 0 0 0 127 0" result="hardAlpha"/>
<feOffset dy="2"/>
<feGaussianBlur stdDeviation="1"/>
<feComposite in2="hardAlpha" operator="out"/>
<feColorMatrix type="matrix" values="0 0 0 0 0.702999 0 0 0 0 0.675977 0 0 0 0 0.675977 0 0 0 0.52 0"/>
<feBlend mode="normal" in2="BackgroundImageFix" result="effect1_dropShadow_816_323"/>
<feBlend mode="normal" in="SourceGraphic" in2="effect1_dropShadow_816_323" result="shape"/>
</filter>
<filter id="filter2_d_816_323" x="533" y="0" width="322.756" height="148.969" filterUnits="userSpaceOnUse" color-interpolation-filters="sRGB">
<feFlood flood-opacity="0" result="BackgroundImageFix"/>
<feColorMatrix in="SourceAlpha" type="matrix" values="0 0 0 0 0 0 0 0 0 0 0 0 0 0 0 0 0 0 127 0" result="hardAlpha"/>
<feOffset dy="2"/>
<feGaussianBlur stdDeviation="1"/>
<feComposite in2="hardAlpha" operator="out"/>
<feColorMatrix type="matrix" values="0 0 0 0 0.702999 0 0 0 0 0.675977 0 0 0 0 0.675977 0 0 0 0.52 0"/>
<feBlend mode="normal" in2="BackgroundImageFix" result="effect1_dropShadow_816_323"/>
<feBlend mode="normal" in="SourceGraphic" in2="effect1_dropShadow_816_323" result="shape"/>
</filter>
<filter id="filter3_d_816_323" x="626" y="127.246" width="254" height="152" filterUnits="userSpaceOnUse" color-interpolation-filters="sRGB">
<feFlood flood-opacity="0" result="BackgroundImageFix"/>
<feColorMatrix in="SourceAlpha" type="matrix" values="0 0 0 0 0 0 0 0 0 0 0 0 0 0 0 0 0 0 127 0" result="hardAlpha"/>
<feOffset dy="2"/>
<feGaussianBlur stdDeviation="1"/>
<feComposite in2="hardAlpha" operator="out"/>
<feColorMatrix type="matrix" values="0 0 0 0 0.702999 0 0 0 0 0.675977 0 0 0 0 0.675977 0 0 0 0.52 0"/>
<feBlend mode="normal" in2="BackgroundImageFix" result="effect1_dropShadow_816_323"/>
<feBlend mode="normal" in="SourceGraphic" in2="effect1_dropShadow_816_323" result="shape"/>
</filter>
<filter id="filter4_d_816_323" x="0.00195312" y="8.24609" width="343.998" height="153.924" filterUnits="userSpaceOnUse" color-interpolation-filters="sRGB">
<feFlood flood-opacity="0" result="BackgroundImageFix"/>
<feColorMatrix in="SourceAlpha" type="matrix" values="0 0 0 0 0 0 0 0 0 0 0 0 0 0 0 0 0 0 127 0" result="hardAlpha"/>
<feOffset dy="2"/>
<feGaussianBlur stdDeviation="1"/>
<feComposite in2="hardAlpha" operator="out"/>
<feColorMatrix type="matrix" values="0 0 0 0 0.702999 0 0 0 0 0.675977 0 0 0 0 0.675977 0 0 0 0.52 0"/>
<feBlend mode="normal" in2="BackgroundImageFix" result="effect1_dropShadow_816_323"/>
<feBlend mode="normal" in="SourceGraphic" in2="effect1_dropShadow_816_323" result="shape"/>
</filter>
</defs>
</svg>
