<svg width="325" height="267" viewBox="0 0 325 267" fill="none" xmlns="http://www.w3.org/2000/svg">
<rect x="171" y="217" width="153.779" height="49.0263" rx="13.5453" fill="#F6C345"/>
<path d="M195.411 235.135C195.376 235.064 195.358 234.988 195.358 234.906C195.358 234.818 195.411 234.713 195.517 234.59C195.628 234.461 195.783 234.396 195.982 234.396H197.907C198.364 234.396 198.713 234.675 198.953 235.231L202.354 242.808L205.756 235.231C205.996 234.681 206.345 234.402 206.802 234.396H208.727C208.932 234.396 209.087 234.461 209.192 234.59C209.298 234.713 209.351 234.818 209.351 234.906C209.351 234.988 209.336 235.064 209.307 235.135L204.244 246.104C203.969 246.701 203.55 247 202.987 247H201.722C201.159 247 200.74 246.701 200.465 246.104L195.411 235.135ZM210.827 245.91C209.913 245.066 209.456 243.824 209.456 242.184C209.456 240.537 209.913 239.295 210.827 238.457C211.741 237.613 213.054 237.191 214.765 237.191C216.481 237.191 217.797 237.613 218.711 238.457C219.625 239.295 220.082 240.537 220.082 242.184C220.082 243.824 219.625 245.066 218.711 245.91C217.797 246.754 216.481 247.176 214.765 247.176C213.054 247.176 211.741 246.754 210.827 245.91ZM213.051 239.898C212.688 240.373 212.506 241.132 212.506 242.175C212.506 243.218 212.688 243.979 213.051 244.46C213.414 244.94 213.985 245.181 214.765 245.181C215.55 245.181 216.124 244.94 216.487 244.46C216.856 243.979 217.041 243.218 217.041 242.175C217.041 241.132 216.856 240.373 216.487 239.898C216.124 239.424 215.55 239.187 214.765 239.187C213.985 239.187 213.414 239.424 213.051 239.898ZM226.366 247.176C224.726 247.176 223.448 246.754 222.534 245.91C221.62 245.066 221.163 243.827 221.163 242.192C221.163 240.552 221.617 239.31 222.525 238.466C223.434 237.616 224.696 237.191 226.313 237.191C227.937 237.191 229.182 237.449 230.049 237.965C230.922 238.48 231.358 239.242 231.358 240.25C231.358 240.408 231.306 240.537 231.2 240.637C231.101 240.736 230.972 240.786 230.813 240.786H229.504C229.105 240.786 228.769 240.572 228.493 240.145C228.147 239.594 227.535 239.318 226.656 239.318C225.783 239.318 225.171 239.544 224.819 239.995C224.474 240.44 224.301 241.17 224.301 242.184C224.301 243.197 224.479 243.93 224.837 244.381C225.2 244.832 225.827 245.058 226.718 245.058C227.614 245.058 228.235 244.782 228.581 244.231C228.856 243.798 229.193 243.581 229.592 243.581H230.901C231.06 243.581 231.188 243.634 231.288 243.739C231.394 243.839 231.446 243.965 231.446 244.117C231.446 245.125 231.01 245.887 230.137 246.402C229.27 246.918 228.013 247.176 226.366 247.176ZM233.503 246.367C232.729 245.828 232.343 245.066 232.343 244.082C232.343 243.098 232.729 242.342 233.503 241.814C234.282 241.287 235.284 241.023 236.509 241.023H239.418C239.418 240.338 239.274 239.86 238.987 239.591C238.7 239.321 238.196 239.187 237.476 239.187C236.761 239.187 236.257 239.365 235.964 239.723C235.677 240.074 235.322 240.25 234.9 240.25H233.591C233.433 240.25 233.301 240.2 233.195 240.101C233.096 239.995 233.046 239.866 233.046 239.714C233.046 238.032 234.643 237.191 237.836 237.191C239.23 237.191 240.35 237.505 241.193 238.132C242.037 238.753 242.459 239.717 242.459 241.023V246.464C242.459 246.622 242.409 246.751 242.31 246.851C242.21 246.95 242.081 247 241.923 247H240.227C240.068 247 239.939 246.95 239.84 246.851C239.74 246.745 239.69 246.616 239.69 246.464V246.191C238.765 246.854 237.695 247.182 236.482 247.176C235.275 247.176 234.282 246.906 233.503 246.367ZM236.72 243.019C236.31 243.019 235.984 243.118 235.744 243.317C235.51 243.517 235.393 243.774 235.393 244.091C235.393 244.407 235.516 244.668 235.762 244.873C236.008 245.078 236.356 245.181 236.808 245.181C237.71 245.181 238.58 244.917 239.418 244.39V243.019H236.72ZM244.63 234.941C244.63 234.783 244.68 234.654 244.779 234.555C244.885 234.449 245.014 234.396 245.166 234.396H247.135C247.287 234.396 247.413 234.449 247.513 234.555C247.618 234.654 247.671 234.783 247.671 234.941V237.64C248.62 237.341 249.467 237.191 250.211 237.191C251.652 237.191 252.798 237.622 253.647 238.483C254.497 239.339 254.922 240.575 254.922 242.192C254.922 245.515 253.062 247.176 249.341 247.176C248.491 247.176 247.609 247.082 246.695 246.895C245.787 246.701 245.099 246.467 244.63 246.191V234.941ZM247.671 239.67V244.855C248.175 244.99 248.816 245.058 249.596 245.058C250.375 245.058 250.935 244.832 251.274 244.381C251.62 243.93 251.793 243.2 251.793 242.192C251.793 241.185 251.623 240.455 251.283 240.004C250.949 239.547 250.381 239.318 249.578 239.318C249.062 239.318 248.427 239.436 247.671 239.67ZM256.548 242.948V237.912C256.548 237.754 256.598 237.625 256.697 237.525C256.803 237.42 256.932 237.367 257.084 237.367H259.053C259.205 237.367 259.331 237.42 259.431 237.525C259.536 237.625 259.589 237.754 259.589 237.912V242.948C259.589 244.354 260.146 245.058 261.259 245.058C261.991 245.058 262.779 244.636 263.623 243.792V237.912C263.623 237.754 263.673 237.625 263.772 237.525C263.878 237.42 264.007 237.367 264.159 237.367H266.119C266.277 237.367 266.406 237.42 266.506 237.525C266.611 237.625 266.664 237.754 266.664 237.912V246.464C266.664 246.616 266.611 246.745 266.506 246.851C266.406 246.95 266.277 247 266.119 247H264.159C264.007 247 263.878 246.95 263.772 246.851C263.673 246.745 263.623 246.616 263.623 246.464V245.901C262.615 246.751 261.54 247.176 260.397 247.176C259.261 247.176 258.335 246.83 257.62 246.139C256.905 245.441 256.548 244.378 256.548 242.948ZM268.835 246.464V234.941C268.835 234.783 268.885 234.654 268.984 234.555C269.09 234.449 269.219 234.396 269.371 234.396H271.34C271.492 234.396 271.618 234.449 271.718 234.555C271.823 234.654 271.876 234.783 271.876 234.941V246.464C271.876 246.616 271.823 246.745 271.718 246.851C271.618 246.95 271.492 247 271.34 247H269.371C269.219 247 269.09 246.95 268.984 246.851C268.885 246.745 268.835 246.616 268.835 246.464ZM274.653 246.367C273.88 245.828 273.493 245.066 273.493 244.082C273.493 243.098 273.88 242.342 274.653 241.814C275.433 241.287 276.435 241.023 277.659 241.023H280.568C280.568 240.338 280.425 239.86 280.138 239.591C279.851 239.321 279.347 239.187 278.626 239.187C277.911 239.187 277.407 239.365 277.114 239.723C276.827 240.074 276.473 240.25 276.051 240.25H274.741C274.583 240.25 274.451 240.2 274.346 240.101C274.246 239.995 274.196 239.866 274.196 239.714C274.196 238.032 275.793 237.191 278.986 237.191C280.381 237.191 281.5 237.505 282.344 238.132C283.188 238.753 283.609 239.717 283.609 241.023V246.464C283.609 246.622 283.56 246.751 283.46 246.851C283.36 246.95 283.231 247 283.073 247H281.377C281.219 247 281.09 246.95 280.99 246.851C280.891 246.745 280.841 246.616 280.841 246.464V246.191C279.915 246.854 278.846 247.182 277.633 247.176C276.426 247.176 275.433 246.906 274.653 246.367ZM277.87 243.019C277.46 243.019 277.135 243.118 276.895 243.317C276.66 243.517 276.543 243.774 276.543 244.091C276.543 244.407 276.666 244.668 276.912 244.873C277.158 245.078 277.507 245.181 277.958 245.181C278.86 245.181 279.73 244.917 280.568 244.39V243.019H277.87ZM292.442 239.6L291.089 239.547C290.298 239.547 289.542 239.98 288.821 240.848V246.464C288.821 246.622 288.769 246.751 288.663 246.851C288.563 246.95 288.438 247 288.285 247H286.316C286.158 247 286.029 246.95 285.93 246.851C285.83 246.751 285.78 246.622 285.78 246.464V237.912C285.78 237.754 285.83 237.625 285.93 237.525C286.035 237.42 286.164 237.367 286.316 237.367H288.285C288.443 237.367 288.572 237.42 288.672 237.525C288.771 237.625 288.821 237.754 288.821 237.912V238.466C289.419 238.032 289.993 237.713 290.544 237.508C291.101 237.297 291.827 237.191 292.724 237.191C292.882 237.191 293.011 237.244 293.11 237.35C293.216 237.449 293.269 237.575 293.269 237.728V239.063C293.269 239.222 293.216 239.351 293.11 239.45C293.011 239.55 292.882 239.6 292.724 239.6H292.442ZM296.406 247.914L297.558 248.063C298.384 248.063 298.961 247.457 299.289 246.244C298.293 246.244 297.461 245.945 296.793 245.348C296.125 244.744 295.551 243.675 295.07 242.14L293.761 237.895C293.743 237.848 293.734 237.795 293.734 237.736C293.734 237.672 293.77 237.596 293.84 237.508C293.916 237.42 294.027 237.373 294.174 237.367H296.011C296.181 237.367 296.342 237.426 296.494 237.543C296.652 237.654 296.755 237.795 296.802 237.965L297.953 241.691C298.24 242.605 298.53 243.238 298.823 243.59C299.122 243.941 299.474 244.117 299.878 244.117L301.627 237.965C301.674 237.795 301.765 237.654 301.899 237.543C302.04 237.426 302.195 237.367 302.365 237.367H304.22C304.366 237.367 304.475 237.414 304.545 237.508C304.615 237.602 304.65 237.681 304.65 237.745C304.65 237.804 304.645 237.854 304.633 237.895L302.33 246.104C301.92 247.557 301.41 248.594 300.801 249.215C300.197 249.836 299.418 250.146 298.463 250.146C297.508 250.146 296.831 250.111 296.433 250.041C296.04 249.971 295.794 249.883 295.694 249.777C295.595 249.678 295.545 249.561 295.545 249.426V248.459C295.545 248.301 295.595 248.169 295.694 248.063C295.794 247.964 295.923 247.914 296.081 247.914H296.406Z" fill="white"/>
<rect x="12.752" y="216.088" width="147.405" height="50.1973" rx="15.9357" fill="#97C255"/>
<rect x="12.752" y="265.484" width="127.485" height="51.7909" rx="15.9357" transform="rotate(-90 12.752 265.484)" fill="#97C255"/>
<path d="M15.46 234.794C15.4323 234.728 15.4185 234.653 15.4185 234.57C15.4185 234.481 15.4655 234.382 15.5596 234.271C15.6592 234.155 15.8058 234.097 15.9995 234.097H17.8174C18.0332 234.097 18.2324 234.171 18.415 234.321C18.5977 234.47 18.7277 234.658 18.8052 234.885L20.9966 241.459L23.022 234.885C23.1825 234.36 23.5117 234.097 24.0098 234.097H25.5371C26.0352 234.097 26.3644 234.36 26.5249 234.885L28.5503 241.459L30.7417 234.885C30.8192 234.658 30.9492 234.47 31.1318 234.321C31.3145 234.171 31.5137 234.097 31.7295 234.097H33.5474C33.7355 234.097 33.8766 234.155 33.9707 234.271C34.0703 234.382 34.1201 234.481 34.1201 234.57C34.1201 234.653 34.109 234.728 34.0869 234.794L30.3848 245.153C30.18 245.718 29.7816 246 29.1895 246H27.9858C27.3716 246 26.9759 245.718 26.7988 245.153L24.7734 238.762L22.748 245.153C22.5654 245.718 22.1698 246 21.561 246H20.3491C19.7625 246 19.3669 245.718 19.1621 245.153L15.46 234.794ZM35.6807 244.971C34.8174 244.174 34.3857 243.001 34.3857 241.451C34.3857 239.896 34.8174 238.723 35.6807 237.932C36.5439 237.135 37.7835 236.736 39.3994 236.736C41.0208 236.736 42.2632 237.135 43.1265 237.932C43.9897 238.723 44.4214 239.896 44.4214 241.451C44.4214 243.001 43.9897 244.174 43.1265 244.971C42.2632 245.768 41.0208 246.166 39.3994 246.166C37.7835 246.166 36.5439 245.768 35.6807 244.971ZM37.7808 239.293C37.4377 239.741 37.2661 240.458 37.2661 241.443C37.2661 242.428 37.4377 243.147 37.7808 243.601C38.1239 244.055 38.6634 244.282 39.3994 244.282C40.141 244.282 40.6833 244.055 41.0264 243.601C41.375 243.147 41.5493 242.428 41.5493 241.443C41.5493 240.458 41.375 239.741 41.0264 239.293C40.6833 238.845 40.141 238.621 39.3994 238.621C38.6634 238.621 38.1239 238.845 37.7808 239.293ZM52.249 239.011L50.9707 238.961C50.2236 238.961 49.5098 239.37 48.8291 240.189V245.494C48.8291 245.643 48.7793 245.765 48.6797 245.859C48.5856 245.953 48.4666 246 48.3228 246H46.4634C46.314 246 46.1922 245.953 46.0981 245.859C46.0041 245.765 45.957 245.643 45.957 245.494V237.417C45.957 237.268 46.0041 237.146 46.0981 237.052C46.1978 236.952 46.3195 236.902 46.4634 236.902H48.3228C48.4722 236.902 48.5939 236.952 48.688 237.052C48.7821 237.146 48.8291 237.268 48.8291 237.417V237.94C49.3936 237.53 49.9359 237.229 50.4561 237.035C50.9818 236.836 51.668 236.736 52.5146 236.736C52.6641 236.736 52.7858 236.786 52.8799 236.886C52.9795 236.98 53.0293 237.099 53.0293 237.243V238.504C53.0293 238.654 52.9795 238.776 52.8799 238.87C52.7858 238.964 52.6641 239.011 52.5146 239.011H52.249ZM57.7773 246.166C56.6208 246.166 55.6523 245.759 54.8721 244.946C54.0973 244.132 53.71 242.967 53.71 241.451C53.71 239.929 54.1112 238.764 54.9136 237.957C55.7215 237.143 56.8062 236.736 58.1675 236.736C58.8703 236.736 59.6699 236.877 60.5664 237.16V234.611C60.5664 234.462 60.6134 234.34 60.7075 234.246C60.8071 234.146 60.9289 234.097 61.0728 234.097H62.9238C63.0732 234.097 63.195 234.146 63.2891 234.246C63.3887 234.34 63.4385 234.462 63.4385 234.611V245.494C63.4385 245.638 63.3887 245.759 63.2891 245.859C63.195 245.953 63.0732 246 62.9238 246H61.3301C61.1807 246 61.0589 245.953 60.9648 245.859C60.8708 245.759 60.8237 245.638 60.8237 245.494V245.236C59.9494 245.856 58.9339 246.166 57.7773 246.166ZM58.7651 238.745C58.0015 238.745 57.4619 238.961 57.1465 239.393C56.8311 239.819 56.6733 240.505 56.6733 241.451C56.6733 242.397 56.8228 243.086 57.1216 243.518C57.4204 243.95 57.8687 244.166 58.4663 244.166C59.0695 244.166 59.7695 243.917 60.5664 243.418V239.077C59.8525 238.856 59.2521 238.745 58.7651 238.745ZM70.9258 239.417C70.9258 237.63 72.3674 236.736 75.2505 236.736C78.283 236.736 79.7993 237.53 79.7993 239.119C79.7993 239.263 79.7523 239.384 79.6582 239.484C79.5641 239.578 79.4424 239.625 79.293 239.625H78.0562C77.6577 239.625 77.3229 239.459 77.0518 239.127C76.7806 238.789 76.2466 238.621 75.4497 238.621C74.354 238.621 73.8062 238.886 73.8062 239.417C73.8062 239.667 74.0192 239.874 74.4453 240.04C74.877 240.206 75.3999 240.353 76.0142 240.48C76.634 240.602 77.251 240.759 77.8652 240.953C78.4795 241.147 78.9997 241.457 79.4258 241.883C79.8574 242.303 80.0732 242.837 80.0732 243.485C80.0732 245.272 78.5514 246.166 75.5078 246.166C72.4642 246.166 70.9424 245.375 70.9424 243.792C70.9424 243.643 70.9894 243.521 71.0835 243.427C71.1831 243.327 71.3076 243.277 71.457 243.277H72.6938C73.0923 243.277 73.4271 243.446 73.6982 243.784C73.9694 244.116 74.5034 244.282 75.3003 244.282C76.5675 244.282 77.2012 244.016 77.2012 243.485C77.2012 243.236 76.9854 243.028 76.5537 242.862C76.1276 242.696 75.6047 242.55 74.9849 242.422C74.3651 242.29 73.748 242.129 73.1338 241.941C72.5251 241.747 72.0049 241.437 71.5732 241.011C71.1416 240.585 70.9258 240.054 70.9258 239.417ZM85.9502 244.199L87.0874 244.099H87.3945C87.5439 244.099 87.6657 244.146 87.7598 244.24C87.8594 244.334 87.9092 244.456 87.9092 244.605V245.494C87.9092 245.615 87.8594 245.726 87.7598 245.826C87.6657 245.92 87.5439 245.978 87.3945 246C86.8301 246.111 86.0941 246.166 85.1865 246.166C82.807 246.166 81.6172 244.921 81.6172 242.431V234.611C81.6172 234.462 81.6642 234.34 81.7583 234.246C81.8579 234.146 81.9797 234.097 82.1235 234.097H83.9829C84.1268 234.097 84.2458 234.146 84.3398 234.246C84.4395 234.34 84.4893 234.462 84.4893 234.611V237.384H86.8052C86.9491 237.384 87.068 237.431 87.1621 237.525C87.2617 237.619 87.3115 237.741 87.3115 237.89V238.878C87.3115 239.027 87.2617 239.149 87.1621 239.243C87.068 239.337 86.9491 239.384 86.8052 239.384H84.4893V242.431C84.4893 242.995 84.6221 243.432 84.8877 243.742C85.1533 244.047 85.5075 244.199 85.9502 244.199ZM95.5625 239.011L94.2842 238.961C93.5371 238.961 92.8232 239.37 92.1426 240.189V245.494C92.1426 245.643 92.0928 245.765 91.9932 245.859C91.8991 245.953 91.7801 246 91.6362 246H89.7769C89.6274 246 89.5057 245.953 89.4116 245.859C89.3175 245.765 89.2705 245.643 89.2705 245.494V237.417C89.2705 237.268 89.3175 237.146 89.4116 237.052C89.5112 236.952 89.633 236.902 89.7769 236.902H91.6362C91.7856 236.902 91.9074 236.952 92.0015 237.052C92.0955 237.146 92.1426 237.268 92.1426 237.417V237.94C92.707 237.53 93.2493 237.229 93.7695 237.035C94.2952 236.836 94.9814 236.736 95.8281 236.736C95.9775 236.736 96.0993 236.786 96.1934 236.886C96.293 236.98 96.3428 237.099 96.3428 237.243V238.504C96.3428 238.654 96.293 238.776 96.1934 238.87C96.0993 238.964 95.9775 239.011 95.8281 239.011H95.5625ZM97.5381 242.173V237.417C97.5381 237.268 97.5851 237.146 97.6792 237.052C97.7788 236.952 97.9006 236.902 98.0444 236.902H99.9038C100.048 236.902 100.167 236.952 100.261 237.052C100.36 237.146 100.41 237.268 100.41 237.417V242.173C100.41 243.501 100.936 244.166 101.987 244.166C102.679 244.166 103.423 243.767 104.22 242.97V237.417C104.22 237.268 104.267 237.146 104.361 237.052C104.461 236.952 104.583 236.902 104.727 236.902H106.578C106.727 236.902 106.849 236.952 106.943 237.052C107.042 237.146 107.092 237.268 107.092 237.417V245.494C107.092 245.638 107.042 245.759 106.943 245.859C106.849 245.953 106.727 246 106.578 246H104.727C104.583 246 104.461 245.953 104.361 245.859C104.267 245.759 104.22 245.638 104.22 245.494V244.962C103.268 245.765 102.253 246.166 101.174 246.166C100.1 246.166 99.2259 245.84 98.5508 245.187C97.8757 244.528 97.5381 243.524 97.5381 242.173ZM113.542 246.166C111.993 246.166 110.786 245.768 109.923 244.971C109.06 244.174 108.628 243.003 108.628 241.459C108.628 239.91 109.057 238.737 109.915 237.94C110.772 237.138 111.965 236.736 113.492 236.736C115.025 236.736 116.201 236.98 117.02 237.467C117.845 237.954 118.257 238.673 118.257 239.625C118.257 239.774 118.207 239.896 118.107 239.99C118.013 240.084 117.892 240.131 117.742 240.131H116.505C116.129 240.131 115.811 239.929 115.551 239.525C115.224 239.005 114.646 238.745 113.816 238.745C112.991 238.745 112.413 238.958 112.081 239.384C111.755 239.805 111.591 240.494 111.591 241.451C111.591 242.409 111.76 243.1 112.098 243.526C112.441 243.952 113.033 244.166 113.874 244.166C114.721 244.166 115.307 243.905 115.634 243.385C115.894 242.976 116.212 242.771 116.588 242.771H117.825C117.975 242.771 118.096 242.821 118.19 242.92C118.29 243.014 118.34 243.133 118.34 243.277C118.34 244.229 117.928 244.949 117.103 245.436C116.284 245.923 115.097 246.166 113.542 246.166ZM124.034 244.199L125.171 244.099H125.479C125.628 244.099 125.75 244.146 125.844 244.24C125.943 244.334 125.993 244.456 125.993 244.605V245.494C125.993 245.615 125.943 245.726 125.844 245.826C125.75 245.92 125.628 245.978 125.479 246C124.914 246.111 124.178 246.166 123.271 246.166C120.891 246.166 119.701 244.921 119.701 242.431V234.611C119.701 234.462 119.748 234.34 119.842 234.246C119.942 234.146 120.064 234.097 120.208 234.097H122.067C122.211 234.097 122.33 234.146 122.424 234.246C122.523 234.34 122.573 234.462 122.573 234.611V237.384H124.889C125.033 237.384 125.152 237.431 125.246 237.525C125.346 237.619 125.396 237.741 125.396 237.89V238.878C125.396 239.027 125.346 239.149 125.246 239.243C125.152 239.337 125.033 239.384 124.889 239.384H122.573V242.431C122.573 242.995 122.706 243.432 122.972 243.742C123.237 244.047 123.591 244.199 124.034 244.199ZM127.271 242.173V237.417C127.271 237.268 127.319 237.146 127.413 237.052C127.512 236.952 127.634 236.902 127.778 236.902H129.637C129.781 236.902 129.9 236.952 129.994 237.052C130.094 237.146 130.144 237.268 130.144 237.417V242.173C130.144 243.501 130.669 244.166 131.721 244.166C132.412 244.166 133.157 243.767 133.954 242.97V237.417C133.954 237.268 134.001 237.146 134.095 237.052C134.194 236.952 134.316 236.902 134.46 236.902H136.311C136.46 236.902 136.582 236.952 136.676 237.052C136.776 237.146 136.826 237.268 136.826 237.417V245.494C136.826 245.638 136.776 245.759 136.676 245.859C136.582 245.953 136.46 246 136.311 246H134.46C134.316 246 134.194 245.953 134.095 245.859C134.001 245.759 133.954 245.638 133.954 245.494V244.962C133.002 245.765 131.986 246.166 130.907 246.166C129.834 246.166 128.959 245.84 128.284 245.187C127.609 244.528 127.271 243.524 127.271 242.173ZM145.168 239.011L143.89 238.961C143.143 238.961 142.429 239.37 141.748 240.189V245.494C141.748 245.643 141.698 245.765 141.599 245.859C141.505 245.953 141.386 246 141.242 246H139.382C139.233 246 139.111 245.953 139.017 245.859C138.923 245.765 138.876 245.643 138.876 245.494V237.417C138.876 237.268 138.923 237.146 139.017 237.052C139.117 236.952 139.238 236.902 139.382 236.902H141.242C141.391 236.902 141.513 236.952 141.607 237.052C141.701 237.146 141.748 237.268 141.748 237.417V237.94C142.312 237.53 142.855 237.229 143.375 237.035C143.901 236.836 144.587 236.736 145.434 236.736C145.583 236.736 145.705 236.786 145.799 236.886C145.898 236.98 145.948 237.099 145.948 237.243V238.504C145.948 238.654 145.898 238.776 145.799 238.87C145.705 238.964 145.583 239.011 145.434 239.011H145.168ZM147.824 244.954C146.972 244.146 146.546 242.984 146.546 241.468C146.546 239.946 146.975 238.778 147.833 237.965C148.69 237.146 149.88 236.736 151.402 236.736C152.924 236.736 154.111 237.135 154.963 237.932C155.815 238.723 156.241 239.86 156.241 241.343V241.816C156.241 241.966 156.191 242.09 156.092 242.19C155.998 242.284 155.876 242.331 155.727 242.331H149.476C149.531 243.012 149.725 243.507 150.057 243.817C150.395 244.127 150.931 244.282 151.667 244.282C152.403 244.282 152.907 244.116 153.178 243.784C153.449 243.452 153.784 243.283 154.183 243.277H155.419C155.569 243.277 155.691 243.327 155.785 243.427C155.884 243.521 155.934 243.643 155.934 243.792C155.934 245.38 154.421 246.172 151.394 246.166C149.866 246.166 148.676 245.762 147.824 244.954ZM149.459 240.58H153.319C153.264 239.274 152.622 238.621 151.394 238.621C150.171 238.621 149.526 239.274 149.459 240.58Z" fill="white"/>
<path d="M72.3438 13.5453C72.3438 6.06445 78.4082 0 85.8891 0L200.438 0C207.919 0 213.983 6.06444 213.983 13.5453V35.5198C213.983 43.0006 207.919 49.0651 200.438 49.0651L72.3437 49.0651L72.3438 13.5453Z" fill="#F6C345"/>
<path d="M9 57.7055C9 50.2246 15.0644 44.1602 22.5453 44.1602L150.64 44.1602V79.6799C150.64 87.1608 144.575 93.2252 137.094 93.2252L22.5453 93.2252C15.0644 93.2252 9 87.1608 9 79.6799L9 57.7055Z" fill="#F6C345"/>
<path d="M98.1309 24.7744C98.1309 24.4287 98.2334 24.1826 98.4385 24.0361C98.6436 23.8838 98.8428 23.8076 99.0361 23.8076H100.082C100.609 23.8076 101.011 24.0947 101.286 24.6689C101.562 25.2432 102.18 25.5303 103.141 25.5303L106.217 25.5918C107.248 25.5918 107.764 25.2549 107.764 24.5811C107.764 24.0713 107.134 23.6699 105.874 23.377C105.312 23.2422 104.69 23.1104 104.011 22.9814C103.331 22.8467 102.654 22.6797 101.98 22.4805C101.312 22.2812 100.697 22.0469 100.135 21.7773C99.5723 21.5078 99.1152 21.1387 98.7637 20.6699C98.418 20.1953 98.2451 19.6387 98.2451 19C98.2451 17.8223 98.6641 16.917 99.502 16.2842C100.34 15.6455 101.781 15.3262 103.826 15.3262L106.059 15.3789C107.26 15.3789 108.341 15.6895 109.302 16.3105C110.269 16.9258 110.752 17.6963 110.752 18.6221C110.752 18.9678 110.649 19.2168 110.444 19.3691C110.239 19.5215 110.043 19.5977 109.855 19.5977H108.81C108.282 19.5977 107.881 19.3105 107.605 18.7363C107.33 18.1562 106.712 17.8662 105.751 17.8662L103.105 17.8135C102.074 17.8135 101.559 18.1504 101.559 18.8242C101.559 19.1934 101.884 19.4951 102.534 19.7295C103.19 19.9639 103.981 20.1719 104.907 20.3535C105.839 20.5293 106.773 20.7432 107.711 20.9951C108.648 21.2471 109.442 21.6631 110.093 22.2432C110.749 22.8174 111.077 23.5352 111.077 24.3965C111.077 25.5742 110.655 26.4824 109.812 27.1211C108.974 27.7539 107.535 28.0703 105.496 28.0703L102.833 28.0176C101.632 28.0176 100.548 27.71 99.5811 27.0947C98.6143 26.4736 98.1309 25.7002 98.1309 24.7744ZM113.512 26.8926C112.609 26.0371 112.158 24.8066 112.158 23.2012C112.158 21.5898 112.612 20.3535 113.521 19.4922C114.429 18.625 115.688 18.1914 117.3 18.1914C118.911 18.1914 120.168 18.6133 121.07 19.457C121.973 20.2949 122.424 21.499 122.424 23.0693V23.5703C122.424 23.7285 122.371 23.8604 122.266 23.9658C122.166 24.0654 122.037 24.1152 121.879 24.1152H115.261C115.319 24.8359 115.524 25.3604 115.876 25.6885C116.233 26.0166 116.802 26.1807 117.581 26.1807C118.36 26.1807 118.894 26.0049 119.181 25.6533C119.468 25.3018 119.822 25.123 120.244 25.1172H121.554C121.712 25.1172 121.841 25.1699 121.94 25.2754C122.046 25.375 122.099 25.5039 122.099 25.6621C122.099 27.3438 120.496 28.1816 117.291 28.1758C115.674 28.1758 114.414 27.748 113.512 26.8926ZM115.243 22.2607H119.33C119.271 20.8779 118.592 20.1865 117.291 20.1865C115.996 20.1865 115.313 20.8779 115.243 22.2607ZM124.041 27.4639V18.9121C124.041 18.7539 124.091 18.625 124.19 18.5254C124.296 18.4199 124.425 18.3672 124.577 18.3672H126.546C126.698 18.3672 126.824 18.4199 126.924 18.5254C127.029 18.625 127.082 18.7539 127.082 18.9121V19.4658C128.09 18.6162 129.162 18.1914 130.299 18.1914C131.441 18.1914 132.37 18.54 133.085 19.2373C133.8 19.9287 134.157 20.9893 134.157 22.4189V27.4639C134.157 27.6162 134.104 27.7451 133.999 27.8506C133.899 27.9502 133.771 28 133.612 28H131.652C131.5 28 131.371 27.9502 131.266 27.8506C131.166 27.7451 131.116 27.6162 131.116 27.4639V22.4189C131.116 21.0186 130.557 20.3184 129.438 20.3184C128.705 20.3184 127.92 20.7373 127.082 21.5752V27.4639C127.082 27.6162 127.029 27.7451 126.924 27.8506C126.824 27.9502 126.698 28 126.546 28H124.577C124.425 28 124.296 27.9502 124.19 27.8506C124.091 27.7451 124.041 27.6162 124.041 27.4639ZM140.916 26.0928L142.12 25.9873H142.445C142.604 25.9873 142.732 26.0371 142.832 26.1367C142.938 26.2363 142.99 26.3652 142.99 26.5234V27.4639C142.99 27.5928 142.938 27.71 142.832 27.8154C142.732 27.915 142.604 27.9766 142.445 28C141.848 28.1172 141.068 28.1758 140.107 28.1758C137.588 28.1758 136.328 26.8574 136.328 24.2207V15.9414C136.328 15.7832 136.378 15.6543 136.478 15.5547C136.583 15.4492 136.712 15.3965 136.864 15.3965H138.833C138.985 15.3965 139.111 15.4492 139.211 15.5547C139.316 15.6543 139.369 15.7832 139.369 15.9414V18.877H141.821C141.974 18.877 142.1 18.9268 142.199 19.0264C142.305 19.126 142.357 19.2549 142.357 19.4131V20.459C142.357 20.6172 142.305 20.7461 142.199 20.8457C142.1 20.9453 141.974 20.9951 141.821 20.9951H139.369V24.2207C139.369 24.8184 139.51 25.2812 139.791 25.6094C140.072 25.9316 140.447 26.0928 140.916 26.0928ZM145.152 26.8926C144.25 26.0371 143.799 24.8066 143.799 23.2012C143.799 21.5898 144.253 20.3535 145.161 19.4922C146.069 18.625 147.329 18.1914 148.94 18.1914C150.552 18.1914 151.809 18.6133 152.711 19.457C153.613 20.2949 154.064 21.499 154.064 23.0693V23.5703C154.064 23.7285 154.012 23.8604 153.906 23.9658C153.807 24.0654 153.678 24.1152 153.52 24.1152H146.901C146.96 24.8359 147.165 25.3604 147.517 25.6885C147.874 26.0166 148.442 26.1807 149.222 26.1807C150.001 26.1807 150.534 26.0049 150.821 25.6533C151.108 25.3018 151.463 25.123 151.885 25.1172H153.194C153.353 25.1172 153.481 25.1699 153.581 25.2754C153.687 25.375 153.739 25.5039 153.739 25.6621C153.739 27.3438 152.137 28.1816 148.932 28.1758C147.314 28.1758 146.055 27.748 145.152 26.8926ZM146.884 22.2607H150.971C150.912 20.8779 150.232 20.1865 148.932 20.1865C147.637 20.1865 146.954 20.8779 146.884 22.2607ZM155.682 27.4639V18.9121C155.682 18.7539 155.731 18.625 155.831 18.5254C155.937 18.4199 156.065 18.3672 156.218 18.3672H158.187C158.339 18.3672 158.465 18.4199 158.564 18.5254C158.67 18.625 158.723 18.7539 158.723 18.9121V19.4658C159.73 18.6162 160.803 18.1914 161.939 18.1914C163.082 18.1914 164.011 18.54 164.726 19.2373C165.44 19.9287 165.798 20.9893 165.798 22.4189V27.4639C165.798 27.6162 165.745 27.7451 165.64 27.8506C165.54 27.9502 165.411 28 165.253 28H163.293C163.141 28 163.012 27.9502 162.906 27.8506C162.807 27.7451 162.757 27.6162 162.757 27.4639V22.4189C162.757 21.0186 162.197 20.3184 161.078 20.3184C160.346 20.3184 159.561 20.7373 158.723 21.5752V27.4639C158.723 27.6162 158.67 27.7451 158.564 27.8506C158.465 27.9502 158.339 28 158.187 28H156.218C156.065 28 155.937 27.9502 155.831 27.8506C155.731 27.7451 155.682 27.6162 155.682 27.4639ZM172.627 28.1758C170.986 28.1758 169.709 27.7539 168.795 26.9102C167.881 26.0664 167.424 24.8271 167.424 23.1924C167.424 21.5518 167.878 20.3096 168.786 19.4658C169.694 18.6162 170.957 18.1914 172.574 18.1914C174.197 18.1914 175.442 18.4492 176.31 18.9648C177.183 19.4805 177.619 20.2422 177.619 21.25C177.619 21.4082 177.566 21.5371 177.461 21.6367C177.361 21.7363 177.232 21.7861 177.074 21.7861H175.765C175.366 21.7861 175.029 21.5723 174.754 21.1445C174.408 20.5938 173.796 20.3184 172.917 20.3184C172.044 20.3184 171.432 20.5439 171.08 20.9951C170.734 21.4404 170.562 22.1699 170.562 23.1836C170.562 24.1973 170.74 24.9297 171.098 25.3809C171.461 25.832 172.088 26.0576 172.979 26.0576C173.875 26.0576 174.496 25.7822 174.842 25.2314C175.117 24.7979 175.454 24.5811 175.853 24.5811H177.162C177.32 24.5811 177.449 24.6338 177.549 24.7393C177.654 24.8389 177.707 24.9648 177.707 25.1172C177.707 26.125 177.271 26.8867 176.397 27.4023C175.53 27.918 174.273 28.1758 172.627 28.1758ZM179.957 26.8926C179.055 26.0371 178.604 24.8066 178.604 23.2012C178.604 21.5898 179.058 20.3535 179.966 19.4922C180.874 18.625 182.134 18.1914 183.745 18.1914C185.356 18.1914 186.613 18.6133 187.516 19.457C188.418 20.2949 188.869 21.499 188.869 23.0693V23.5703C188.869 23.7285 188.816 23.8604 188.711 23.9658C188.611 24.0654 188.482 24.1152 188.324 24.1152H181.706C181.765 24.8359 181.97 25.3604 182.321 25.6885C182.679 26.0166 183.247 26.1807 184.026 26.1807C184.806 26.1807 185.339 26.0049 185.626 25.6533C185.913 25.3018 186.268 25.123 186.689 25.1172H187.999C188.157 25.1172 188.286 25.1699 188.386 25.2754C188.491 25.375 188.544 25.5039 188.544 25.6621C188.544 27.3438 186.941 28.1816 183.736 28.1758C182.119 28.1758 180.859 27.748 179.957 26.8926ZM181.688 22.2607H185.775C185.717 20.8779 185.037 20.1865 183.736 20.1865C182.441 20.1865 181.759 20.8779 181.688 22.2607Z" fill="white"/>
<path d="M38.5273 62.4531L37.3145 62.3037C36.1484 62.3037 35.3896 62.4619 35.0381 62.7783C34.6865 63.0889 34.5107 63.7363 34.5107 64.7207V64.8613H37.6924C37.8506 64.8613 37.9795 64.9141 38.0791 65.0195C38.1846 65.1191 38.2373 65.248 38.2373 65.4062V66.4521C38.2373 66.6104 38.1846 66.7393 38.0791 66.8389C37.9795 66.9385 37.8506 66.9883 37.6924 66.9883H34.5107V72.4639C34.5107 72.6221 34.458 72.751 34.3525 72.8506C34.2529 72.9502 34.127 73 33.9746 73H32.0059C31.8477 73 31.7188 72.9502 31.6191 72.8506C31.5195 72.751 31.4697 72.6221 31.4697 72.4639V64.7207C31.4697 63.0859 31.8418 61.9287 32.5859 61.249C33.3301 60.5635 34.6367 60.2207 36.5059 60.2207C37.4668 60.2207 38.1377 60.2559 38.5186 60.3262C38.8994 60.3965 39.1396 60.4844 39.2393 60.5898C39.3389 60.6895 39.3887 60.8066 39.3887 60.9414V61.9082C39.3887 62.0664 39.3359 62.1982 39.2305 62.3037C39.1309 62.4033 39.0049 62.4531 38.8525 62.4531H38.5273ZM40.8564 71.9102C39.9424 71.0664 39.4854 69.8242 39.4854 68.1836C39.4854 66.5371 39.9424 65.2949 40.8564 64.457C41.7705 63.6133 43.083 63.1914 44.7939 63.1914C46.5107 63.1914 47.8262 63.6133 48.7402 64.457C49.6543 65.2949 50.1113 66.5371 50.1113 68.1836C50.1113 69.8242 49.6543 71.0664 48.7402 71.9102C47.8262 72.7539 46.5107 73.1758 44.7939 73.1758C43.083 73.1758 41.7705 72.7539 40.8564 71.9102ZM43.0801 65.8984C42.7168 66.373 42.5352 67.1318 42.5352 68.1748C42.5352 69.2178 42.7168 69.9795 43.0801 70.46C43.4434 70.9404 44.0146 71.1807 44.7939 71.1807C45.5791 71.1807 46.1533 70.9404 46.5166 70.46C46.8857 69.9795 47.0703 69.2178 47.0703 68.1748C47.0703 67.1318 46.8857 66.373 46.5166 65.8984C46.1533 65.4238 45.5791 65.1865 44.7939 65.1865C44.0146 65.1865 43.4434 65.4238 43.0801 65.8984ZM58.3994 65.5996L57.0459 65.5469C56.2549 65.5469 55.499 65.9805 54.7783 66.8477V72.4639C54.7783 72.6221 54.7256 72.751 54.6201 72.8506C54.5205 72.9502 54.3945 73 54.2422 73H52.2734C52.1152 73 51.9863 72.9502 51.8867 72.8506C51.7871 72.751 51.7373 72.6221 51.7373 72.4639V63.9121C51.7373 63.7539 51.7871 63.625 51.8867 63.5254C51.9922 63.4199 52.1211 63.3672 52.2734 63.3672H54.2422C54.4004 63.3672 54.5293 63.4199 54.6289 63.5254C54.7285 63.625 54.7783 63.7539 54.7783 63.9121V64.4658C55.376 64.0322 55.9502 63.7129 56.501 63.5078C57.0576 63.2969 57.7842 63.1914 58.6807 63.1914C58.8389 63.1914 58.9678 63.2441 59.0674 63.3496C59.1729 63.4492 59.2256 63.5752 59.2256 63.7275V65.0635C59.2256 65.2217 59.1729 65.3506 59.0674 65.4502C58.9678 65.5498 58.8389 65.5996 58.6807 65.5996H58.3994ZM60.4912 72.4639V63.9121C60.4912 63.7539 60.541 63.625 60.6406 63.5254C60.7461 63.4199 60.875 63.3672 61.0273 63.3672H62.9961C63.1543 63.3672 63.2832 63.4199 63.3828 63.5254C63.4824 63.625 63.5322 63.7539 63.5322 63.9121V64.4658C63.9541 64.0557 64.3672 63.7422 64.7715 63.5254C65.1816 63.3027 65.6738 63.1914 66.248 63.1914C67.6133 63.1914 68.6475 63.7539 69.3506 64.8789C70.4404 63.748 71.5566 63.1855 72.6992 63.1914C73.8477 63.1914 74.7529 63.5371 75.415 64.2285C76.083 64.9141 76.417 65.9775 76.417 67.4189V72.4639C76.417 72.6221 76.3672 72.751 76.2676 72.8506C76.168 72.9502 76.0391 73 75.8809 73H73.9209C73.7627 73 73.6309 72.9502 73.5254 72.8506C73.4258 72.7451 73.376 72.6162 73.376 72.4639V67.4189C73.376 66.0127 72.8662 65.3125 71.8467 65.3184C71.2256 65.3184 70.584 65.7666 69.9219 66.6631C69.957 66.915 69.9746 67.167 69.9746 67.4189V72.4639C69.9746 72.6221 69.9219 72.751 69.8164 72.8506C69.7168 72.9502 69.5908 73 69.4385 73H67.4785C67.3203 73 67.1885 72.9502 67.083 72.8506C66.9834 72.7451 66.9336 72.6162 66.9336 72.4639V67.4189C66.9336 66.0127 66.4238 65.3125 65.4043 65.3184C64.7539 65.3184 64.1299 65.7373 63.5322 66.5752V72.4639C63.5322 72.6221 63.4795 72.751 63.374 72.8506C63.2744 72.9502 63.1484 73 62.9961 73H61.0273C60.8691 73 60.7402 72.9502 60.6406 72.8506C60.541 72.751 60.4912 72.6221 60.4912 72.4639ZM79.1943 72.3672C78.4209 71.8281 78.0342 71.0664 78.0342 70.082C78.0342 69.0977 78.4209 68.3418 79.1943 67.8145C79.9736 67.2871 80.9756 67.0234 82.2002 67.0234H85.1094C85.1094 66.3379 84.9658 65.8604 84.6787 65.5908C84.3916 65.3213 83.8877 65.1865 83.167 65.1865C82.4521 65.1865 81.9482 65.3652 81.6553 65.7227C81.3682 66.0742 81.0137 66.25 80.5918 66.25H79.2822C79.124 66.25 78.9922 66.2002 78.8867 66.1006C78.7871 65.9951 78.7373 65.8662 78.7373 65.7139C78.7373 64.0322 80.334 63.1914 83.5273 63.1914C84.9219 63.1914 86.041 63.5049 86.8848 64.1318C87.7285 64.7529 88.1504 65.7168 88.1504 67.0234V72.4639C88.1504 72.6221 88.1006 72.751 88.001 72.8506C87.9014 72.9502 87.7725 73 87.6143 73H85.918C85.7598 73 85.6309 72.9502 85.5312 72.8506C85.4316 72.7451 85.3818 72.6162 85.3818 72.4639V72.1914C84.4561 72.8535 83.3867 73.1816 82.1738 73.1758C80.9668 73.1758 79.9736 72.9062 79.1943 72.3672ZM82.4111 69.0186C82.001 69.0186 81.6758 69.1182 81.4355 69.3174C81.2012 69.5166 81.084 69.7744 81.084 70.0908C81.084 70.4072 81.207 70.668 81.4531 70.873C81.6992 71.0781 82.0479 71.1807 82.499 71.1807C83.4014 71.1807 84.2715 70.917 85.1094 70.3896V69.0186H82.4111ZM94.9092 71.0928L96.1133 70.9873H96.4385C96.5967 70.9873 96.7256 71.0371 96.8252 71.1367C96.9307 71.2363 96.9834 71.3652 96.9834 71.5234V72.4639C96.9834 72.5928 96.9307 72.71 96.8252 72.8154C96.7256 72.915 96.5967 72.9766 96.4385 73C95.8408 73.1172 95.0615 73.1758 94.1006 73.1758C91.5811 73.1758 90.3213 71.8574 90.3213 69.2207V60.9414C90.3213 60.7832 90.3711 60.6543 90.4707 60.5547C90.5762 60.4492 90.7051 60.3965 90.8574 60.3965H92.8262C92.9785 60.3965 93.1045 60.4492 93.2041 60.5547C93.3096 60.6543 93.3623 60.7832 93.3623 60.9414V63.877H95.8145C95.9668 63.877 96.0928 63.9268 96.1924 64.0264C96.2979 64.126 96.3506 64.2549 96.3506 64.4131V65.459C96.3506 65.6172 96.2979 65.7461 96.1924 65.8457C96.0928 65.9453 95.9668 65.9951 95.8145 65.9951H93.3623V69.2207C93.3623 69.8184 93.5029 70.2812 93.7842 70.6094C94.0654 70.9316 94.4404 71.0928 94.9092 71.0928ZM98.4248 61.5303V61.2314C98.4248 60.9209 98.5127 60.6748 98.6885 60.4932C98.8701 60.3115 99.1191 60.2207 99.4355 60.2207H100.525C100.836 60.2207 101.082 60.3115 101.264 60.4932C101.445 60.6689 101.536 60.915 101.536 61.2314V61.5303C101.536 61.8408 101.445 62.0869 101.264 62.2686C101.088 62.4502 100.842 62.541 100.525 62.541H99.4355C99.125 62.541 98.8789 62.4502 98.6973 62.2686C98.5156 62.0869 98.4248 61.8408 98.4248 61.5303ZM98.46 72.4639V64.123C98.46 63.9648 98.5098 63.8359 98.6094 63.7363C98.7148 63.6367 98.8438 63.5869 98.9961 63.5869H100.965C101.123 63.5869 101.252 63.6396 101.352 63.7451C101.451 63.8447 101.501 63.9707 101.501 64.123V72.4639C101.501 72.6221 101.448 72.751 101.343 72.8506C101.243 72.9502 101.117 73 100.965 73H98.9961C98.8379 73 98.709 72.9502 98.6094 72.8506C98.5098 72.751 98.46 72.6221 98.46 72.4639ZM104.524 71.9102C103.61 71.0664 103.153 69.8242 103.153 68.1836C103.153 66.5371 103.61 65.2949 104.524 64.457C105.438 63.6133 106.751 63.1914 108.462 63.1914C110.179 63.1914 111.494 63.6133 112.408 64.457C113.322 65.2949 113.779 66.5371 113.779 68.1836C113.779 69.8242 113.322 71.0664 112.408 71.9102C111.494 72.7539 110.179 73.1758 108.462 73.1758C106.751 73.1758 105.438 72.7539 104.524 71.9102ZM106.748 65.8984C106.385 66.373 106.203 67.1318 106.203 68.1748C106.203 69.2178 106.385 69.9795 106.748 70.46C107.111 70.9404 107.683 71.1807 108.462 71.1807C109.247 71.1807 109.821 70.9404 110.185 70.46C110.554 69.9795 110.738 69.2178 110.738 68.1748C110.738 67.1318 110.554 66.373 110.185 65.8984C109.821 65.4238 109.247 65.1865 108.462 65.1865C107.683 65.1865 107.111 65.4238 106.748 65.8984ZM115.405 72.4639V63.9121C115.405 63.7539 115.455 63.625 115.555 63.5254C115.66 63.4199 115.789 63.3672 115.941 63.3672H117.91C118.062 63.3672 118.188 63.4199 118.288 63.5254C118.394 63.625 118.446 63.7539 118.446 63.9121V64.4658C119.454 63.6162 120.526 63.1914 121.663 63.1914C122.806 63.1914 123.734 63.54 124.449 64.2373C125.164 64.9287 125.521 65.9893 125.521 67.4189V72.4639C125.521 72.6162 125.469 72.7451 125.363 72.8506C125.264 72.9502 125.135 73 124.977 73H123.017C122.864 73 122.735 72.9502 122.63 72.8506C122.53 72.7451 122.48 72.6162 122.48 72.4639V67.4189C122.48 66.0186 121.921 65.3184 120.802 65.3184C120.069 65.3184 119.284 65.7373 118.446 66.5752V72.4639C118.446 72.6162 118.394 72.7451 118.288 72.8506C118.188 72.9502 118.062 73 117.91 73H115.941C115.789 73 115.66 72.9502 115.555 72.8506C115.455 72.7451 115.405 72.6162 115.405 72.4639Z" fill="white"/>
<path d="M160 71.9513C160 63.1503 167.135 56.0156 175.936 56.0156L242.049 56.0156H304.831C313.632 56.0156 320.767 63.1503 320.767 71.9513V90.2392C320.767 99.0403 313.632 106.175 304.831 106.175H175.936C167.135 106.175 160 99.0403 160 90.2392V71.9513Z" fill="#FF7C80"/>
<path d="M283.971 104.244C275.17 104.244 268.035 97.1095 268.035 88.3085V56.6555V26.935C268.035 18.134 275.17 10.9994 283.971 10.9994H304.831C313.632 10.9994 320.767 18.134 320.767 26.935V88.3085C320.767 97.1095 313.632 104.244 304.831 104.244H283.971Z" fill="#FF7C80"/>
<path d="M186.162 84.5146C185.078 83.4775 184.536 81.875 184.536 79.707C184.536 77.5332 185.078 75.9277 186.162 74.8906C187.252 73.8477 188.884 73.3262 191.058 73.3262H193.018C194.348 73.3262 195.522 73.6719 196.542 74.3633C197.567 75.0547 198.08 76.001 198.08 77.2021C198.08 77.5479 197.978 77.7969 197.772 77.9492C197.567 78.0957 197.368 78.1689 197.175 78.1689H196.129C195.59 78.1689 195.171 77.8467 194.872 77.2021C194.438 76.2764 193.718 75.8135 192.71 75.8135H191.146C189.862 75.8135 188.992 76.0889 188.535 76.6396C188.078 77.1904 187.85 78.21 187.85 79.6982C187.85 81.1865 188.078 82.209 188.535 82.7656C188.992 83.3164 189.862 83.5918 191.146 83.5918H192.895C193.902 83.5918 194.62 83.1289 195.048 82.2031C195.347 81.5527 195.769 81.2275 196.313 81.2275H197.359C197.635 81.2275 197.852 81.3301 198.01 81.5352C198.174 81.7402 198.256 81.9629 198.256 82.2031C198.256 83.4043 197.746 84.3506 196.727 85.042C195.707 85.7275 194.532 86.0703 193.202 86.0703H191.058C188.884 86.0703 187.252 85.5518 186.162 84.5146ZM200.62 84.9102C199.706 84.0664 199.249 82.8242 199.249 81.1836C199.249 79.5371 199.706 78.2949 200.62 77.457C201.534 76.6133 202.847 76.1914 204.558 76.1914C206.274 76.1914 207.59 76.6133 208.504 77.457C209.418 78.2949 209.875 79.5371 209.875 81.1836C209.875 82.8242 209.418 84.0664 208.504 84.9102C207.59 85.7539 206.274 86.1758 204.558 86.1758C202.847 86.1758 201.534 85.7539 200.62 84.9102ZM202.844 78.8984C202.48 79.373 202.299 80.1318 202.299 81.1748C202.299 82.2178 202.48 82.9795 202.844 83.46C203.207 83.9404 203.778 84.1807 204.558 84.1807C205.343 84.1807 205.917 83.9404 206.28 83.46C206.649 82.9795 206.834 82.2178 206.834 81.1748C206.834 80.1318 206.649 79.373 206.28 78.8984C205.917 78.4238 205.343 78.1865 204.558 78.1865C203.778 78.1865 203.207 78.4238 202.844 78.8984ZM211.501 85.4639V76.9121C211.501 76.7539 211.551 76.625 211.65 76.5254C211.756 76.4199 211.885 76.3672 212.037 76.3672H214.006C214.164 76.3672 214.293 76.4199 214.393 76.5254C214.492 76.625 214.542 76.7539 214.542 76.9121V77.4658C214.964 77.0557 215.377 76.7422 215.781 76.5254C216.191 76.3027 216.684 76.1914 217.258 76.1914C218.623 76.1914 219.657 76.7539 220.36 77.8789C221.45 76.748 222.566 76.1855 223.709 76.1914C224.857 76.1914 225.763 76.5371 226.425 77.2285C227.093 77.9141 227.427 78.9775 227.427 80.4189V85.4639C227.427 85.6221 227.377 85.751 227.277 85.8506C227.178 85.9502 227.049 86 226.891 86H224.931C224.772 86 224.641 85.9502 224.535 85.8506C224.436 85.7451 224.386 85.6162 224.386 85.4639V80.4189C224.386 79.0127 223.876 78.3125 222.856 78.3184C222.235 78.3184 221.594 78.7666 220.932 79.6631C220.967 79.915 220.984 80.167 220.984 80.4189V85.4639C220.984 85.6221 220.932 85.751 220.826 85.8506C220.727 85.9502 220.601 86 220.448 86H218.488C218.33 86 218.198 85.9502 218.093 85.8506C217.993 85.7451 217.943 85.6162 217.943 85.4639V80.4189C217.943 79.0127 217.434 78.3125 216.414 78.3184C215.764 78.3184 215.14 78.7373 214.542 79.5752V85.4639C214.542 85.6221 214.489 85.751 214.384 85.8506C214.284 85.9502 214.158 86 214.006 86H212.037C211.879 86 211.75 85.9502 211.65 85.8506C211.551 85.751 211.501 85.6221 211.501 85.4639ZM229.589 85.4639V76.9121C229.589 76.7539 229.639 76.625 229.738 76.5254C229.844 76.4199 229.973 76.3672 230.125 76.3672H232.094C232.252 76.3672 232.381 76.4199 232.48 76.5254C232.58 76.625 232.63 76.7539 232.63 76.9121V77.4658C233.052 77.0557 233.465 76.7422 233.869 76.5254C234.279 76.3027 234.771 76.1914 235.346 76.1914C236.711 76.1914 237.745 76.7539 238.448 77.8789C239.538 76.748 240.654 76.1855 241.797 76.1914C242.945 76.1914 243.851 76.5371 244.513 77.2285C245.181 77.9141 245.515 78.9775 245.515 80.4189V85.4639C245.515 85.6221 245.465 85.751 245.365 85.8506C245.266 85.9502 245.137 86 244.979 86H243.019C242.86 86 242.729 85.9502 242.623 85.8506C242.523 85.7451 242.474 85.6162 242.474 85.4639V80.4189C242.474 79.0127 241.964 78.3125 240.944 78.3184C240.323 78.3184 239.682 78.7666 239.02 79.6631C239.055 79.915 239.072 80.167 239.072 80.4189V85.4639C239.072 85.6221 239.02 85.751 238.914 85.8506C238.814 85.9502 238.688 86 238.536 86H236.576C236.418 86 236.286 85.9502 236.181 85.8506C236.081 85.7451 236.031 85.6162 236.031 85.4639V80.4189C236.031 79.0127 235.521 78.3125 234.502 78.3184C233.852 78.3184 233.228 78.7373 232.63 79.5752V85.4639C232.63 85.6221 232.577 85.751 232.472 85.8506C232.372 85.9502 232.246 86 232.094 86H230.125C229.967 86 229.838 85.9502 229.738 85.8506C229.639 85.751 229.589 85.6221 229.589 85.4639ZM247.677 81.9482V76.9121C247.677 76.7539 247.727 76.625 247.826 76.5254C247.932 76.4199 248.061 76.3672 248.213 76.3672H250.182C250.334 76.3672 250.46 76.4199 250.56 76.5254C250.665 76.625 250.718 76.7539 250.718 76.9121V81.9482C250.718 83.3545 251.274 84.0576 252.388 84.0576C253.12 84.0576 253.908 83.6357 254.752 82.792V76.9121C254.752 76.7539 254.802 76.625 254.901 76.5254C255.007 76.4199 255.136 76.3672 255.288 76.3672H257.248C257.406 76.3672 257.535 76.4199 257.635 76.5254C257.74 76.625 257.793 76.7539 257.793 76.9121V85.4639C257.793 85.6162 257.74 85.7451 257.635 85.8506C257.535 85.9502 257.406 86 257.248 86H255.288C255.136 86 255.007 85.9502 254.901 85.8506C254.802 85.7451 254.752 85.6162 254.752 85.4639V84.9014C253.744 85.751 252.669 86.1758 251.526 86.1758C250.39 86.1758 249.464 85.8301 248.749 85.1387C248.034 84.4414 247.677 83.3779 247.677 81.9482ZM259.964 85.4639V76.9121C259.964 76.7539 260.014 76.625 260.113 76.5254C260.219 76.4199 260.348 76.3672 260.5 76.3672H262.469C262.621 76.3672 262.747 76.4199 262.847 76.5254C262.952 76.625 263.005 76.7539 263.005 76.9121V77.4658C264.013 76.6162 265.085 76.1914 266.222 76.1914C267.364 76.1914 268.293 76.54 269.008 77.2373C269.723 77.9287 270.08 78.9893 270.08 80.4189V85.4639C270.08 85.6162 270.027 85.7451 269.922 85.8506C269.822 85.9502 269.693 86 269.535 86H267.575C267.423 86 267.294 85.9502 267.188 85.8506C267.089 85.7451 267.039 85.6162 267.039 85.4639V80.4189C267.039 79.0186 266.479 78.3184 265.36 78.3184C264.628 78.3184 263.843 78.7373 263.005 79.5752V85.4639C263.005 85.6162 262.952 85.7451 262.847 85.8506C262.747 85.9502 262.621 86 262.469 86H260.5C260.348 86 260.219 85.9502 260.113 85.8506C260.014 85.7451 259.964 85.6162 259.964 85.4639ZM272.251 74.5303V74.2314C272.251 73.9209 272.339 73.6748 272.515 73.4932C272.696 73.3115 272.945 73.2207 273.262 73.2207H274.352C274.662 73.2207 274.908 73.3115 275.09 73.4932C275.271 73.6689 275.362 73.915 275.362 74.2314V74.5303C275.362 74.8408 275.271 75.0869 275.09 75.2686C274.914 75.4502 274.668 75.541 274.352 75.541H273.262C272.951 75.541 272.705 75.4502 272.523 75.2686C272.342 75.0869 272.251 74.8408 272.251 74.5303ZM272.286 85.4639V77.123C272.286 76.9648 272.336 76.8359 272.436 76.7363C272.541 76.6367 272.67 76.5869 272.822 76.5869H274.791C274.949 76.5869 275.078 76.6396 275.178 76.7451C275.277 76.8447 275.327 76.9707 275.327 77.123V85.4639C275.327 85.6221 275.274 85.751 275.169 85.8506C275.069 85.9502 274.943 86 274.791 86H272.822C272.664 86 272.535 85.9502 272.436 85.8506C272.336 85.751 272.286 85.6221 272.286 85.4639ZM282.112 84.0928L283.316 83.9873H283.642C283.8 83.9873 283.929 84.0371 284.028 84.1367C284.134 84.2363 284.187 84.3652 284.187 84.5234V85.4639C284.187 85.5928 284.134 85.71 284.028 85.8154C283.929 85.915 283.8 85.9766 283.642 86C283.044 86.1172 282.265 86.1758 281.304 86.1758C278.784 86.1758 277.524 84.8574 277.524 82.2207V73.9414C277.524 73.7832 277.574 73.6543 277.674 73.5547C277.779 73.4492 277.908 73.3965 278.061 73.3965H280.029C280.182 73.3965 280.308 73.4492 280.407 73.5547C280.513 73.6543 280.565 73.7832 280.565 73.9414V76.877H283.018C283.17 76.877 283.296 76.9268 283.396 77.0264C283.501 77.126 283.554 77.2549 283.554 77.4131V78.459C283.554 78.6172 283.501 78.7461 283.396 78.8457C283.296 78.9453 283.17 78.9951 283.018 78.9951H280.565V82.2207C280.565 82.8184 280.706 83.2812 280.987 83.6094C281.269 83.9316 281.644 84.0928 282.112 84.0928ZM287.324 86.9141L288.476 87.0635C289.302 87.0635 289.879 86.457 290.207 85.2441C289.211 85.2441 288.379 84.9453 287.711 84.3477C287.043 83.7441 286.469 82.6748 285.988 81.1396L284.679 76.8945C284.661 76.8477 284.652 76.7949 284.652 76.7363C284.652 76.6719 284.688 76.5957 284.758 76.5078C284.834 76.4199 284.945 76.373 285.092 76.3672H286.929C287.099 76.3672 287.26 76.4258 287.412 76.543C287.57 76.6543 287.673 76.7949 287.72 76.9648L288.871 80.6914C289.158 81.6055 289.448 82.2383 289.741 82.5898C290.04 82.9414 290.392 83.1172 290.796 83.1172L292.545 76.9648C292.592 76.7949 292.683 76.6543 292.817 76.543C292.958 76.4258 293.113 76.3672 293.283 76.3672H295.138C295.284 76.3672 295.393 76.4141 295.463 76.5078C295.533 76.6016 295.568 76.6807 295.568 76.7451C295.568 76.8037 295.562 76.8535 295.551 76.8945L293.248 85.1035C292.838 86.5566 292.328 87.5938 291.719 88.2148C291.115 88.8359 290.336 89.1465 289.381 89.1465C288.426 89.1465 287.749 89.1113 287.351 89.041C286.958 88.9707 286.712 88.8828 286.612 88.7773C286.513 88.6777 286.463 88.5605 286.463 88.4258V87.459C286.463 87.3008 286.513 87.1689 286.612 87.0635C286.712 86.9639 286.841 86.9141 286.999 86.9141H287.324Z" fill="white"/>
<path d="M229.08 125.545C229.08 118.064 223.016 112 215.535 112L91.5458 112C84.0649 112 78.0005 118.064 78.0005 125.545V149.197C78.0005 156.678 84.0649 162.743 91.5458 162.743L229.08 162.743V125.545Z" fill="#888CF4"/>
<path d="M296.639 171.213C296.639 163.732 290.574 157.668 283.093 157.668L145.559 157.668V194.865C145.559 202.346 151.623 208.41 159.104 208.41L283.093 208.41C290.574 208.41 296.639 202.346 296.639 194.865V171.213Z" fill="#888CF4"/>
<path d="M109.145 141.174V130.231C109.145 130.003 109.224 129.807 109.382 129.643C109.54 129.479 109.733 129.396 109.962 129.396H116.668C120.213 129.396 121.985 131.031 121.985 134.301C121.985 137.564 120.213 139.196 116.668 139.196H112.458V141.174C112.458 141.402 112.376 141.599 112.212 141.763C112.054 141.921 111.86 142 111.632 142H109.979C109.751 142 109.555 141.921 109.391 141.763C109.227 141.599 109.145 141.402 109.145 141.174ZM112.458 136.709H115.666C116.65 136.709 117.397 136.545 117.907 136.217C118.417 135.883 118.672 135.244 118.672 134.301C118.672 133.352 118.417 132.713 117.907 132.385C117.397 132.051 116.65 131.884 115.666 131.884H112.458V136.709ZM130.098 134.6L128.744 134.547C127.953 134.547 127.197 134.98 126.477 135.848V141.464C126.477 141.622 126.424 141.751 126.318 141.851C126.219 141.95 126.093 142 125.94 142H123.972C123.813 142 123.685 141.95 123.585 141.851C123.485 141.751 123.436 141.622 123.436 141.464V132.912C123.436 132.754 123.485 132.625 123.585 132.525C123.69 132.42 123.819 132.367 123.972 132.367H125.94C126.099 132.367 126.228 132.42 126.327 132.525C126.427 132.625 126.477 132.754 126.477 132.912V133.466C127.074 133.032 127.648 132.713 128.199 132.508C128.756 132.297 129.482 132.191 130.379 132.191C130.537 132.191 130.666 132.244 130.766 132.35C130.871 132.449 130.924 132.575 130.924 132.728V134.063C130.924 134.222 130.871 134.351 130.766 134.45C130.666 134.55 130.537 134.6 130.379 134.6H130.098ZM133.016 140.91C132.102 140.066 131.645 138.824 131.645 137.184C131.645 135.537 132.102 134.295 133.016 133.457C133.93 132.613 135.242 132.191 136.953 132.191C138.67 132.191 139.985 132.613 140.899 133.457C141.813 134.295 142.271 135.537 142.271 137.184C142.271 138.824 141.813 140.066 140.899 140.91C139.985 141.754 138.67 142.176 136.953 142.176C135.242 142.176 133.93 141.754 133.016 140.91ZM135.239 134.898C134.876 135.373 134.694 136.132 134.694 137.175C134.694 138.218 134.876 138.979 135.239 139.46C135.603 139.94 136.174 140.181 136.953 140.181C137.738 140.181 138.312 139.94 138.676 139.46C139.045 138.979 139.229 138.218 139.229 137.175C139.229 136.132 139.045 135.373 138.676 134.898C138.312 134.424 137.738 134.187 136.953 134.187C136.174 134.187 135.603 134.424 135.239 134.898ZM147.799 141.262C146.469 141.262 145.394 140.86 144.573 140.058C143.759 139.255 143.352 138.142 143.352 136.718C143.352 135.294 143.817 134.184 144.749 133.387C145.681 132.59 147.017 132.191 148.757 132.191C149.606 132.191 150.488 132.288 151.402 132.481C152.316 132.669 153.005 132.9 153.468 133.176V141.314C153.468 142.621 153.037 143.585 152.176 144.206C151.314 144.833 150.104 145.146 148.546 145.146C146.993 145.146 145.795 144.95 144.951 144.558C144.113 144.171 143.694 143.529 143.694 142.633C143.694 142.475 143.744 142.343 143.844 142.237C143.949 142.138 144.081 142.088 144.239 142.088H145.549C145.971 142.088 146.308 142.243 146.56 142.554C146.882 142.952 147.453 143.151 148.273 143.151C149.1 143.151 149.665 143.017 149.97 142.747C150.274 142.478 150.427 142 150.427 141.314V140.901C149.489 141.142 148.613 141.262 147.799 141.262ZM148.572 134.318C147.184 134.312 146.489 135.115 146.489 136.727C146.489 138.332 147.166 139.135 148.52 139.135C149.082 139.135 149.718 139.047 150.427 138.871V134.512C149.923 134.377 149.305 134.312 148.572 134.318ZM162.301 134.6L160.947 134.547C160.156 134.547 159.4 134.98 158.68 135.848V141.464C158.68 141.622 158.627 141.751 158.521 141.851C158.422 141.95 158.296 142 158.144 142H156.175C156.017 142 155.888 141.95 155.788 141.851C155.688 141.751 155.639 141.622 155.639 141.464V132.912C155.639 132.754 155.688 132.625 155.788 132.525C155.894 132.42 156.022 132.367 156.175 132.367H158.144C158.302 132.367 158.431 132.42 158.53 132.525C158.63 132.625 158.68 132.754 158.68 132.912V133.466C159.277 133.032 159.852 132.713 160.402 132.508C160.959 132.297 161.686 132.191 162.582 132.191C162.74 132.191 162.869 132.244 162.969 132.35C163.074 132.449 163.127 132.575 163.127 132.728V134.063C163.127 134.222 163.074 134.351 162.969 134.45C162.869 134.55 162.74 134.6 162.582 134.6H162.301ZM165.113 140.893C164.211 140.037 163.76 138.807 163.76 137.201C163.76 135.59 164.214 134.354 165.122 133.492C166.03 132.625 167.29 132.191 168.901 132.191C170.513 132.191 171.77 132.613 172.672 133.457C173.574 134.295 174.025 135.499 174.025 137.069V137.57C174.025 137.729 173.973 137.86 173.867 137.966C173.768 138.065 173.639 138.115 173.48 138.115H166.862C166.921 138.836 167.126 139.36 167.478 139.688C167.835 140.017 168.403 140.181 169.183 140.181C169.962 140.181 170.495 140.005 170.782 139.653C171.069 139.302 171.424 139.123 171.846 139.117H173.155C173.313 139.117 173.442 139.17 173.542 139.275C173.647 139.375 173.7 139.504 173.7 139.662C173.7 141.344 172.098 142.182 168.893 142.176C167.275 142.176 166.016 141.748 165.113 140.893ZM166.845 136.261H170.932C170.873 134.878 170.193 134.187 168.893 134.187C167.598 134.187 166.915 134.878 166.845 136.261ZM175.098 135.03C175.098 133.138 176.624 132.191 179.677 132.191C182.888 132.191 184.493 133.032 184.493 134.714C184.493 134.866 184.443 134.995 184.344 135.101C184.244 135.2 184.115 135.25 183.957 135.25H182.647C182.226 135.25 181.871 135.074 181.584 134.723C181.297 134.365 180.731 134.187 179.888 134.187C178.728 134.187 178.147 134.468 178.147 135.03C178.147 135.294 178.373 135.514 178.824 135.689C179.281 135.865 179.835 136.021 180.485 136.155C181.142 136.284 181.795 136.451 182.445 136.656C183.096 136.861 183.646 137.189 184.098 137.641C184.555 138.086 184.783 138.651 184.783 139.337C184.783 141.229 183.172 142.176 179.949 142.176C176.727 142.176 175.115 141.338 175.115 139.662C175.115 139.504 175.165 139.375 175.265 139.275C175.37 139.17 175.502 139.117 175.66 139.117H176.97C177.392 139.117 177.746 139.296 178.033 139.653C178.32 140.005 178.886 140.181 179.729 140.181C181.071 140.181 181.742 139.899 181.742 139.337C181.742 139.073 181.514 138.854 181.057 138.678C180.605 138.502 180.052 138.347 179.396 138.212C178.739 138.071 178.086 137.901 177.436 137.702C176.791 137.497 176.24 137.169 175.783 136.718C175.326 136.267 175.098 135.704 175.098 135.03ZM185.873 135.03C185.873 133.138 187.399 132.191 190.452 132.191C193.663 132.191 195.269 133.032 195.269 134.714C195.269 134.866 195.219 134.995 195.119 135.101C195.02 135.2 194.891 135.25 194.732 135.25H193.423C193.001 135.25 192.646 135.074 192.359 134.723C192.072 134.365 191.507 134.187 190.663 134.187C189.503 134.187 188.923 134.468 188.923 135.03C188.923 135.294 189.148 135.514 189.6 135.689C190.057 135.865 190.61 136.021 191.261 136.155C191.917 136.284 192.57 136.451 193.221 136.656C193.871 136.861 194.422 137.189 194.873 137.641C195.33 138.086 195.559 138.651 195.559 139.337C195.559 141.229 193.947 142.176 190.725 142.176C187.502 142.176 185.891 141.338 185.891 139.662C185.891 139.504 185.94 139.375 186.04 139.275C186.146 139.17 186.277 139.117 186.436 139.117H187.745C188.167 139.117 188.521 139.296 188.809 139.653C189.096 140.005 189.661 140.181 190.505 140.181C191.847 140.181 192.518 139.899 192.518 139.337C192.518 139.073 192.289 138.854 191.832 138.678C191.381 138.502 190.827 138.347 190.171 138.212C189.515 138.071 188.861 137.901 188.211 137.702C187.566 137.497 187.016 137.169 186.559 136.718C186.102 136.267 185.873 135.704 185.873 135.03Z" fill="white"/>
<path d="M186.723 186.093L187.927 185.987H188.252C188.41 185.987 188.539 186.037 188.639 186.137C188.744 186.236 188.797 186.365 188.797 186.523V187.464C188.797 187.593 188.744 187.71 188.639 187.815C188.539 187.915 188.41 187.977 188.252 188C187.654 188.117 186.875 188.176 185.914 188.176C183.395 188.176 182.135 186.857 182.135 184.221V175.941C182.135 175.783 182.185 175.654 182.284 175.555C182.39 175.449 182.519 175.396 182.671 175.396H184.64C184.792 175.396 184.918 175.449 185.018 175.555C185.123 175.654 185.176 175.783 185.176 175.941V178.877H187.628C187.78 178.877 187.906 178.927 188.006 179.026C188.111 179.126 188.164 179.255 188.164 179.413V180.459C188.164 180.617 188.111 180.746 188.006 180.846C187.906 180.945 187.78 180.995 187.628 180.995H185.176V184.221C185.176 184.818 185.316 185.281 185.598 185.609C185.879 185.932 186.254 186.093 186.723 186.093ZM196.9 180.6L195.547 180.547C194.756 180.547 194 180.98 193.279 181.848V187.464C193.279 187.622 193.227 187.751 193.121 187.851C193.021 187.95 192.896 188 192.743 188H190.774C190.616 188 190.487 187.95 190.388 187.851C190.288 187.751 190.238 187.622 190.238 187.464V178.912C190.238 178.754 190.288 178.625 190.388 178.525C190.493 178.42 190.622 178.367 190.774 178.367H192.743C192.901 178.367 193.03 178.42 193.13 178.525C193.229 178.625 193.279 178.754 193.279 178.912V179.466C193.877 179.032 194.451 178.713 195.002 178.508C195.559 178.297 196.285 178.191 197.182 178.191C197.34 178.191 197.469 178.244 197.568 178.35C197.674 178.449 197.727 178.575 197.727 178.728V180.063C197.727 180.222 197.674 180.351 197.568 180.45C197.469 180.55 197.34 180.6 197.182 180.6H196.9ZM199.432 187.367C198.658 186.828 198.271 186.066 198.271 185.082C198.271 184.098 198.658 183.342 199.432 182.814C200.211 182.287 201.213 182.023 202.438 182.023H205.347C205.347 181.338 205.203 180.86 204.916 180.591C204.629 180.321 204.125 180.187 203.404 180.187C202.689 180.187 202.186 180.365 201.893 180.723C201.605 181.074 201.251 181.25 200.829 181.25H199.52C199.361 181.25 199.229 181.2 199.124 181.101C199.024 180.995 198.975 180.866 198.975 180.714C198.975 179.032 200.571 178.191 203.765 178.191C205.159 178.191 206.278 178.505 207.122 179.132C207.966 179.753 208.388 180.717 208.388 182.023V187.464C208.388 187.622 208.338 187.751 208.238 187.851C208.139 187.95 208.01 188 207.852 188H206.155C205.997 188 205.868 187.95 205.769 187.851C205.669 187.745 205.619 187.616 205.619 187.464V187.191C204.693 187.854 203.624 188.182 202.411 188.176C201.204 188.176 200.211 187.906 199.432 187.367ZM202.648 184.019C202.238 184.019 201.913 184.118 201.673 184.317C201.438 184.517 201.321 184.774 201.321 185.091C201.321 185.407 201.444 185.668 201.69 185.873C201.937 186.078 202.285 186.181 202.736 186.181C203.639 186.181 204.509 185.917 205.347 185.39V184.019H202.648ZM215.217 188.176C213.576 188.176 212.299 187.754 211.385 186.91C210.471 186.066 210.014 184.827 210.014 183.192C210.014 181.552 210.468 180.31 211.376 179.466C212.284 178.616 213.547 178.191 215.164 178.191C216.787 178.191 218.032 178.449 218.899 178.965C219.772 179.48 220.209 180.242 220.209 181.25C220.209 181.408 220.156 181.537 220.051 181.637C219.951 181.736 219.822 181.786 219.664 181.786H218.354C217.956 181.786 217.619 181.572 217.344 181.145C216.998 180.594 216.386 180.318 215.507 180.318C214.634 180.318 214.021 180.544 213.67 180.995C213.324 181.44 213.151 182.17 213.151 183.184C213.151 184.197 213.33 184.93 213.688 185.381C214.051 185.832 214.678 186.058 215.568 186.058C216.465 186.058 217.086 185.782 217.432 185.231C217.707 184.798 218.044 184.581 218.442 184.581H219.752C219.91 184.581 220.039 184.634 220.139 184.739C220.244 184.839 220.297 184.965 220.297 185.117C220.297 186.125 219.86 186.887 218.987 187.402C218.12 187.918 216.863 188.176 215.217 188.176ZM231.45 187.613C231.45 187.871 231.298 188 230.993 188H229.332C228.77 188 228.321 187.725 227.987 187.174L226.871 185.354C226.391 184.575 225.693 184.186 224.779 184.186V187.464C224.779 187.622 224.727 187.751 224.621 187.851C224.521 187.95 224.396 188 224.243 188H222.274C222.116 188 221.987 187.95 221.888 187.851C221.788 187.751 221.738 187.622 221.738 187.464V175.941C221.738 175.783 221.788 175.654 221.888 175.555C221.993 175.449 222.122 175.396 222.274 175.396H224.243C224.401 175.396 224.53 175.449 224.63 175.555C224.729 175.654 224.779 175.783 224.779 175.941V182.182C225.799 182.182 226.496 181.786 226.871 180.995L227.715 179.202C227.832 178.95 228.005 178.748 228.233 178.596C228.462 178.443 228.708 178.367 228.972 178.367H230.633C230.926 178.367 231.072 178.481 231.072 178.71C231.072 178.839 231.025 179.003 230.932 179.202L229.798 181.593C229.604 181.991 229.341 182.334 229.007 182.621C228.673 182.908 228.312 183.093 227.926 183.175C228.646 183.392 229.271 183.919 229.798 184.757L231.292 187.174C231.392 187.344 231.444 187.49 231.45 187.613ZM232.725 176.53V176.231C232.725 175.921 232.812 175.675 232.988 175.493C233.17 175.312 233.419 175.221 233.735 175.221H234.825C235.136 175.221 235.382 175.312 235.563 175.493C235.745 175.669 235.836 175.915 235.836 176.231V176.53C235.836 176.841 235.745 177.087 235.563 177.269C235.388 177.45 235.142 177.541 234.825 177.541H233.735C233.425 177.541 233.179 177.45 232.997 177.269C232.815 177.087 232.725 176.841 232.725 176.53ZM232.76 187.464V179.123C232.76 178.965 232.81 178.836 232.909 178.736C233.015 178.637 233.144 178.587 233.296 178.587H235.265C235.423 178.587 235.552 178.64 235.651 178.745C235.751 178.845 235.801 178.971 235.801 179.123V187.464C235.801 187.622 235.748 187.751 235.643 187.851C235.543 187.95 235.417 188 235.265 188H233.296C233.138 188 233.009 187.95 232.909 187.851C232.81 187.751 232.76 187.622 232.76 187.464ZM237.998 187.464V178.912C237.998 178.754 238.048 178.625 238.147 178.525C238.253 178.42 238.382 178.367 238.534 178.367H240.503C240.655 178.367 240.781 178.42 240.881 178.525C240.986 178.625 241.039 178.754 241.039 178.912V179.466C242.047 178.616 243.119 178.191 244.256 178.191C245.398 178.191 246.327 178.54 247.042 179.237C247.757 179.929 248.114 180.989 248.114 182.419V187.464C248.114 187.616 248.062 187.745 247.956 187.851C247.856 187.95 247.728 188 247.569 188H245.609C245.457 188 245.328 187.95 245.223 187.851C245.123 187.745 245.073 187.616 245.073 187.464V182.419C245.073 181.019 244.514 180.318 243.395 180.318C242.662 180.318 241.877 180.737 241.039 181.575V187.464C241.039 187.616 240.986 187.745 240.881 187.851C240.781 187.95 240.655 188 240.503 188H238.534C238.382 188 238.253 187.95 238.147 187.851C238.048 187.745 237.998 187.616 237.998 187.464ZM254.188 187.262C252.857 187.262 251.782 186.86 250.962 186.058C250.147 185.255 249.74 184.142 249.74 182.718C249.74 181.294 250.206 180.184 251.138 179.387C252.069 178.59 253.405 178.191 255.146 178.191C255.995 178.191 256.877 178.288 257.791 178.481C258.705 178.669 259.394 178.9 259.856 179.176V187.314C259.856 188.621 259.426 189.585 258.564 190.206C257.703 190.833 256.493 191.146 254.935 191.146C253.382 191.146 252.184 190.95 251.34 190.558C250.502 190.171 250.083 189.529 250.083 188.633C250.083 188.475 250.133 188.343 250.232 188.237C250.338 188.138 250.47 188.088 250.628 188.088H251.938C252.359 188.088 252.696 188.243 252.948 188.554C253.271 188.952 253.842 189.151 254.662 189.151C255.488 189.151 256.054 189.017 256.358 188.747C256.663 188.478 256.815 188 256.815 187.314V186.901C255.878 187.142 255.002 187.262 254.188 187.262ZM254.961 180.318C253.572 180.312 252.878 181.115 252.878 182.727C252.878 184.332 253.555 185.135 254.908 185.135C255.471 185.135 256.106 185.047 256.815 184.871V180.512C256.312 180.377 255.693 180.312 254.961 180.318Z" fill="white"/>
</svg>
